<?xml version="1.0" encoding="UTF-8"?>
<svg id="Layer_1" data-name="Layer 1" xmlns="http://www.w3.org/2000/svg" viewBox="0 0 423.64 434.57">
  <defs>
    <style>
      .cls-1 {
        fill: none;
      }

      .cls-2 {
        fill: #010101;
      }

      .cls-3 {
        fill: #fff;
      }

      .cls-4 {
        fill: #e85c4f;
      }

      .cls-5 {
        fill: #f7e3c9;
      }

      .cls-6 {
        fill: #fee3c9;
      }

      .cls-7 {
        fill: #e7c39a;
      }

      .cls-8 {
        fill: #fff8ee;
      }
    </style>
  </defs>
  <g id="Generative_Object_0_0_" data-name="Generative Object (0, 0)">
    <path class="cls-8" d="M177.79,382.06c-2.67,5.65-6.77,9.3-12.26,10.92-5.5,1.64-11.45,1.64-17.84,0-6.4-1.63-12.26-4.3-17.61-8.03-5.35-3.71-9.3-8.25-11.82-13.6-2.53-5.35-2.45-10.85.22-16.5-5.95,4.17-11.59,5.57-16.95,4.24-5.35-1.34-9.66-4.31-12.93-8.92-3.27-4.61-4.68-9.66-4.24-15.16.45-5.5,3.64-10.33,9.59-14.49-5.65.6-10.48-1.12-14.49-5.13-4.01-4.01-7.06-9.29-9.14-15.83-2.08-6.53-3.05-13.22-2.9-20.07.15-6.84,1.63-12.78,4.46-17.84,2.82-5.05,7.06-7.87,12.71-8.47-6.84-.29-12.19-2.9-16.05-7.8-3.87-4.91-6.32-10.85-7.36-17.84-1.05-6.98-.74-13.89.89-20.73,1.63-6.84,4.53-12.49,8.69-16.95,4.16-4.46,9.51-6.69,16.05-6.69-4.16-2.08-6.47-5.64-6.91-10.7-.45-5.05.37-10.55,2.45-16.5,2.08-5.94,4.98-11.52,8.7-16.72,3.71-5.2,7.8-9.07,12.26-11.59,4.46-2.52,8.62-2.75,12.49-.67-5.65-7.43-7.88-13.52-6.69-18.28,1.18-4.75,4.31-7.14,9.36-7.14s10.4,3.72,16.05,11.15c-3.27-8.32-3.87-15.31-1.78-20.96,2.08-5.64,5.65-9.43,10.7-11.37,5.05-1.93,10.33-1.63,15.83.89,5.5,2.53,9.88,7.8,13.16,15.83-.89-7.14.15-12.78,3.12-16.95,2.97-4.16,6.84-6.53,11.59-7.13,4.75-.59,9.14.67,13.16,3.79,4.01,3.12,6.61,8.25,7.8,15.39.59-6.84,3.64-11.96,9.14-15.39,5.5-3.41,11.89-5.42,19.17-6.02,7.28-.59,14.49.22,21.63,2.45,7.14,2.23,12.93,5.65,17.39,10.26,4.46,4.61,6.24,10.33,5.35,17.17,4.46-10.1,9.51-15.9,15.16-17.39,5.64-1.48,9.73.38,12.26,5.58,2.52,5.21,1.56,12.86-2.9,22.97,6.54-8.92,12.49-13.67,17.84-14.27,5.35-.59,8.47,1.71,9.37,6.91.89,5.21-1.94,12.26-8.47,21.18,6.53-5.05,12.56-7.36,18.06-6.91,5.5.44,9.66,2.53,12.49,6.24,2.82,3.72,3.64,8.25,2.45,13.6-1.19,5.35-5.21,10.56-12.04,15.61,6.54-2.08,11.89-2.01,16.05.22,4.16,2.23,6.84,5.35,8.03,9.36,1.18,4.01.67,8.03-1.56,12.04-2.23,4.01-6.62,7.06-13.16,9.14,5.64-.29,10.18,1.72,13.6,6.02,3.41,4.31,5.8,9.66,7.14,16.05,1.34,6.4,1.56,12.86.67,19.4-.89,6.54-2.9,12.04-6.02,16.5s-7.51,6.84-13.16,7.14c11,0,18.28,2,21.85,6.02,3.57,4.01,3.49,7.96-.22,11.82-3.72,3.87-11.08,5.65-22.07,5.35,7.14,1.19,12.04,4.53,14.72,10.03,2.68,5.5,3.42,11.37,2.23,17.62-1.19,6.24-4.01,11.37-8.47,15.38-4.46,4.01-10.26,5.28-17.39,3.79,3.57,3.27,4.91,7.58,4.01,12.93-.89,5.35-3.27,10.78-7.14,16.28-3.87,5.5-8.4,10.33-13.6,14.49-5.21,4.17-10.33,6.91-15.39,8.25-5.06,1.34-9.36.38-12.93-2.9,1.78,6.84.22,12.79-4.68,17.84-4.91,5.06-11.23,8.62-18.95,10.7-7.73,2.08-15.01,2.23-21.85.44-6.84-1.78-11.15-6.09-12.93-12.93.89,16.35-4.31,24.53-15.61,24.53s-28.09-9.22-50.39-27.65ZM232.54,311.99c5.95-7.61,7.68-12.32,8.09-15.26.07-.47.19-1.65.65-3.22.81-2.82,2.17-5.49,4.07-8,3.71-4.91,8.69-7.2,14.94-6.91-3.87-2.08-6.62-5.64-8.25-10.7-1.64-5.05-2.16-10.4-1.56-16.05.59-5.65,2.3-10.48,5.13-14.49,2.82-4.01,6.76-6.02,11.82-6.02-5.95.3-10.41-2.15-13.38-7.36-2.97-5.2-4.09-11-3.34-17.39.74-6.39,3.19-11.22,7.36-14.49-5.65.6-10.56-1.63-14.72-6.69-4.17-5.05-5.65-10.26-4.46-15.61-3.57,2.08-7.21,2.6-10.93,1.56-3.72-1.04-6.62-3.34-8.69-6.91-1.19,5.06-4.17,8.85-8.92,11.37-4.76,2.53-9.52,3.05-14.27,1.56,1.48,4.17,1.63,8.63.45,13.38-1.19,4.76-3.42,8.77-6.69,12.04-3.28,3.28-7.29,4.91-12.04,4.91,4.16,1.19,7.2,3.72,9.14,7.58,1.93,3.87,2.68,8.1,2.23,12.71-.45,4.61-1.94,8.55-4.46,11.82-2.53,3.27-6.17,4.91-10.93,4.91,6.24-.29,10.4.6,12.49,2.67,2.08,2.08,2.08,4.24,0,6.47-2.08,2.23-6.24,3.34-12.49,3.34,7.14-.29,12.26,1.41,15.39,5.13,3.12,3.72,4.31,7.96,3.57,12.71-.74,4.76-3.5,8.47-8.25,11.15,5.05.6,9.81,3.57,14.27,8.92,4.46,5.35,6.84,10.86,7.14,16.5,8.88.13,17.77.26,26.65.39Z"/>
    <g>
      <g>
        <path class="cls-3" d="M160.56,215.23c-4.16-4.15-5.23-9.06-5.76-11.53-1.3-5.98-.13-10.71.85-14.69,1-4.08,1.92-7.79,5.1-11.34,2.76-3.07,5.85-4.5,7.18-5.1,3.22-1.45,5.78-1.69,9.83-2.08,5.19-.49,8.56-.81,12.47.76,1.74.7,2.99,1.6,5.48,3.4,3.86,2.79,6.53,4.72,8.5,8.18,1.61,2.81,2.01,5.32,2.46,8.07.35,2.19.88,5.65,0,10.02-.35,1.75-1.06,5.06-3.45,8.5-2.32,3.34-5.02,5.05-8.08,6.99-2.04,1.29-4.57,2.87-8.27,3.97-1.72.51-6.27,1.68-12.09.9-3.5-.47-9.42-1.27-14.22-6.05Z"/>
        <path class="cls-2" d="M178.73,222.55c-1.29,0-2.65-.08-4.08-.27-3.65-.49-9.76-1.31-14.8-6.33h0c-4.37-4.36-5.5-9.54-6.04-12.02-1.35-6.21-.12-11.16.86-15.15,1.02-4.13,1.98-8.03,5.33-11.77,2.95-3.29,6.27-4.79,7.52-5.35,3.38-1.52,6.07-1.77,10.14-2.16,5.3-.5,8.8-.84,12.94.82,1.86.75,3.14,1.67,5.7,3.52,3.89,2.81,6.7,4.85,8.79,8.5,1.7,2.97,2.12,5.61,2.58,8.4.33,2.02.93,5.75,0,10.38-.34,1.68-1.05,5.19-3.61,8.88-2.44,3.51-5.32,5.34-8.37,7.27-1.95,1.23-4.62,2.93-8.52,4.08-2.02.6-4.93,1.2-8.43,1.2ZM161.27,214.52c4.56,4.54,10.25,5.31,13.64,5.76,4.99.67,9.1-.1,11.68-.86,3.63-1.08,6.17-2.68,8.02-3.85,3-1.9,5.58-3.54,7.79-6.72,2.33-3.35,2.98-6.58,3.29-8.13.86-4.27.32-7.64,0-9.66-.44-2.73-.82-5.08-2.34-7.73-1.87-3.27-4.4-5.1-8.22-7.87-2.42-1.75-3.64-2.63-5.27-3.28-3.69-1.48-6.82-1.18-12-.69-4.02.38-6.44.61-9.51,2-1.14.51-4.17,1.88-6.85,4.86-3.02,3.36-3.88,6.86-4.88,10.91-.98,3.98-2.09,8.49-.84,14.24.54,2.48,1.54,7.09,5.49,11.03h0Z"/>
      </g>
      <path class="cls-2" d="M205.04,206.87c-3.22-.45-6.4-.74-9.47-.86-1.03-.04-2.75-.05-6.13-.05-1.25.01-2.7.01-4.4.01-2.32,0-3.83,0-5.03.02-1.79,0-2.89.02-4.94-.02-1.74-.04-2.8-.07-3.63-.1l-1.1-.03c-.69-.01-1.35-.01-2.41,0-.82.01-1.48.03-2.07.05-1.42.04-2.45.07-4.07-.05-1.28-.1-2.02-.22-2.73-.34-.63-.1-1.22-.2-2.2-.29-.57-.05-1.24-.1-1.99-.13l.07-2.01c.8.03,1.5.08,2.1.14,1.05.1,1.71.21,2.34.31.7.12,1.37.23,2.55.32,1.52.11,2.45.08,3.86.04.59-.02,1.27-.04,2.1-.05,1.09-.01,1.77-.01,2.47,0l1.14.04c.82.03,1.88.06,3.6.1,2.03.03,3.11.03,4.89.02,1.2,0,2.72-.02,5.05-.02h.02c1.69,0,3.13,0,4.38-.01h.02c3.4,0,5.14.02,6.2.05,3.14.12,6.39.42,9.67.88l-.28,1.99Z"/>
      <path class="cls-2" d="M206.93,194.48c-1.3-.12-3.29-.29-5.57-.37-1.97-.07-3.22-.06-5.11-.03-1.26.02-2.81.03-5.05.03h-1.34c-1.63,0-2.48-.02-3.6-.04-1.11-.02-2.49-.05-5.15-.07-3.95-.03-5.87,0-7.42.02-1.24.02-2.19.03-3.67,0-.37.04-.78-.01-1.25-.02h-.15c-3.12-.07-4.94-.18-6.28-.26-1.65-.1-2.48-.14-4.05-.02-1.13.1-2.27.25-3.4.46l-.36-1.98c1.18-.21,2.39-.38,3.58-.48,1.72-.14,2.65-.09,4.34.01,1.32.08,3.13.18,6.21.25h.15c.45.02.85.03,1.22.03,1.47.02,2.41.01,3.62,0,1.56-.02,3.5-.05,7.47-.02,2.67.02,4.05.05,5.17.07,1.11.02,1.96.04,3.55.04h1.35c2.23,0,3.77-.02,5.02-.03,1.92-.02,3.19-.04,5.21.03,2.32.09,4.35.26,5.68.38l-.18,2Z"/>
      <path class="cls-2" d="M189.85,193.1h.01c.86,1.66,1.34,3.55,1.34,5.56,0,2.32-.64,4.47-1.77,6.29h-.64l-18.45-.12h-.01c-1.07-1.79-1.69-3.91-1.69-6.17,0-2.05.5-3.96,1.39-5.64l19.81.08Z"/>
    </g>
    <g>
      <g>
        <path class="cls-3" d="M265.44,214.87c4.16-4.15,5.23-9.06,5.76-11.53,1.3-5.98.13-10.71-.85-14.69-1-4.08-1.92-7.79-5.1-11.34-2.76-3.07-5.85-4.5-7.18-5.1-3.22-1.45-5.78-1.69-9.83-2.08-5.19-.49-8.56-.81-12.47.76-1.74.7-2.99,1.6-5.48,3.4-3.86,2.79-6.53,4.72-8.5,8.18-1.61,2.81-2.01,5.32-2.46,8.07-.35,2.19-.88,5.65,0,10.02.35,1.75,1.06,5.06,3.45,8.5,2.32,3.34,5.02,5.05,8.08,6.99,2.04,1.29,4.57,2.87,8.27,3.97,1.72.51,6.27,1.68,12.09.9,3.5-.47,9.42-1.27,14.22-6.05Z"/>
        <path class="cls-2" d="M247.27,222.19c-3.5,0-6.41-.6-8.43-1.2-3.91-1.16-6.57-2.85-8.52-4.08-3.05-1.93-5.93-3.76-8.37-7.27-2.56-3.68-3.27-7.19-3.61-8.88-.93-4.63-.33-8.37,0-10.38.45-2.8.88-5.44,2.58-8.41,2.09-3.65,4.9-5.68,8.79-8.5,2.55-1.85,3.84-2.77,5.7-3.52,4.14-1.66,7.64-1.33,12.94-.82,4.08.39,6.77.64,10.14,2.16,1.25.56,4.56,2.05,7.52,5.35,3.35,3.74,4.31,7.64,5.33,11.77.98,3.99,2.2,8.95.86,15.15-.54,2.49-1.66,7.67-6.04,12.03-5.04,5.02-11.15,5.84-14.8,6.33-1.43.19-2.79.27-4.08.27ZM242.17,170.73c-2.13,0-4,.28-6.04,1.09-1.63.65-2.84,1.53-5.27,3.28-3.82,2.77-6.35,4.59-8.22,7.87-1.52,2.65-1.9,5.01-2.34,7.73-.33,2.01-.87,5.38,0,9.66.31,1.55.97,4.79,3.29,8.13,2.21,3.18,4.79,4.82,7.79,6.71,1.85,1.17,4.38,2.78,8.02,3.86,2.58.76,6.7,1.53,11.68.86,3.4-.46,9.09-1.22,13.65-5.76h0c3.95-3.94,4.96-8.55,5.49-11.03,1.25-5.75.14-10.26-.84-14.23-1-4.06-1.86-7.55-4.88-10.92-2.67-2.98-5.71-4.34-6.85-4.86-3.07-1.38-5.5-1.61-9.51-1.99-2.32-.22-4.24-.4-5.97-.4Z"/>
      </g>
      <path class="cls-2" d="M220.96,206.51l-.28-1.99c3.29-.46,6.54-.76,9.67-.88,1.08-.04,2.82-.05,6.21-.05,1.27.01,2.71.01,4.4.01,2.33,0,3.84,0,5.05.02,1.78.01,2.86.02,4.9-.02,1.7-.04,2.75-.07,3.57-.1l1.14-.04c.72-.01,1.4-.01,2.49,0,.83.01,1.5.03,2.1.05,1.41.04,2.34.06,3.87-.04,1.18-.09,1.84-.2,2.55-.32.64-.11,1.3-.21,2.34-.31.61-.06,1.31-.11,2.11-.14l.07,2.01c-.76.03-1.42.08-1.99.13-.97.09-1.57.19-2.2.29-.72.12-1.46.24-2.73.34-1.63.12-2.65.09-4.07.05-.59-.02-1.25-.03-2.07-.05-1.05-.01-1.71-.01-2.4,0l-1.13.03c-.83.03-1.89.06-3.6.1-2.05.03-3.15.03-4.94.02-1.2,0-2.71-.02-5.04-.02-1.7,0-3.15,0-4.42-.01-3.31,0-5.09.02-6.12.05-3.06.12-6.25.41-9.47.86Z"/>
      <path class="cls-2" d="M219.07,194.12l-.18-2c1.31-.12,3.33-.29,5.67-.38,2.03-.07,3.29-.06,5.21-.03,1.25.02,2.8.03,5.03.03h1.34c1.6,0,2.45-.02,3.56-.04,1.12-.02,2.5-.05,5.18-.07,3.97-.03,5.92,0,7.47.02,1.21.02,2.15.03,3.6,0,.36,0,.73,0,1.15-.02h.23c3.09-.08,4.89-.18,6.21-.26,1.69-.1,2.62-.15,4.33-.01,1.2.11,2.41.27,3.59.48l-.36,1.98c-1.12-.2-2.27-.36-3.4-.46-1.57-.13-2.4-.08-4.05.02-1.33.08-3.16.18-6.28.26h-.23c-.44.02-.83.03-1.19.03-1.46.02-2.41.01-3.64,0-1.55-.02-3.48-.05-7.43-.02-2.66.02-4.04.05-5.15.07-1.12.02-1.97.04-3.58.04h-1.35c-2.24,0-3.79-.02-5.05-.03-1.89-.02-3.14-.04-5.11.03-2.29.09-4.28.25-5.57.37Z"/>
      <path class="cls-2" d="M236.15,192.74h-.01c-.86,1.66-1.34,3.55-1.34,5.56,0,2.32.64,4.47,1.77,6.29h.64l18.45-.12h.01c1.07-1.79,1.69-3.91,1.69-6.17,0-2.05-.5-3.96-1.39-5.64l-19.81.08Z"/>
    </g>
    <g>
      <path class="cls-2" d="M245.14,298.23c.11-1.36.24-3.24-.58-5.41-4.2-11.18-26.37-11.32-31.64-11.36-4.22-.03-28.63-.19-32.77,11.44-.74,2.08-.59,3.85-.45,5.27,1.15,12,14.91,27.3,32.38,27.47,17.7.17,32.07-15.27,33.05-27.4Z"/>
      <path class="cls-3" d="M190.93,290.58c6.89-.12,13.69-.5,20.53-1.29,6.86-.86,14-.36,20.51,2.06-6.76-1.38-13.54-1.62-20.37-.73-6.84.74-13.82.88-20.66-.04h0Z"/>
    </g>
    <g id="Tongue">
      <g id="Toung">
        <path class="cls-4" d="M155.04,340.16c-1.76.26-4.13.72-6.84,1.59-2.37.76-7.74,2.53-13.11,6.87-2.93,2.36-6.77,5.47-9.07,10.87-.57,1.33-4.68,11.38.28,18.9,4.72,7.15,15.82,9.26,24,6.79,12.69-3.84,11-16.41,28.54-29.93,10.3-7.94,21.97-12.15,21.81-12.45-.08-.16-2.9,1.42-6.76,2.71-9.58,3.2-18.11,2.14-21.06,1.67-8.3-1.33-14.39-4.73-17.79-7Z"/>
        <path class="cls-2" d="M143.31,387.16c-6.89,0-14.12-2.59-17.84-8.23-5.1-7.73-1.2-17.89-.37-19.84,2.39-5.63,6.42-8.88,9.36-11.25,5.63-4.55,11.3-6.36,13.44-7.04,2.28-.73,4.63-1.27,7-1.62l.38-.06.32.21c5.24,3.5,11.25,5.86,17.39,6.85,3.96.63,11.91,1.27,20.59-1.63,2.3-.77,4.24-1.65,5.41-2.18,1.31-.59,2.1-.95,2.56-.03l.19.38-.14.42c-.18.5-.35.58-2.48,1.55-3.61,1.65-12.07,5.5-19.67,11.35-8.34,6.43-12.32,12.74-15.52,17.81-3.59,5.7-6.43,10.19-13.34,12.29-2.25.68-4.75,1.03-7.29,1.03ZM154.81,341.21c-2.13.33-4.25.84-6.3,1.49-2.04.65-7.44,2.38-12.79,6.69-2.93,2.37-6.58,5.31-8.78,10.48-.76,1.79-4.34,11.08.2,17.95,4.52,6.85,15.39,8.65,22.87,6.38,6.19-1.88,8.72-5.89,12.23-11.44,3.28-5.2,7.37-11.68,15.99-18.33,3.26-2.51,6.66-4.66,9.78-6.43-6.54,1.16-12.16.65-15.34.14-6.3-1.01-12.46-3.41-17.86-6.94Z"/>
      </g>
      <path class="cls-2" d="M174.27,347.95c-11.5,1.82-22.34,7.49-30.4,15.93-.43.47-1.18-.21-.73-.69,4-4.41,8.73-8.18,13.95-11.1,5.22-2.93,10.93-4.99,16.84-6.11.54-.1,1.07.25,1.17.8.11.55-.27,1.09-.83,1.18h0Z"/>
    </g>
    <g id="Whisker_lips" data-name="Whisker/lips">
      <path class="cls-2" d="M213.1,318.57c.93,6.6-.5,14.17-4.89,19.46-3.78,4.51-8.98,7.96-14.58,9.58-8.59,2.5-17.63,1.65-26.19-.28-11.48-2.95-21.56-10.92-27.74-20.84-.41-.68.55-1.42,1.08-.78,5.03,6.1,11.11,11.31,18.06,14.77,10.19,5.09,22.73,7.18,33.72,3.72,3.57-1.22,6.85-3.14,9.52-5.7,2.7-2.57,4.55-5.81,6.47-9.01,1.81-3.33,3.1-7.02,4.16-10.95.04-.21.38-.19.4.02h0Z"/>
      <path class="cls-2" d="M272.96,329.08c-4.7,9.86-14.89,17.26-25.34,20.05-9.01,2.3-19.37,2.91-27.68-2.05-9.1-5.59-10.1-16.97-6.14-25.95.09-.21.42-.12.39.11-.87,6.77-.07,14.13,4.37,19.3,8.42,10,27.72,8.12,38.34,2.56,4.65-2.53,8.67-6.16,12-10.27,1.11-1.38,2.12-2.83,3.34-4.19.29-.36.91,0,.73.44h0Z"/>
      <circle class="cls-2" cx="160.61" cy="308.09" r="1.74"/>
      <circle class="cls-2" cx="157.74" cy="326.08" r="2.87"/>
      <circle class="cls-2" cx="176.57" cy="324.61" r="3.44"/>
      <circle class="cls-2" cx="248.19" cy="314.2" r="2.87"/>
      <circle class="cls-2" cx="259.54" cy="327.76" r="1.98"/>
      <circle class="cls-2" cx="240.25" cy="329.74" r="3.44"/>
    </g>
    <g>
      <path class="cls-8" d="M265.03,107.15c-4.38-8.55-3.61-14.89-3.02-17.64.6-2.82,1.94-5.34,4.62-10.37,3.16-5.93,6.22-10.1,8.38-13.01,2.59-3.49,4.17-5.6,6.81-8.18.83-.81,3.45-3.3,7.64-6.12,7.62-5.12,9.03-3.67,13.94-7.49,3.81-2.96,2.75-3.74,9.39-10.58,3.42-3.52,5.59-5.76,9.07-8.06,4.18-2.77,7.98-5.29,13.29-5.23,6.2.07,10.6,3.61,11.91,4.66.77.62,2.71,2.27,6.07,7.62,1.79,2.84,4.64,7.44,7.03,14.11,3.52,9.81,4.18,18.93,4.08,25.43,1.79,5.49,3.96,14.09,3.8,24.64-.39,25.54-14.15,46.16-16.07,48.95-9.69,14.15-20.69,21.56-18.27,31.43.73,2.97,2.42,5.14,3.7,6.47-.96-.07-3.79-.4-6.14-2.65-1.13-1.09-1.77-2.25-2.13-3.07-.12.18-.53.86-.41,1.8.13,1,.79,1.58.94,1.7-1.16-.34-2.47-.86-3.8-1.65-5.09-3.05-7.04-8.12-7.7-10.16-.25.95-.48,2.13-.57,3.5-.11,1.77.06,3.29.28,4.44-1.13-.73-2.7-1.95-4.06-3.87-2.62-3.71-2.73-7.61-2.69-9.12-.26.09-1.37.5-1.99,1.69-.8,1.53-.09,3.04,0,3.21-1.62-.91-4.66-2.89-7.12-6.55-2.68-3.99-3.28-7.89-3.44-9.76-.2.46-.62,1.2-1.41,1.76,0,0-1.38.97-3.65.63-4.19-.62-7.56-8.42-8.13-9.76-3.02-7.21-2.99-14.01-2.93-18.36.03-2.12.17-3.87.28-5.01-.4,1.36-1.13,3.26-2.52,5.23-1.93,2.75-4.21,4.34-5.61,5.16.21-1.17.46-2.94.5-5.1.02-1.33,0-5.04-2.14-12.98-.28-1.05-.51-1.84-.71-2.49-.52-1.7-.9-2.91-.99-3.17-.97-3.05-.99-7.05-.99-8.23,0-2.32.21-5.54,1.18-9.28,0-.03-.13,1.53-.85,3.29-1.15,2.82-2.78,3.51-4.1,5.63-.78,1.26-1.62,3.31-1.48,6.54Z"/>
      <path id="Inner_Stroke" data-name="Inner Stroke" class="cls-5" d="M342.34,22.15c-5-2.13-10.77-2.03-15.48.77-7.13,3.84-12.88,9.76-17.96,15.98-2.32,3.45-5.15,6.54-8.91,8.47-3.68,1.76-7.41,3.11-10.72,5.54-4.43,2.97-8.19,6.78-11.59,10.94-5.25,6.13-9.62,12.87-12.87,20.23-3.4,7.22-2.3,15.57,1.19,22.59,0,0-2.04.35-2.04.35.73-5.8,3.06-11.39,6.69-15.96l2.6-3.28c-.95,4.65-1.81,9.57-1.74,14.33-.02,2.6.05,5,.89,7.46,1.8,5.91,3.57,11.95,3.58,18.19-.04,1.79-.23,3.58-.57,5.34l-1.2-.84c3.75-2.13,6.64-5.73,7.89-9.89l1.71-5.71-.39,5.97c-.98,10.6-.32,22.61,7,30.99,2.01,2.5,6.69,2.93,8.12-.33,0,0,.07-.15.07-.15v.17s.02.03.02.03h-.09s.31-1.71.31-1.71l-.22,1.72-.04.33s-.05-.35-.05-.36c0,0,.09.01.09.01l-.02.05c-.6,1.57-2.19,2.48-3.84,2.53-2.73.28-4.87-1.87-6.37-3.89-5.08-7.01-6.77-15.86-6.55-24.38,0,0,.24-5.13.24-5.13l1.32.26c-1.25,4.51-4.32,8.49-8.37,10.9l-1.49.89.29-1.73c1.29-6.8-.59-13.64-2.48-20.17-.42-1.54-1.24-3.57-1.47-5.15-.71-5.35-.33-10.68.58-15.98,0,0,1.81.82,1.81.82-3.37,4.31-5.51,9.54-6.16,14.97l-.43,3.56c-3.24-5.92-5.71-12.56-5-19.48.45-5.65,3.3-10.6,5.93-15.46,2.72-4.77,6.06-9.17,9.65-13.25,3.51-4.15,7.5-8.07,12.13-11.06,3.33-2.36,7.31-3.75,10.98-5.39,3.68-1.78,6.36-4.66,8.7-7.95,4.46-5.13,9.17-10.16,15.01-13.73,5.62-3.98,12.92-5.87,19.25-2.36h0Z"/>
      <path id="outer" class="cls-6" d="M368.03,96.94c.16-10.55-2.01-19.16-3.8-24.64.1-6.5-.56-15.63-4.08-25.43-2.39-6.67-5.24-11.27-7.03-14.11-3.36-5.35-5.31-7.01-6.07-7.62-.71-.57-2.36-1.89-4.71-2.98-5.18,4.69-11.2,11.25-16.45,20.06-8.53,14.3-10.7,27.25-11.18,30.43-1.05,6.92-1.09,13.7-1.17,27.28-.06,10.66.37,15.14-2.18,21.56-1.59,3.99-3.1,5.64-5.22,11.91-2.18,6.47-1.6,7.39-3.65,10.71-1.36,2.2-3.12,4.19-3.65,7.53-.08.49-.14,1.04-.27,1.71.17,1.88.77,5.76,3.44,9.73,2.46,3.67,5.49,5.64,7.12,6.55-.08-.16-.79-1.67,0-3.21.62-1.19,1.73-1.6,1.99-1.69-.04,1.51.07,5.41,2.69,9.12,1.36,1.93,2.93,3.15,4.06,3.87-.22-1.15-.39-2.67-.28-4.44.08-1.36.31-2.54.57-3.5.66,2.04,2.61,7.1,7.7,10.16,1.33.8,2.63,1.31,3.8,1.65-.15-.12-.81-.7-.94-1.7-.12-.93.29-1.62.41-1.8.36.82.99,1.99,2.13,3.07,2.35,2.25,5.18,2.58,6.14,2.65-1.28-1.34-2.97-3.5-3.7-6.47-2.42-9.88,8.58-17.28,18.27-31.43,1.91-2.79,15.68-23.41,16.07-48.95Z"/>
      <path id="Center" class="cls-7" d="M336.78,142.69c-5.03,5.8-9.77,8.07-13.23,9.08-3.24.94-6.59,1.11-9.18,3.99-1.66,1.85-2.17,3.88-2.7,6.14-.19.82-.39,1.62-.54,2.81h0c-.27.08-1.38.5-1.99,1.69-.8,1.54-.09,3.04-.01,3.21-1.62-.91-4.66-2.89-7.12-6.56-2.66-3.98-3.27-7.84-3.44-9.73.05-.4.14-.99.27-1.71,1.56-8.86,5.29-14.51,7.31-18.23,3.9-7.2,4.93-13.69,6.1-21.01,1.03-6.48.32-7.34,1.06-21.42.51-9.63.76-14.44,1.41-18.32.96-5.77,3.52-17.64,11.18-30.43,2.48-4.14,5.11-7.78,7.76-10.96-1.79,3.96-3.53,9.13-4.18,15.31-.46,4.42-.25,8.33.16,11.5.58-.8,1.15-1.62,1.74-2.44,3.79,6.83,8.55,17.91,8.31,31.75-.05,3.09-.35,5.96-.79,8.61.15-.31.59-1.12,1.55-1.69.99-.56,1.93-.52,2.26-.5.55,3.23,1.03,8.85-1,15.22-.43,1.34-1.7,5.02-4.6,9.06-2.16,2.99-4.42,5.11-6.17,6.52.83-.35,2.26-.83,4.08-.84,1.77-.01,3.15.4,3.98.74-.92.12-2.22.43-3.43,1.34-.95.71-1.35,1.43-2.26,2.64-.7.91-1.74,2.2-3.21,3.65.6.05,1.54.11,2.66,0,1.08-.12,2.8-.43,6.68-2.4,1.42-.72,3.28-1.75,5.42-3.16-4.83,5.09-9.66,10.17-14.5,15.25.58.32,1.34.66,2.28.88,1.77.43,3.28.2,4.15,0Z"/>
      <path class="cls-1" d="M265.03,107.15c-4.19-8.34-3.51-14.89-3.02-17.64.66-3.71,2.06-6.48,3.92-10.15,2.29-4.51,4.54-7.47,8.57-12.77,3.04-3.99,4.62-6.05,7.31-8.64.96-.92,3.62-3.41,7.64-6.12,7.54-5.08,9.01-3.65,13.94-7.49,3.81-2.96,2.75-3.74,9.39-10.58,3.42-3.52,5.59-5.76,9.07-8.06,4.18-2.77,7.98-5.29,13.29-5.23,6.2.07,10.6,3.61,11.91,4.66.77.62,2.71,2.27,6.07,7.62,1.79,2.84,4.64,7.44,7.03,14.11,3.52,9.81,4.18,18.93,4.08,25.43,1.79,5.49,3.96,14.09,3.8,24.64-.39,25.54-14.15,46.16-16.07,48.95-9.69,14.15-20.69,21.56-18.27,31.43.73,2.97,2.42,5.14,3.7,6.47-.96-.07-3.79-.4-6.14-2.65-1.13-1.09-1.77-2.25-2.13-3.07-.12.18-.53.86-.41,1.8.13,1,.79,1.58.94,1.7-1.16-.34-2.47-.86-3.8-1.65-5.09-3.05-7.04-8.12-7.7-10.16-.25.95-.48,2.13-.57,3.5-.11,1.77.06,3.29.28,4.44-1.13-.73-2.7-1.95-4.06-3.87-2.62-3.71-2.73-7.61-2.69-9.12-.26.09-1.37.5-1.99,1.69-.8,1.53-.09,3.04,0,3.21-1.62-.91-4.66-2.89-7.12-6.55-2.68-3.99-3.28-7.89-3.44-9.76-.2.46-.61,1.2-1.41,1.76,0,0-1.38.97-3.65.63-4.19-.62-7.56-8.42-8.13-9.76-3.02-7.21-2.99-14.01-2.93-18.36.03-2.12.17-3.87.28-5.01-.4,1.36-1.13,3.26-2.52,5.23-1.93,2.75-4.21,4.34-5.61,5.16.21-1.17.46-2.94.5-5.1.02-1.33,0-5.04-2.14-12.98-.28-1.05-.51-1.84-.71-2.49-.52-1.7-.9-2.91-.99-3.17-.97-3.05-.99-7.05-.99-8.23,0-2.32.21-5.54,1.18-9.28,0-.03-.13,1.54-.85,3.29-1.07,2.61-2.58,3.38-3.83,5.21-.91,1.33-1.85,3.48-1.75,6.97Z"/>
    </g>
    <g>
      <path class="cls-8" d="M161.3,107.15c4.38-8.55,3.61-14.89,3.02-17.64-.6-2.82-1.94-5.34-4.62-10.37-3.16-5.93-6.22-10.1-8.38-13.01-2.59-3.49-4.17-5.6-6.81-8.18-.83-.81-3.45-3.3-7.64-6.12-7.62-5.12-9.03-3.67-13.94-7.49-3.81-2.96-2.75-3.74-9.39-10.58-3.42-3.52-5.59-5.76-9.07-8.06-4.18-2.77-7.98-5.29-13.29-5.23-6.2.07-10.6,3.61-11.91,4.66-.77.62-2.71,2.27-6.07,7.62-1.79,2.84-4.64,7.44-7.03,14.11-3.52,9.81-4.18,18.93-4.08,25.43-1.79,5.49-3.96,14.09-3.8,24.64.39,25.54,14.15,46.16,16.07,48.95,9.69,14.15,20.69,21.56,18.27,31.43-.73,2.97-2.42,5.14-3.7,6.47.96-.07,3.79-.4,6.14-2.65,1.13-1.09,1.77-2.25,2.13-3.07.12.18.53.86.41,1.8-.13,1-.79,1.58-.94,1.7,1.16-.34,2.47-.86,3.8-1.65,5.09-3.05,7.04-8.12,7.7-10.16.25.95.48,2.13.57,3.5.11,1.77-.06,3.29-.28,4.44,1.13-.73,2.7-1.95,4.06-3.87,2.62-3.71,2.73-7.61,2.69-9.12.26.09,1.37.5,1.99,1.69.8,1.53.09,3.04,0,3.21,1.62-.91,4.66-2.89,7.12-6.55,2.68-3.99,3.28-7.89,3.44-9.76.2.46.62,1.2,1.41,1.76,0,0,1.38.97,3.65.63,4.19-.62,7.56-8.42,8.13-9.76,3.02-7.21,2.99-14.01,2.93-18.36-.03-2.12-.17-3.87-.28-5.01.4,1.36,1.13,3.26,2.52,5.23,1.93,2.75,4.21,4.34,5.61,5.16-.21-1.17-.46-2.94-.5-5.1-.02-1.33,0-5.04,2.14-12.98.28-1.05.51-1.84.71-2.49.52-1.7.9-2.91.99-3.17.97-3.05.99-7.05.99-8.23,0-2.32-.21-5.54-1.18-9.28,0-.03.13,1.53.85,3.29,1.15,2.82,2.78,3.51,4.1,5.63.78,1.26,1.62,3.31,1.48,6.54Z"/>
      <path id="Inner_Stroke-2" data-name="Inner Stroke" class="cls-5" d="M83.99,22.15c6.36-3.49,13.61-1.63,19.25,2.36,5.84,3.56,10.55,8.6,15.01,13.73,2.33,3.29,5.02,6.18,8.7,7.95,3.68,1.65,7.65,3.03,10.98,5.39,4.63,2.99,8.62,6.91,12.13,11.06,3.58,4.08,6.92,8.49,9.65,13.25,2.64,4.86,5.48,9.81,5.93,15.46.72,6.92-1.75,13.57-5,19.48,0,0-.43-3.56-.43-3.56-.65-5.42-2.79-10.66-6.16-14.97l1.81-.82c.91,5.3,1.29,10.63.58,15.98-.22,1.58-1.03,3.62-1.47,5.15-1.89,6.53-3.77,13.37-2.48,20.17,0,0,.29,1.73.29,1.73l-1.49-.89c-4.05-2.4-7.11-6.39-8.37-10.9l1.32-.26.24,5.13c.22,8.51-1.48,17.37-6.56,24.38-1.5,2.03-3.64,4.18-6.37,3.89-1.65-.06-3.24-.95-3.84-2.53,0,0-.02-.05-.02-.05h.09s0,.01,0,.01l-.04.34-.04-.33-.22-1.72.31,1.71h-.09s0-.03,0-.03v-.17s.09.15.09.15c1.43,3.25,6.11,2.84,8.12.33,7.32-8.38,7.98-20.39,7-30.99,0,0-.39-5.97-.39-5.97l1.71,5.71c1.25,4.16,4.14,7.76,7.89,9.89l-1.2.84c-.33-1.76-.52-3.54-.57-5.34,0-6.24,1.78-12.29,3.58-18.19.84-2.45.91-4.86.89-7.46.07-4.76-.79-9.69-1.74-14.33,0,0,2.6,3.28,2.6,3.28,3.63,4.57,5.96,10.17,6.69,15.96l-2.04-.35c3.49-7.02,4.59-15.37,1.19-22.59-3.25-7.36-7.62-14.1-12.87-20.23-3.41-4.16-7.16-7.97-11.59-10.94-3.31-2.43-7.04-3.78-10.72-5.54-3.76-1.91-6.6-5.02-8.91-8.47-5.07-6.22-10.82-12.14-17.96-15.98-4.7-2.79-10.49-2.91-15.48-.77h0Z"/>
      <path id="outer-2" data-name="outer" class="cls-6" d="M58.3,96.94c-.16-10.55,2.01-19.16,3.8-24.64-.1-6.5.56-15.63,4.08-25.43,2.39-6.67,5.24-11.27,7.03-14.11,3.36-5.35,5.31-7.01,6.07-7.62.71-.57,2.36-1.89,4.71-2.98,5.18,4.69,11.2,11.25,16.45,20.06,8.53,14.3,10.7,27.25,11.18,30.43,1.05,6.92,1.09,13.7,1.17,27.28.06,10.66-.37,15.14,2.18,21.56,1.59,3.99,3.1,5.64,5.22,11.91,2.18,6.47,1.6,7.39,3.65,10.71,1.36,2.2,3.12,4.19,3.65,7.53.08.49.14,1.04.27,1.71-.17,1.88-.77,5.76-3.44,9.73-2.46,3.67-5.49,5.64-7.12,6.55.08-.16.79-1.67,0-3.21-.62-1.19-1.73-1.6-1.99-1.69.04,1.51-.07,5.41-2.69,9.12-1.36,1.93-2.93,3.15-4.06,3.87.22-1.15.39-2.67.28-4.44-.08-1.36-.31-2.54-.57-3.5-.66,2.04-2.61,7.1-7.7,10.16-1.33.8-2.63,1.31-3.8,1.65.15-.12.81-.7.94-1.7.12-.93-.29-1.62-.41-1.8-.36.82-.99,1.99-2.13,3.07-2.35,2.25-5.18,2.58-6.14,2.65,1.28-1.34,2.97-3.5,3.7-6.47,2.42-9.88-8.58-17.28-18.27-31.43-1.91-2.79-15.68-23.41-16.07-48.95Z"/>
      <path id="Center-2" data-name="Center" class="cls-7" d="M89.55,142.69c5.03,5.8,9.77,8.07,13.23,9.08,3.24.94,6.59,1.11,9.18,3.99,1.66,1.85,2.17,3.88,2.7,6.14.19.82.39,1.62.54,2.81h0c.27.08,1.38.5,1.99,1.69.8,1.54.09,3.04.01,3.21,1.62-.91,4.66-2.89,7.12-6.56,2.66-3.98,3.27-7.84,3.44-9.73-.05-.4-.14-.99-.27-1.71-1.56-8.86-5.29-14.51-7.31-18.23-3.9-7.2-4.93-13.69-6.1-21.01-1.03-6.48-.32-7.34-1.06-21.42-.51-9.63-.76-14.44-1.41-18.32-.96-5.77-3.52-17.64-11.18-30.43-2.48-4.14-5.11-7.78-7.76-10.96,1.79,3.96,3.53,9.13,4.18,15.31.46,4.42.25,8.33-.16,11.5-.58-.8-1.15-1.62-1.74-2.44-3.79,6.83-8.55,17.91-8.31,31.75.05,3.09.35,5.96.79,8.61-.15-.31-.59-1.12-1.55-1.69-.99-.56-1.93-.52-2.26-.5-.55,3.23-1.03,8.85,1,15.22.43,1.34,1.7,5.02,4.6,9.06,2.16,2.99,4.42,5.11,6.17,6.52-.83-.35-2.26-.83-4.08-.84-1.77-.01-3.15.4-3.98.74.92.12,2.22.43,3.43,1.34.95.71,1.35,1.43,2.26,2.64.7.91,1.74,2.2,3.21,3.65-.6.05-1.54.11-2.66,0-1.08-.12-2.8-.43-6.68-2.4-1.42-.72-3.28-1.75-5.42-3.16,4.83,5.09,9.66,10.17,14.5,15.25-.58.32-1.34.66-2.28.88-1.77.43-3.28.2-4.15,0Z"/>
      <path class="cls-1" d="M161.3,107.15c4.19-8.34,3.51-14.89,3.02-17.64-.66-3.71-2.06-6.48-3.92-10.15-2.29-4.51-4.54-7.47-8.57-12.77-3.04-3.99-4.62-6.05-7.31-8.64-.96-.92-3.62-3.41-7.64-6.12-7.54-5.08-9.01-3.65-13.94-7.49-3.81-2.96-2.75-3.74-9.39-10.58-3.42-3.52-5.59-5.76-9.07-8.06-4.18-2.77-7.98-5.29-13.29-5.23-6.2.07-10.6,3.61-11.91,4.66-.77.62-2.71,2.27-6.07,7.62-1.79,2.84-4.64,7.44-7.03,14.11-3.52,9.81-4.18,18.93-4.08,25.43-1.79,5.49-3.96,14.09-3.8,24.64.39,25.54,14.15,46.16,16.07,48.95,9.69,14.15,20.69,21.56,18.27,31.43-.73,2.97-2.42,5.14-3.7,6.47.96-.07,3.79-.4,6.14-2.65,1.13-1.09,1.77-2.25,2.13-3.07.12.18.53.86.41,1.8-.13,1-.79,1.58-.94,1.7,1.16-.34,2.47-.86,3.8-1.65,5.09-3.05,7.04-8.12,7.7-10.16.25.95.48,2.13.57,3.5.11,1.77-.06,3.29-.28,4.44,1.13-.73,2.7-1.95,4.06-3.87,2.62-3.71,2.73-7.61,2.69-9.12.26.09,1.37.5,1.99,1.69.8,1.53.09,3.04,0,3.21,1.62-.91,4.66-2.89,7.12-6.55,2.68-3.99,3.28-7.89,3.44-9.76.2.46.61,1.2,1.41,1.76,0,0,1.38.97,3.65.63,4.19-.62,7.56-8.42,8.13-9.76,3.02-7.21,2.99-14.01,2.93-18.36-.03-2.12-.17-3.87-.28-5.01.4,1.36,1.13,3.26,2.52,5.23,1.93,2.75,4.21,4.34,5.61,5.16-.21-1.17-.46-2.94-.5-5.1-.02-1.33,0-5.04,2.14-12.98.28-1.05.51-1.84.71-2.49.52-1.7.9-2.91.99-3.17.97-3.05.99-7.05.99-8.23,0-2.32-.21-5.54-1.18-9.28,0-.03.13,1.54.85,3.29,1.07,2.61,2.58,3.38,3.83,5.21.91,1.33,1.85,3.48,1.75,6.97Z"/>
    </g>
  </g>
</svg>