<?xml version="1.0" encoding="UTF-8"?>
<svg id="Layer_1" data-name="Layer 1" xmlns="http://www.w3.org/2000/svg" viewBox="0 0 474.35 139.76">
  <defs>
    <style>
      .cls-1 {
        fill: #010101;
      }

      .cls-2 {
        fill: #231f20;
      }

      .cls-3 {
        fill: #fee3c9;
      }
    </style>
  </defs>
  <g>
    <g>
      <path class="cls-3" d="M20.57,59.41c-1.37,0-2.39-.31-3.07-.94-.68-.63-1.02-1.35-1.02-2.17s.34-1.53,1.02-2.13c.68-.6,1.71-.9,3.07-.9-1.86,0-3.1-.3-3.73-.9-.63-.6-.63-1.2,0-1.8.63-.6,1.87-.9,3.73-.9-1.37,0-2.38-.31-3.03-.94s-.98-1.35-.98-2.17.33-1.54.98-2.17c.66-.63,1.67-.94,3.03-.94-1.58,0-2.77-.48-3.56-1.43-.79-.96-1.19-2.06-1.19-3.32s.4-2.36,1.19-3.32c.79-.95,1.98-1.43,3.56-1.43-1.42,0-2.49-.5-3.2-1.52-.71-1.01-1.07-2.18-1.07-3.52s.35-2.51,1.07-3.52c.71-1.01,1.77-1.52,3.2-1.52-1.31-.05-2.28-.48-2.91-1.27-.63-.79-.94-1.71-.94-2.74s.33-1.95.98-2.74c.66-.79,1.64-1.19,2.95-1.19,0-1.64.38-2.85,1.15-3.65.76-.79,1.64-1.19,2.62-1.19s1.86.4,2.62,1.19c.76.79,1.15,2.01,1.15,3.65,0-1.53.37-2.68,1.11-3.44.74-.76,1.57-1.15,2.5-1.15s1.76.38,2.5,1.15c.74.77,1.11,1.91,1.11,3.44,1.69-.27,2.87-.1,3.52.53.66.63.78,1.35.37,2.17s-1.46,1.37-3.15,1.64c1.86,0,3.18.51,3.97,1.52.79,1.01,1.05,2.1.78,3.28-.27,1.17-1.07,2.03-2.38,2.58.98.16,1.79.64,2.42,1.43.63.79,1,1.65,1.11,2.58,1.09-.66,2.36-.93,3.81-.82,1.45.11,2.61.63,3.48,1.56.05-.93.44-1.53,1.15-1.8-.55-.98-.51-2.02.12-3.11.63-1.09,1.87-1.64,3.73-1.64-1.64,0-2.86-.49-3.65-1.47-.79-.98-1.19-2.13-1.19-3.44s.4-2.46,1.19-3.44c.79-.98,2.01-1.47,3.65-1.47,0-1.37.38-2.4,1.15-3.11.76-.71,1.64-1.08,2.62-1.11.98-.03,1.87.32,2.66,1.03.79.71,1.19,1.75,1.19,3.11,0-1.58.3-2.79.9-3.61.6-.82,1.28-1.23,2.05-1.23s1.45.41,2.05,1.23c.6.82.9,2.02.9,3.61.98-.22,1.83.01,2.54.7.71.68,1.2,1.57,1.47,2.66.27,1.09.26,2.12-.04,3.07-.3.96-.94,1.57-1.93,1.84,1.58,0,2.76.53,3.52,1.6.76,1.06,1.15,2.32,1.15,3.77s-.38,2.7-1.15,3.77c-.77,1.07-1.94,1.6-3.52,1.6,1.64,0,2.85.49,3.65,1.47.79.98,1.19,2.13,1.19,3.44s-.4,2.46-1.19,3.44c-.79.98-2.01,1.47-3.65,1.47,1.64,0,2.85.52,3.65,1.56.79,1.04,1.19,2.25,1.19,3.65s-.4,2.62-1.19,3.69c-.79,1.07-2.01,1.6-3.65,1.6,1.75,0,2.91.26,3.48.78.57.52.57,1.05,0,1.6-.57.55-1.73.82-3.48.82,1.26,0,2.2.36,2.83,1.06.63.71.94,1.52.94,2.42s-.32,1.69-.94,2.38c-.63.68-1.57,1.02-2.83,1.02.49,1.09.52,2.06.08,2.91-.44.85-1.09,1.46-1.97,1.84-.87.38-1.76.46-2.66.25-.9-.22-1.6-.87-2.09-1.97.05,1.42-.37,2.5-1.27,3.24-.9.74-1.94,1.12-3.11,1.15-1.18.03-2.21-.3-3.11-.98-.9-.68-1.38-1.73-1.43-3.15-1.09,0-1.94-.49-2.54-1.47-.6-.98-.97-2.14-1.11-3.48-.14-1.34-.01-2.62.37-3.85.38-1.23,1.04-2.09,1.97-2.58-1.69.27-3.02-.18-3.97-1.35-.96-1.17-1.32-2.44-1.11-3.81-2.02.66-3.99.63-5.9-.08.11.66-.04,1.23-.45,1.72-.41.49-1,.79-1.76.9.98.71,1.17,1.54.57,2.5-.6.96-2.02,1.43-4.26,1.43,2.13,0,3.54.3,4.22.9.68.6.68,1.2,0,1.8-.68.6-2.09.9-4.22.9,1.31,0,2.31.3,2.99.9.68.6,1.02,1.31,1.02,2.13s-.34,1.54-1.02,2.17c-.68.63-1.68.94-2.99.94.05,2.08-.16,3.45-.66,4.14-.49.68-1,.68-1.52,0-.52-.68-.81-2.03-.86-4.06,0,1.31-.3,2.28-.9,2.91-.6.63-1.28.94-2.05.94s-1.45-.32-2.05-.94c-.6-.63-.9-1.6-.9-2.91,0,2.13-.3,3.55-.9,4.26-.6.71-1.2.71-1.8,0-.6-.71-.9-2.13-.9-4.26,0,1.42-.16,2.45-.49,3.07-.33.63-.7.67-1.11.12-.41-.55-.77-1.79-1.07-3.73-.3-1.94-.42-4.74-.37-8.4Z"/>
      <path class="cls-1" d="M25.4,73.66h0c-.46,0-.89-.24-1.3-.71-.25-.29-.45-.68-.61-1.16-.24.4-.54.62-.88.65-.38.03-.72-.17-1.03-.58-.47-.62-.85-1.92-1.16-3.96-.29-1.86-.42-4.54-.38-7.98-1.24-.08-2.22-.43-2.9-1.06-.79-.72-1.19-1.58-1.19-2.55s.4-1.82,1.2-2.52c.15-.14.32-.26.51-.37-.49-.17-.88-.39-1.18-.67-.42-.4-.63-.83-.63-1.27,0-.45.21-.88.63-1.28.3-.29.71-.52,1.22-.69-.19-.12-.37-.26-.53-.41-.76-.73-1.14-1.58-1.14-2.55s.38-1.82,1.14-2.55c.24-.23.51-.42.83-.58-.55-.27-1.01-.63-1.4-1.1-.87-1.05-1.31-2.27-1.31-3.65s.44-2.6,1.31-3.65c.42-.51.95-.9,1.57-1.17-.48-.28-.89-.66-1.23-1.15-.77-1.09-1.16-2.38-1.16-3.82s.39-2.73,1.16-3.82c.38-.54.85-.96,1.41-1.24-.43-.23-.8-.54-1.1-.92-.7-.88-1.05-1.91-1.05-3.07s.37-2.19,1.1-3.08c.67-.81,1.62-1.26,2.84-1.36.08-1.53.51-2.71,1.28-3.51.86-.89,1.87-1.35,3-1.35s2.13.45,2.99,1.35c.33.34.6.75.8,1.23.19-.39.42-.73.7-1.02.84-.87,1.8-1.31,2.87-1.31s2.04.44,2.87,1.31c.73.76,1.14,1.83,1.23,3.21,1.57-.17,2.68.08,3.38.75.82.79.99,1.75.47,2.78-.25.5-.67.91-1.26,1.23.85.28,1.53.74,2.03,1.38.89,1.14,1.18,2.39.88,3.72-.22.96-.75,1.75-1.58,2.34.58.28,1.09.7,1.52,1.24.52.66.88,1.37,1.08,2.12,1.03-.46,2.19-.65,3.47-.55,1.22.09,2.26.46,3.12,1.09.19-.5.48-.83.8-1.04-.39-1.01-.27-2.06.35-3.15.35-.62.87-1.08,1.55-1.4-.56-.27-1.03-.65-1.42-1.13-.86-1.07-1.3-2.34-1.3-3.77s.44-2.69,1.3-3.77c.8-1,2-1.56,3.55-1.65.09-1.27.52-2.27,1.29-2.99.85-.79,1.85-1.21,2.96-1.25,1.08-.03,2.13.36,3.02,1.16.27.25.51.52.7.83.16-.48.37-.89.63-1.25.7-.96,1.53-1.44,2.47-1.44s1.76.48,2.47,1.44c.58.8.92,1.91.99,3.32.9-.05,1.71.26,2.4.92.78.75,1.32,1.73,1.62,2.91.29,1.18.28,2.31-.05,3.35-.17.55-.45,1.01-.81,1.37.98.27,1.76.81,2.34,1.61.83,1.15,1.25,2.52,1.25,4.07s-.42,2.92-1.24,4.07c-.39.54-.87.96-1.44,1.26.61.28,1.13.67,1.54,1.19.86,1.07,1.3,2.34,1.3,3.77s-.44,2.69-1.3,3.77c-.4.5-.9.89-1.49,1.16.59.29,1.09.7,1.5,1.23.86,1.13,1.29,2.46,1.29,3.96s-.43,2.85-1.29,4c-.34.46-.76.84-1.24,1.12.42.14.76.33,1.01.56.39.36.6.75.6,1.16,0,.42-.19.82-.59,1.2-.29.28-.69.49-1.2.65.21.15.4.32.57.51.71.81,1.07,1.74,1.07,2.76s-.36,1.95-1.08,2.73c-.59.65-1.43,1.03-2.48,1.15.29.97.23,1.87-.19,2.67-.49.95-1.24,1.65-2.22,2.08-.98.43-1.98.52-2.99.27-.61-.15-1.14-.46-1.59-.94-.21.86-.65,1.57-1.32,2.11-.99.81-2.14,1.23-3.43,1.26-1.3.02-2.45-.34-3.44-1.09-.92-.7-1.46-1.73-1.61-3.08-1.05-.13-1.89-.7-2.5-1.69-.64-1.04-1.04-2.29-1.18-3.7-.14-1.4-.01-2.77.39-4.06.23-.73.55-1.36.97-1.86-1.16-.13-2.13-.66-2.88-1.59-.86-1.06-1.29-2.21-1.28-3.43-1.62.4-3.23.38-4.79-.07-.06.49-.25.93-.59,1.33-.3.36-.69.64-1.14.83.56.75.56,1.61,0,2.51-.28.45-.69.8-1.24,1.07.46.16.82.36,1.1.6.46.4.69.84.69,1.29,0,.45-.23.89-.69,1.29-.37.33-.9.57-1.59.75.13.09.25.18.36.28.8.7,1.2,1.55,1.2,2.52s-.4,1.83-1.19,2.55c-.68.63-1.63.98-2.82,1.06,0,1.93-.24,3.22-.76,3.94-.34.48-.73.72-1.16.73,0,0,0,0-.01,0-.42,0-.82-.24-1.18-.72-.27-.36-.49-.86-.65-1.51-.1.15-.21.28-.33.41-1.4,1.46-3.45,1.46-4.85,0-.1-.1-.2-.22-.28-.34-.17.72-.42,1.27-.75,1.67-.4.48-.84.72-1.3.72ZM24.12,68.34c0,2.48.42,3.51.78,3.93.19.22.37.35.5.35h0c.14,0,.32-.12.51-.35.35-.42.78-1.44.78-3.93h1.04c0,1.17.25,2.03.76,2.55,1.01,1.05,2.34,1.05,3.35,0,.5-.52.76-1.38.76-2.55h1.04c.06,2.35.45,3.33.75,3.74.18.24.31.31.36.31-.01,0,.16-.06.33-.3.29-.4.62-1.39.56-3.82v-.53s.52,0,.52,0c1.17,0,2.06-.27,2.64-.81.58-.53.86-1.11.86-1.79s-.28-1.24-.85-1.74c-.58-.51-1.47-.77-2.65-.77v-1.04c2.48,0,3.48-.42,3.88-.77.15-.13.34-.33.34-.51s-.18-.38-.34-.51c-.4-.35-1.4-.77-3.88-.77v-1.04c2.04,0,3.32-.4,3.82-1.19.45-.72.32-1.26-.44-1.8l-1.04-.75,1.27-.18c.64-.09,1.11-.33,1.44-.72.31-.37.42-.8.34-1.3l-.15-.88.84.31c1.79.67,3.66.69,5.56.08l.81-.26-.13.84c-.2,1.22.13,2.34,1,3.4.84,1.03,1.98,1.41,3.49,1.17l3.11-.5-2.78,1.47c-.81.43-1.37,1.17-1.71,2.28-.36,1.16-.48,2.38-.35,3.65.13,1.26.47,2.35,1.03,3.27.5.83,1.19,1.23,2.1,1.23h.5l.02.5c.05,1.27.45,2.17,1.23,2.76.81.62,1.73.9,2.79.88,1.07-.03,1.98-.36,2.8-1.03.77-.63,1.13-1.56,1.08-2.82l-.1-2.66,1.09,2.43c.43.95,1,1.5,1.74,1.68.8.19,1.56.12,2.33-.22.77-.34,1.33-.86,1.71-1.61.36-.71.33-1.51-.09-2.46l-.33-.73h.8c1.12,0,1.92-.28,2.45-.86.54-.59.81-1.25.81-2.03s-.27-1.46-.81-2.07c-.53-.6-1.33-.89-2.44-.89v-1.04c2,0,2.8-.37,3.12-.68.17-.17.27-.32.27-.44,0-.11-.09-.25-.26-.4-.33-.29-1.13-.64-3.13-.64v-1.04c1.48,0,2.54-.45,3.23-1.39.72-.97,1.09-2.1,1.09-3.38s-.36-2.39-1.08-3.33c-.7-.91-1.75-1.35-3.23-1.35v-1.04c1.49,0,2.55-.42,3.24-1.28.72-.9,1.07-1.92,1.07-3.12s-.35-2.22-1.07-3.11c-.7-.86-1.76-1.28-3.24-1.28v-1.04c1.42,0,2.43-.45,3.1-1.38.7-.97,1.05-2.14,1.05-3.47s-.35-2.5-1.05-3.47c-.67-.93-1.68-1.38-3.1-1.38h-3.82l3.68-1.02c.81-.22,1.32-.71,1.57-1.5.27-.86.28-1.8.03-2.79-.25-.99-.7-1.8-1.33-2.41-.58-.56-1.26-.74-2.07-.56l-.63.14v-.65c0-1.46-.27-2.57-.8-3.3-1.01-1.37-2.26-1.37-3.26,0-.53.72-.8,1.83-.8,3.3h-1.04c0-1.22-.33-2.11-1.02-2.73-.7-.62-1.46-.91-2.3-.89-.86.02-1.61.34-2.28.97-.66.61-.98,1.51-.98,2.73v.52h-.52c-1.49,0-2.55.42-3.24,1.28-.72.9-1.07,1.91-1.07,3.12s.35,2.22,1.07,3.12c.69.86,1.75,1.28,3.24,1.28v1.04c-1.67,0-2.75.45-3.28,1.38-.54.93-.58,1.78-.12,2.6l.29.52-.56.21c-.32.12-.76.4-.82,1.35l-.07,1.2-.83-.88c-.79-.84-1.82-1.3-3.14-1.4-1.33-.1-2.51.15-3.5.75l-.69.41-.09-.8c-.1-.84-.43-1.6-1-2.32-.55-.69-1.24-1.1-2.09-1.24l-1.78-.3,1.67-.69c1.16-.48,1.83-1.21,2.07-2.22.24-1.02.01-1.95-.68-2.84-.69-.87-1.89-1.32-3.57-1.32l-.08-1.03c1.51-.24,2.44-.7,2.77-1.36.31-.61.22-1.1-.26-1.56-.53-.51-1.57-.64-3.08-.4l-.6.1v-.61c0-1.38-.32-2.42-.96-3.08-1.28-1.33-2.97-1.33-4.25,0-.64.66-.96,1.7-.96,3.08h-1.04c0-1.49-.34-2.6-1-3.29-.67-.69-1.41-1.03-2.25-1.03s-1.58.34-2.25,1.03c-.66.69-1,1.79-1,3.29v.52h-.52c-1.16,0-1.99.33-2.55,1-.58.7-.86,1.49-.86,2.41s.27,1.72.83,2.42c.53.68,1.36,1.03,2.52,1.07l-.02,1.04c-1.25,0-2.16.42-2.77,1.3-.65.93-.97,1.99-.97,3.23s.33,2.31.97,3.22c.61.87,1.52,1.3,2.77,1.3v1.04c-1.43,0-2.47.41-3.17,1.25-.72.87-1.07,1.85-1.07,2.99s.35,2.12,1.07,2.99c.69.84,1.73,1.25,3.17,1.25v1.04c-1.22,0-2.12.27-2.67.8-.55.53-.82,1.12-.82,1.8s.27,1.27.82,1.8c.55.53,1.45.8,2.67.8v1.04c-2.13,0-3.01.41-3.37.76-.14.14-.31.34-.31.53s.17.39.31.53c.36.35,1.24.76,3.37.76v1.04c-1.23,0-2.15.26-2.73.77-.57.5-.85,1.07-.85,1.74s.28,1.26.86,1.79c.58.53,1.5.81,2.72.81h.53v.53c-.06,3.62.06,6.42.35,8.31.35,2.3.72,3.17.97,3.5.05.06.09.11.12.13.03-.04.07-.09.12-.19.29-.55.43-1.5.43-2.83h1.04Z"/>
    </g>
    <g>
      <path class="cls-3" d="M90.38,68.43c-.6.71-1.34.98-2.21.82-.87-.16-1.68-.57-2.42-1.23-.74-.66-1.24-1.41-1.52-2.25-.27-.85-.11-1.6.49-2.25-.98.38-1.82.42-2.5.12-.68-.3-1.16-.76-1.43-1.39-.27-.63-.26-1.3.04-2.01.3-.71.94-1.26,1.93-1.64-1.15.11-2.04-.13-2.66-.74-.63-.6-.98-1.34-1.07-2.21-.08-.87.14-1.67.66-2.38.52-.71,1.35-1.12,2.5-1.23-1.09,0-1.91-.41-2.46-1.23-.55-.82-.82-1.77-.82-2.87s.27-2.05.82-2.87c.55-.82,1.36-1.23,2.46-1.23-1.26,0-2.09-.27-2.5-.82-.41-.54-.41-1.09,0-1.64.41-.54,1.24-.82,2.5-.82-1.37,0-2.28-.35-2.74-1.06-.46-.71-.46-1.42,0-2.13.46-.71,1.38-1.06,2.74-1.06-1.2-.27-2.02-.79-2.46-1.56-.44-.76-.56-1.54-.37-2.34.19-.79.66-1.42,1.39-1.88s1.71-.56,2.91-.29c0-.98.4-1.76,1.19-2.33.79-.57,1.77-.96,2.95-1.15,1.17-.19,2.34-.19,3.48,0,1.15.19,2.12.57,2.91,1.15.79.57,1.19,1.35,1.19,2.33,1.09-.66,2.05-.74,2.87-.25.82.49,1.28,1.22,1.39,2.17.11.96-.38,1.76-1.47,2.42.71,0,1.24.33,1.6.98.35.66.53,1.42.53,2.29s-.18,1.64-.53,2.29c-.36.66-.89.98-1.6.98.82,0,1.45.36,1.88,1.06.44.71.66,1.53.66,2.46s-.22,1.76-.66,2.5c-.44.74-1.07,1.11-1.88,1.11.82-.05,1.46.22,1.93.82.46.6.71,1.32.74,2.17.03.85-.15,1.57-.53,2.17.98-.11,2.09.08,3.32.57,1.23.49,2.2,1.12,2.91,1.89.22-.6.56-1.13,1.02-1.6.46-.46.97-.75,1.52-.86-.82-.44-1.11-1.09-.86-1.97.25-.87,1-1.31,2.25-1.31-.77,0-1.35-.49-1.76-1.47s-.61-2.12-.61-3.4.2-2.4.61-3.36c.41-.96,1-1.43,1.76-1.43-1.09,0-1.82-.3-2.17-.9-.36-.6-.36-1.2,0-1.8.35-.6,1.08-.9,2.17-.9-.82-.11-1.41-.52-1.76-1.23-.36-.71-.48-1.5-.37-2.38.11-.87.41-1.62.9-2.25.49-.63,1.17-.89,2.05-.78,0-1.2.31-2.1.94-2.7.63-.6,1.34-.9,2.13-.9s1.5.3,2.13.9c.63.6.94,1.5.94,2.7,0-1.26.35-2.09,1.07-2.5.71-.41,1.42-.41,2.13,0,.71.41,1.07,1.24,1.07,2.5.44-.82,1.01-1.28,1.72-1.39.71-.11,1.38.01,2.01.37.63.36,1.07.88,1.31,1.56.25.68.12,1.43-.37,2.25,1.09,0,1.91.27,2.46.82.55.55.82,1.19.82,1.93s-.27,1.39-.82,1.97c-.55.57-1.37.86-2.46.86,1.36,0,2.27.37,2.7,1.11.44.74.44,1.49,0,2.25-.44.76-1.34,1.15-2.7,1.15.87,0,1.53.48,1.97,1.43.44.96.66,2.06.66,3.32s-.22,2.36-.66,3.32c-.44.96-1.09,1.43-1.97,1.43,1.09,0,1.9.4,2.42,1.19.52.79.78,1.71.78,2.74s-.26,1.94-.78,2.7c-.52.77-1.32,1.15-2.42,1.15.66.16,1.07.7,1.23,1.6.16.9.12,1.91-.12,3.03-.25,1.12-.63,2.06-1.15,2.83-.52.77-1.11,1.06-1.76.9,0,1.42-.38,2.36-1.15,2.83-.77.46-1.53.46-2.29,0-.77-.46-1.15-1.41-1.15-2.83,0,1.37-.4,2.28-1.19,2.74-.79.46-1.6.48-2.42.04-.82-.44-1.23-1.36-1.23-2.79-.38,1.15-.87,1.88-1.47,2.21-.6.33-1.13.3-1.6-.08-.46-.38-.67-1.04-.61-1.97-.44.88-1.24,1.45-2.42,1.72-1.17.27-2.28.2-3.32-.2-1.04-.41-1.56-1.16-1.56-2.25.05.77-.33,1.41-1.15,1.93-.82.52-1.93.83-3.32.94-1.39.11-2.91-.03-4.55-.41-1.64-.38-3.22-1.12-4.75-2.21Z"/>
      <path class="cls-1" d="M122.25,72.45c-.48,0-.95-.14-1.41-.42-.38-.23-.68-.55-.91-.96-.23.37-.53.66-.9.88-.96.56-1.94.57-2.92.05-.58-.31-1-.81-1.24-1.49-.29.42-.61.72-.97.92-1,.54-1.74.23-2.18-.14-.32-.26-.54-.61-.67-1.05-.5.42-1.14.73-1.91.91-1.28.29-2.5.22-3.63-.23-.62-.25-1.1-.61-1.41-1.07-.2.24-.47.48-.82.7-.88.56-2.08.9-3.56,1.02-1.44.11-3.02-.03-4.71-.42-1.57-.36-3.1-1.05-4.57-2.04-.67.6-1.48.82-2.37.65-.96-.18-1.86-.64-2.67-1.35-.81-.72-1.37-1.55-1.67-2.48-.18-.56-.2-1.1-.06-1.6-.61.08-1.17,0-1.66-.21-.8-.35-1.38-.91-1.7-1.66-.33-.76-.32-1.57.04-2.42.16-.39.41-.73.74-1.04-.53-.15-.98-.4-1.36-.76-.72-.68-1.13-1.54-1.22-2.54-.09-1,.16-1.92.75-2.73.27-.37.61-.67,1.01-.9-.38-.24-.71-.56-.99-.97-.6-.9-.91-1.96-.91-3.16s.3-2.25.91-3.16c.22-.33.47-.6.76-.81-.33-.16-.59-.37-.78-.64-.55-.73-.55-1.53,0-2.26.15-.2.34-.37.56-.51-.34-.2-.62-.46-.83-.78-.58-.88-.58-1.81,0-2.7.29-.45.73-.78,1.29-1-.44-.29-.78-.66-1.02-1.08-.5-.88-.65-1.79-.42-2.71.22-.92.77-1.66,1.62-2.2.73-.46,1.64-.61,2.71-.46.14-.87.59-1.59,1.35-2.14.85-.62,1.92-1.03,3.17-1.24,1.23-.2,2.45-.2,3.65,0,1.22.21,2.28.62,3.13,1.24.71.51,1.15,1.17,1.32,1.95.99-.41,1.9-.37,2.7.11.96.58,1.51,1.44,1.64,2.56.1.85-.18,1.61-.84,2.25.37.21.67.53.9.96.4.73.6,1.59.6,2.54s-.2,1.81-.6,2.54c-.14.27-.32.49-.52.68.31.21.57.5.79.85.49.79.73,1.71.73,2.73s-.25,1.95-.73,2.76c-.18.3-.38.55-.62.75.23.16.44.35.62.59.53.69.81,1.52.85,2.47.02.6-.06,1.15-.22,1.65.83.04,1.73.25,2.68.63,1.01.4,1.86.9,2.55,1.49.22-.39.5-.76.83-1.09.27-.27.56-.49.86-.66-.43-.52-.55-1.19-.33-1.94.14-.49.46-1.05,1.16-1.38-.24-.26-.46-.61-.65-1.06-.43-1.04-.65-2.25-.65-3.6s.22-2.55.66-3.56c.18-.43.39-.75.62-1-.44-.19-.77-.48-1-.87-.45-.76-.45-1.57,0-2.33.22-.37.54-.66.96-.85-.23-.22-.42-.48-.57-.78-.4-.8-.54-1.7-.42-2.67.12-.96.46-1.81,1.01-2.51.49-.63,1.16-.97,1.96-1,.09-1.08.45-1.94,1.08-2.54,1.44-1.39,3.52-1.39,4.98,0,.25.24.46.52.63.84.2-.3.46-.53.76-.71.87-.5,1.78-.5,2.65,0,.58.34.97.88,1.17,1.64.37-.32.8-.52,1.27-.59.83-.13,1.61.02,2.34.43.74.42,1.26,1.04,1.54,1.83.22.62.2,1.27-.05,1.96.85.12,1.52.42,2.02.92.65.65.97,1.42.97,2.29s-.32,1.65-.96,2.32c-.17.18-.37.34-.58.47.38.22.68.51.9.87.53.9.53,1.85,0,2.78-.3.52-.75.89-1.37,1.13.24.25.46.57.65.98.47,1.02.7,2.21.7,3.53s-.24,2.51-.7,3.53c-.21.47-.47.82-.74,1.07.46.24.85.59,1.15,1.05.57.88.86,1.89.86,3.03s-.29,2.15-.87,3c-.39.57-.91.97-1.55,1.18.2.29.35.67.45,1.18.17.96.13,2.05-.13,3.23-.26,1.18-.67,2.19-1.22,3.01-.57.83-1.17,1.12-1.69,1.17-.1,1.31-.56,2.22-1.38,2.72-.46.28-.94.42-1.42.42ZM120.48,68.75c0,1.22.3,2.02.9,2.38.6.36,1.16.36,1.76,0,.59-.36.9-1.16.9-2.38v-.66l.64.16c.18.04.63.16,1.21-.69.48-.71.84-1.6,1.07-2.65.23-1.05.27-2,.12-2.83-.17-.92-.56-1.12-.84-1.19l-4.08-1.02h4.21c.92,0,1.57-.3,1.99-.92.46-.67.69-1.49.69-2.41s-.23-1.76-.69-2.46c-.42-.64-1.07-.95-1.98-.95v-1.04c.42,0,1.03-.12,1.49-1.13.4-.88.61-1.93.61-3.1s-.21-2.22-.61-3.1c-.46-1.01-1.08-1.13-1.49-1.13v-1.04c1.16,0,1.92-.3,2.25-.89.34-.6.35-1.15,0-1.73-.34-.56-1.1-.85-2.26-.85v-1.04c.94,0,1.64-.24,2.08-.7.46-.48.68-1.01.68-1.61s-.22-1.11-.67-1.56c-.44-.44-1.15-.67-2.09-.67h-.92l.47-.79c.41-.69.52-1.28.33-1.81-.2-.57-.56-.98-1.08-1.28-.53-.3-1.07-.4-1.67-.31-.54.08-.98.45-1.34,1.12l-.98,1.83v-2.07c0-1.05-.27-1.74-.81-2.05-.55-.32-1.06-.32-1.61,0-.54.31-.81.98-.81,2.05h-1.04c0-1.05-.26-1.83-.78-2.33-1.07-1.02-2.48-1.02-3.54,0-.52.5-.78,1.28-.78,2.33v.59l-.58-.07c-.69-.09-1.2.1-1.58.58-.43.55-.7,1.22-.79,2-.1.78,0,1.46.32,2.08.28.56.71.86,1.37.95l-.07,1.03c-.89,0-1.47.22-1.73.65-.26.44-.26.83,0,1.27.25.43.83.65,1.73.65v1.04c-.35,0-.86.12-1.29,1.12-.38.89-.57,1.95-.57,3.16s.19,2.29.57,3.2c.43,1.04.94,1.16,1.28,1.16v1.04c-1.34,0-1.64.53-1.75.93-.18.64,0,1.05.61,1.37l1.28.68-1.42.29c-.44.09-.86.33-1.25.72-.41.41-.71.88-.9,1.41l-.29.8-.58-.62c-.65-.7-1.57-1.29-2.72-1.76-1.14-.46-2.18-.64-3.07-.54l-1.07.12.58-.91c.33-.52.47-1.13.45-1.88-.02-.74-.23-1.35-.63-1.87-.33-.42-.75-.62-1.31-.62-.07,0-.14,0-.21,0l-.03-1.04c.07,0,.13,0,.2,0,.55-.04.96-.32,1.27-.85.39-.66.58-1.39.58-2.23s-.19-1.56-.58-2.19c-.34-.56-.8-.82-1.44-.82v-1.04c.52,0,.88-.23,1.14-.71.31-.58.47-1.27.47-2.05s-.16-1.47-.47-2.05c-.26-.49-.63-.71-1.14-.71h-1.87l1.61-.96c.91-.55,1.31-1.17,1.23-1.91-.09-.79-.46-1.38-1.14-1.79-.65-.39-1.41-.31-2.33.25l-.79.47v-.92c0-.81-.32-1.44-.97-1.92-.72-.52-1.63-.88-2.69-1.06-1.08-.18-2.2-.18-3.31,0-1.09.18-2.01.53-2.73,1.06-.66.47-.97,1.1-.97,1.92v.65l-.63-.14c-1.06-.24-1.91-.17-2.52.22-.62.39-1.01.91-1.17,1.57-.16.67-.06,1.31.31,1.96.36.63,1.07,1.07,2.12,1.31l4.52,1.02h-4.63c-1.17,0-1.95.28-2.31.83-.35.54-.35,1.02,0,1.56.36.55,1.14.83,2.31.83v1.04c-1.06,0-1.78.21-2.08.61-.27.36-.27.66,0,1.02.3.4,1.02.61,2.08.61v1.04c-.92,0-1.58.33-2.03,1-.49.73-.73,1.6-.73,2.58s.24,1.84.73,2.58c.45.67,1.11,1,2.03,1l.05,1.03c-1,.1-1.7.43-2.13,1.02-.45.61-.63,1.27-.56,2.02.07.75.37,1.37.91,1.89.52.5,1.25.69,2.26.6l3.73-.36-3.49,1.36c-.84.33-1.4.79-1.64,1.36-.25.58-.26,1.1-.04,1.6.22.51.6.88,1.17,1.13.55.24,1.26.2,2.1-.13l2.08-.81-1.51,1.64c-.48.52-.6,1.07-.38,1.74.25.76.69,1.43,1.37,2.03.67.6,1.38.96,2.17,1.11.69.13,1.24-.08,1.72-.64l.31-.36.39.28c1.47,1.05,3,1.77,4.57,2.13,1.58.37,3.06.5,4.39.4,1.3-.1,2.34-.39,3.08-.86.75-.47.9-.95.91-1.3,0-.06,0-.13,0-.19l1.04-.04c0,.06,0,.13,0,.2.05.79.44,1.3,1.22,1.61.93.37,1.94.43,3.01.18,1.03-.24,1.7-.71,2.07-1.45l1.13-2.26-.15,2.52c-.04.75.1,1.27.43,1.54.21.17.49.31,1.02.03.48-.26.89-.91,1.23-1.92l1.01-3.03v3.19c0,1.22.31,1.98.95,2.33.67.35,1.27.34,1.91-.03.63-.37.93-1.12.93-2.3h1.04Z"/>
    </g>
    <g>
      <path class="cls-3" d="M148.88,68.92c-.33,1.48-.82,2.38-1.47,2.7s-1.19.19-1.6-.41c-.41-.6-.45-1.61-.12-3.03-.38.82-1.01,1.27-1.88,1.35-.87.08-1.73-.08-2.58-.49-.85-.41-1.5-.98-1.97-1.72-.46-.74-.51-1.54-.12-2.42-.87-.27-1.43-.75-1.68-1.43-.25-.68-.25-1.37,0-2.05.25-.68.68-1.21,1.31-1.6.63-.38,1.38-.41,2.25-.08,0-.82.33-1.43.98-1.84.66-.41,1.41-.61,2.25-.61s1.6.2,2.25.61c.66.41.98,1.02.98,1.84.16-.82.74-1.39,1.72-1.72.98-.33,2.13-.44,3.44-.33,1.31.11,2.49.41,3.52.9.05-.38.22-.68.49-.9-.27-.49-.27-1.09,0-1.8-.6.49-1.48.74-2.62.74s-2.31-.19-3.48-.57c-1.18-.38-2.12-.9-2.83-1.56-.71-.66-.98-1.37-.82-2.13-.38,1.09-.93,1.72-1.64,1.89-.71.16-1.28-.04-1.72-.61-.44-.57-.46-1.43-.08-2.58-.6.44-1.3.42-2.09-.04-.79-.46-1.58-1.16-2.38-2.09-.79-.93-1.46-1.94-2.01-3.03-.55-1.09-.87-2.1-.98-3.03-.11-.93.14-1.58.74-1.97-.6-.33-.86-.93-.78-1.8.08-.87.38-1.77.9-2.7.52-.93,1.12-1.67,1.8-2.21.68-.54,1.32-.66,1.93-.33-.55-.93-.59-1.75-.12-2.46.46-.71,1.11-1.11,1.93-1.19s1.53.34,2.13,1.27c-.16-.87.09-1.64.78-2.29.68-.66,1.57-1.17,2.66-1.56,1.09-.38,2.22-.59,3.4-.61,1.17-.03,2.2.15,3.07.53.87.38,1.39,1.01,1.56,1.89.11-1.04.53-1.76,1.27-2.17.74-.41,1.53-.56,2.38-.45.85.11,1.57.46,2.17,1.06.6.6.82,1.39.66,2.38.33-1.04.81-1.65,1.43-1.84.63-.19,1.16-.04,1.6.45.44.49.49,1.26.16,2.29.44-.82,1.12-1.23,2.05-1.23s1.84.25,2.74.74c.9.49,1.58,1.15,2.05,1.97.46.82.45,1.64-.04,2.46,1.26.38,1.98.98,2.17,1.8.19.82-.03,1.52-.66,2.09-.63.57-1.54.67-2.74.29,0,.98-.38,1.71-1.15,2.17-.77.46-1.64.7-2.62.7s-1.84-.23-2.58-.7c-.74-.46-1.11-1.19-1.11-2.17-.16.66-.64,1.09-1.43,1.31-.79.22-1.71.26-2.74.12-1.04-.14-2.02-.4-2.95-.78.05.71-.19,1.37-.74,1.97,1.2.27,2.32.77,3.36,1.47,1.04.71,1.42,1.42,1.15,2.13.16-.76.63-1.28,1.39-1.56.76-.27,1.58-.31,2.46-.12.87.19,1.61.56,2.21,1.11.6.55.82,1.2.66,1.97.38-.44,1-.53,1.84-.29.85.25,1.75.71,2.7,1.39.96.68,1.84,1.45,2.66,2.3s1.42,1.67,1.8,2.46c.38.79.38,1.41,0,1.84,1.15-.05,1.99.19,2.54.74.54.55.83,1.17.86,1.88.03.71-.22,1.34-.74,1.89-.52.55-1.32.85-2.42.9.66.49.91,1.17.78,2.05-.14.87-.52,1.72-1.15,2.54-.63.82-1.34,1.41-2.13,1.76-.79.36-1.54.29-2.25-.2.44.98.46,1.83.08,2.54-.38.71-.96,1.23-1.72,1.56-.77.33-1.54.36-2.34.08-.79-.27-1.38-.87-1.76-1.8.11.98-.37,1.78-1.43,2.38-1.07.6-2.47.96-4.22,1.07-1.75.11-3.62-.08-5.61-.57-1.99-.49-3.92-1.31-5.78-2.46Z"/>
      <path class="cls-1" d="M159.32,72.5c-1.52,0-3.12-.21-4.79-.62-1.82-.45-3.61-1.17-5.32-2.16-.37,1.24-.88,2.02-1.57,2.37-.88.44-1.71.23-2.26-.58-.3-.44-.45-1.03-.43-1.78-.33.18-.69.28-1.1.32-.97.09-1.93-.09-2.86-.54-.93-.45-1.67-1.09-2.18-1.91-.47-.74-.58-1.54-.34-2.39-.75-.34-1.26-.87-1.51-1.56-.29-.8-.29-1.6,0-2.4.29-.79.8-1.42,1.53-1.87.61-.37,1.3-.47,2.08-.31.15-.68.54-1.23,1.16-1.61,1.47-.92,3.58-.92,5.06,0,.38.23.67.53.88.89.34-.35.81-.62,1.39-.82,1.05-.35,2.27-.47,3.65-.35,1.15.1,2.21.33,3.16.71.06-.11.12-.21.2-.31-.07-.22-.11-.46-.11-.71-.54.19-1.17.28-1.9.28-1.2,0-2.42-.2-3.64-.6-1.24-.4-2.26-.97-3.02-1.67-.32-.29-.57-.6-.74-.92-.35.42-.77.69-1.25.8-.91.21-1.69-.07-2.25-.81-.4-.52-.54-1.22-.41-2.07-.45.05-.99-.05-1.61-.42-.84-.49-1.68-1.23-2.51-2.2-.82-.96-1.52-2.02-2.08-3.14-.57-1.14-.92-2.22-1.03-3.2-.11-.96.12-1.59.46-2-.34-.38-.58-.97-.5-1.88.09-.94.41-1.92.97-2.91.55-.98,1.2-1.78,1.93-2.36.51-.41.98-.58,1.39-.62-.24-.9,0-1.59.3-2.05.55-.84,1.33-1.32,2.31-1.42.63-.06,1.21.1,1.72.5.15-.5.44-.96.88-1.38.73-.7,1.69-1.27,2.85-1.67,1.14-.4,2.33-.61,3.56-.64,1.26-.03,2.35.17,3.29.58.51.22.92.52,1.23.9.26-.5.64-.89,1.13-1.16.83-.46,1.74-.64,2.69-.51.96.12,1.79.53,2.47,1.21.29.29.51.62.65.99.27-.28.57-.48.92-.59.82-.25,1.56-.04,2.14.6.29.32.45.72.49,1.19.39-.2.84-.3,1.33-.3,1.01,0,2.02.27,2.99.8.98.54,1.74,1.26,2.25,2.17.45.79.52,1.62.23,2.42,1.1.45,1.76,1.11,1.96,1.98.23,1-.05,1.89-.81,2.59-.65.6-1.54.78-2.63.56-.15.85-.6,1.51-1.34,1.96-.84.51-1.81.77-2.89.77s-2.04-.26-2.86-.78c-.52-.33-.89-.76-1.11-1.29-.26.2-.59.37-1.02.49-.85.24-1.85.28-2.95.14-.83-.11-1.64-.3-2.41-.56-.06.32-.18.63-.35.93.98.3,1.92.76,2.79,1.35.54.37.89.73,1.12,1.07.26-.24.58-.42.95-.56.86-.3,1.78-.35,2.74-.14.96.21,1.78.62,2.45,1.23.46.42.75.92.84,1.46.41-.09.9-.06,1.45.1.9.26,1.86.75,2.86,1.47.98.7,1.9,1.5,2.74,2.36.85.88,1.49,1.75,1.9,2.59.31.65.38,1.16.32,1.56.9.08,1.62.37,2.12.88.64.64.98,1.39,1.01,2.23.03.85-.26,1.61-.88,2.26-.43.46-1.03.77-1.77.93.28.5.37,1.08.27,1.74-.15.96-.57,1.89-1.25,2.78-.68.88-1.46,1.53-2.33,1.92-.55.25-1.11.32-1.64.23.12.69.02,1.32-.28,1.88-.44.81-1.1,1.41-1.97,1.79-.89.38-1.8.41-2.71.1-.52-.18-.96-.47-1.33-.88-.24.49-.69.99-1.44,1.41-1.13.64-2.62,1.02-4.44,1.13-.32.02-.65.03-.98.03ZM148.54,68.09l.62.38c1.8,1.11,3.7,1.92,5.63,2.4,1.93.48,3.77.66,5.46.56,1.66-.11,3.01-.44,4-1,1.16-.66,1.23-1.38,1.17-1.87l-.41-3.67,1.4,3.42c.33.79.8,1.28,1.45,1.51.67.23,1.31.21,1.96-.07.66-.28,1.14-.72,1.47-1.33.3-.57.27-1.25-.1-2.08l-.75-1.69,1.52,1.05c.56.39,1.12.44,1.75.16.71-.32,1.36-.86,1.93-1.6.57-.75.92-1.52,1.05-2.31.11-.68-.08-1.18-.58-1.55l-1.15-.86,1.44-.07c.95-.05,1.64-.3,2.07-.74.42-.44.62-.94.59-1.51-.02-.58-.25-1.08-.71-1.54-.43-.43-1.17-.63-2.15-.59l-1.22.06.8-.92c.09-.1.35-.4-.08-1.28-.36-.74-.93-1.52-1.71-2.32-.79-.82-1.66-1.57-2.59-2.23-.91-.64-1.76-1.09-2.55-1.32-.95-.27-1.22.03-1.31.13l-1.32,1.51.42-1.96c.12-.58-.03-1.05-.5-1.47-.53-.48-1.2-.81-1.97-.98-.77-.17-1.5-.13-2.17.1-.51.18-.83.48-.99.94-.02.11-.05.22-.09.32l-.99-.29c.02-.09.04-.19.07-.28.02-.26-.1-.7-1.01-1.32-.98-.67-2.05-1.14-3.18-1.4l-.87-.2.6-.66c.45-.5.65-1.01.6-1.58l-.06-.84.78.32c.88.37,1.83.62,2.82.74.97.13,1.82.09,2.54-.11.8-.22,1-.64,1.07-.94l1.02-4.08v4.21c0,.8.28,1.37.86,1.73.65.41,1.42.62,2.3.62s1.67-.2,2.35-.62c.61-.37.9-.92.9-1.73v-.71l.68.22c1.02.32,1.75.27,2.24-.18.49-.45.65-.95.5-1.59-.15-.62-.76-1.1-1.82-1.43l-.64-.19.34-.57c.4-.66.41-1.28.03-1.94-.41-.73-1.03-1.32-1.84-1.77-.82-.45-1.66-.67-2.5-.67-.74,0-1.24.3-1.59.95l-.95-.4c.27-.85.25-1.45-.06-1.79-.3-.34-.63-.43-1.06-.3-.45.14-.82.64-1.09,1.5l-1.01-.24c.14-.81-.03-1.44-.51-1.93-.52-.52-1.14-.82-1.87-.92-.74-.09-1.41.03-2.06.39-.59.33-.92.91-1.01,1.77l-.37,3.54-.65-3.5c-.13-.7-.54-1.19-1.25-1.51-.8-.35-1.74-.51-2.85-.49-1.12.03-2.21.22-3.24.59-1.02.36-1.85.84-2.48,1.44-.55.53-.76,1.13-.63,1.82l.48,2.58-1.43-2.2c-.49-.76-1.03-1.1-1.64-1.04-.66.07-1.17.38-1.54.96-.22.34-.45.91.14,1.91l.95,1.62-1.65-.9c-.26-.14-.68-.26-1.35.28-.63.5-1.19,1.2-1.67,2.06-.48.86-.76,1.7-.84,2.5-.08.87.25,1.16.51,1.3l.77.42-.74.47c-.27.17-.61.51-.5,1.47.1.87.42,1.83.93,2.86.52,1.04,1.17,2.03,1.94,2.93.75.88,1.5,1.55,2.24,1.98.8.47,1.25.26,1.52.07l1.31-.95-.51,1.54c-.32.97-.32,1.68,0,2.1.31.41.68.54,1.19.42.52-.12.95-.64,1.27-1.55l1,.28c-.12.58.09,1.11.66,1.64.65.6,1.54,1.09,2.64,1.45,1.12.36,2.23.55,3.32.55,1.02,0,1.79-.21,2.29-.62l1.52-1.24-.71,1.83c-.22.56-.23,1.01-.03,1.36l.21.38-.34.27c-.17.14-.27.32-.3.57l-.1.7-.64-.3c-.98-.46-2.1-.75-3.34-.85-1.23-.1-2.32,0-3.23.3-.8.27-1.25.7-1.38,1.33l-1.03-.1c0-.64-.24-1.09-.74-1.4-.57-.36-1.23-.54-1.98-.54s-1.4.18-1.98.54c-.51.32-.74.76-.74,1.4v.75l-.7-.26c-.72-.27-1.31-.26-1.8.04-.53.32-.89.76-1.09,1.33-.2.57-.2,1.13,0,1.7.19.53.63.89,1.35,1.11l.55.17-.23.53c-.31.71-.28,1.35.09,1.93.41.66.99,1.16,1.75,1.53.76.37,1.53.51,2.31.44.69-.07,1.16-.4,1.46-1.06l2.08-4.46-1.11,4.79c-.36,1.58-.18,2.3.05,2.62.26.39.52.45.94.24.35-.17.84-.72,1.2-2.35l.16-.71Z"/>
    </g>
    <g>
      <path class="cls-3" d="M186.17,63.02c-1.59,0-2.65-.33-3.2-.98-.55-.66-.55-1.31,0-1.97.54-.66,1.61-.98,3.2-.98-1.09,0-1.91-.37-2.46-1.11-.55-.74-.82-1.57-.82-2.5s.27-1.76.82-2.5c.54-.74,1.36-1.11,2.46-1.11-.93,0-1.68-.44-2.25-1.31-.57-.87-.96-1.94-1.15-3.2-.19-1.26-.19-2.51,0-3.77.19-1.26.57-2.32,1.15-3.2.57-.87,1.32-1.31,2.25-1.31-.71,0-1.3-.4-1.76-1.19-.46-.79-.76-1.77-.9-2.95-.14-1.17-.14-2.35,0-3.52.14-1.17.44-2.16.9-2.95.46-.79,1.05-1.19,1.76-1.19-1.09,0-1.91-.4-2.46-1.19-.55-.79-.82-1.71-.82-2.74s.27-1.95.82-2.74c.54-.79,1.36-1.19,2.46-1.19-1.31.11-2.23-.22-2.74-.98-.52-.76-.6-1.58-.25-2.46.35-.87,1.19-1.37,2.5-1.48.05-.93.37-1.62.94-2.09.57-.46,1.21-.68,1.93-.66.71.03,1.34.29,1.88.78s.82,1.2.82,2.13c-.05-1.04.4-1.86,1.35-2.46.96-.6,2.08-.93,3.36-.98,1.28-.05,2.43.16,3.44.66,1.01.49,1.54,1.26,1.6,2.29.98.05,1.71.64,2.17,1.76.46,1.12.7,2.42.7,3.89s-.26,2.76-.78,3.85c-.52,1.09-1.27,1.64-2.25,1.64.87,0,1.53.42,1.97,1.27.44.85.66,1.84.66,2.99s-.22,2.15-.66,2.99c-.44.85-1.09,1.27-1.97,1.27.98-.05,1.72.4,2.21,1.35.49.96.71,1.93.66,2.91.16.06.3.14.41.25.16-.98.7-1.8,1.6-2.46.9-.66,1.87-.66,2.91,0-.77-.49-1.08-1.13-.94-1.93.14-.79.52-1.43,1.15-1.93.63-.49,1.35-.49,2.17,0-.16-.87.18-1.62,1.02-2.25s1.89-1.07,3.11-1.31c1.23-.25,2.35-.23,3.36.04,1.01.27,1.6.85,1.76,1.72,0-1.26.33-2.09.98-2.5.66-.41,1.31-.41,1.97,0,.66.41.98,1.24.98,2.5-.05-1.36.31-2.28,1.11-2.74.79-.46,1.6-.48,2.42-.04.82.44,1.23,1.34,1.23,2.7.71.49,1.01,1.2.9,2.13-.11.93-.48,1.84-1.11,2.74-.63.9-1.35,1.56-2.17,1.97-.82.41-1.58.37-2.29-.12.82.6,1.09,1.54.82,2.83-.27,1.28-.86,2.54-1.76,3.77-.9,1.23-1.87,2.12-2.91,2.66.93.38,1.64,1.08,2.13,2.09.49,1.01.66,2.02.49,3.03-.16,1.01-.77,1.74-1.8,2.17.76-.33,1.62-.15,2.58.53.96.68,1.8,1.61,2.54,2.79.74,1.18,1.19,2.32,1.35,3.44.16,1.12-.14,1.93-.9,2.42.82-.49,1.64-.56,2.46-.2.82.36,1.47.93,1.97,1.72.49.79.72,1.63.7,2.5-.03.88-.45,1.59-1.27,2.13,0,1.09-.48,1.91-1.43,2.46-.96.55-2.05.82-3.28.82s-2.32-.27-3.28-.82c-.96-.54-1.43-1.36-1.43-2.46-.11,1.04-.63,1.76-1.56,2.17-.93.41-1.95.55-3.07.41-1.12-.14-2.09-.51-2.91-1.11s-1.18-1.42-1.07-2.46c-1.2.71-2.16.93-2.87.66-.71-.27-1.01-.78-.9-1.52.11-.74.74-1.46,1.89-2.17-.6.38-1.33.27-2.17-.33-.85-.6-1.65-1.45-2.42-2.54-.77-1.09-1.37-2.21-1.8-3.36-.77.6-1.56.79-2.38.57.49.66.78,1.59.86,2.79.08,1.2-.04,2.29-.37,3.28s-.87,1.47-1.64,1.47c.55,1.2.5,2.17-.12,2.91-.63.74-1.42,1.09-2.38,1.07-.96-.03-1.71-.64-2.25-1.84,0,.82-.32,1.45-.94,1.88-.63.44-1.34.66-2.13.66s-1.5-.22-2.13-.66-.94-1.06-.94-1.88c0,1.47-.3,2.39-.9,2.74-.6.35-1.22-.12-1.84-1.43-.63-1.31-.97-3.66-1.02-7.05Z"/>
      <path class="cls-1" d="M225.95,72.55c-1.32,0-2.5-.3-3.54-.89-.56-.32-.99-.73-1.27-1.22-.31.4-.73.72-1.25.95-1.01.45-2.13.6-3.34.45-1.2-.15-2.26-.55-3.15-1.2-.72-.53-1.15-1.21-1.26-2.02-1.01.46-1.85.56-2.55.29-.94-.36-1.37-1.1-1.23-2.08.08-.53.35-1.03.81-1.51-.27-.1-.57-.26-.89-.49-.89-.63-1.75-1.53-2.54-2.67-.65-.93-1.2-1.89-1.62-2.87-.4.22-.8.35-1.21.39.25.6.4,1.32.46,2.16.09,1.26-.05,2.43-.39,3.48-.34,1.03-.89,1.51-1.42,1.71.36,1.13.21,2.08-.44,2.85-.74.86-1.68,1.28-2.79,1.25-.79-.02-1.47-.36-2.02-1.02-.19.38-.48.7-.86.97-1.43.99-3.43.99-4.85,0-.14-.1-.27-.21-.39-.32-.19.56-.49.96-.89,1.2-.32.19-.67.23-1.01.13-.57-.17-1.07-.74-1.57-1.79-.64-1.32-.99-3.54-1.07-6.76-1.48-.07-2.5-.45-3.08-1.16-.71-.85-.71-1.78,0-2.63.31-.37.74-.66,1.29-.85-.21-.17-.41-.37-.57-.6-.61-.82-.92-1.77-.92-2.81s.31-1.98.92-2.81c.28-.38.62-.68,1.03-.9-.31-.24-.59-.55-.84-.93-.61-.93-1.03-2.08-1.23-3.4-.2-1.3-.2-2.62,0-3.93.2-1.32.61-2.47,1.23-3.4.32-.49.7-.87,1.13-1.13-.24-.22-.46-.49-.65-.83-.5-.85-.83-1.91-.97-3.15-.14-1.21-.14-2.43,0-3.64.14-1.24.47-2.3.97-3.15.17-.29.36-.54.57-.75-.5-.24-.91-.59-1.24-1.07-.6-.87-.91-1.9-.91-3.04s.31-2.16.91-3.04c.2-.28.42-.53.68-.73-.39-.2-.72-.49-.97-.86-.62-.91-.72-1.9-.3-2.94.39-.96,1.23-1.55,2.51-1.75.13-.87.5-1.55,1.09-2.03.67-.54,1.44-.8,2.27-.77.83.03,1.58.34,2.21.91.19.17.36.37.49.58.26-.36.61-.69,1.05-.97,1.03-.65,2.25-1,3.61-1.06,1.36-.06,2.61.18,3.69.71,1.03.5,1.66,1.29,1.84,2.3.75.16,1.62.66,2.18,2.02.49,1.18.74,2.56.74,4.09s-.28,2.92-.83,4.07c-.32.68-.71,1.13-1.12,1.42.33.25.6.6.83,1.02.47.92.71,2,.71,3.23s-.24,2.31-.71,3.23c-.2.4-.46.72-.75.96.4.27.73.67,1,1.18.31.61.52,1.23.63,1.85.31-.5.73-.95,1.26-1.34.57-.41,1.2-.6,1.8-.59-.1-.36-.09-.71-.03-1.01.16-.92.61-1.67,1.34-2.25.44-.34,1.09-.63,1.96-.39.09-.6.42-1.26,1.24-1.87.9-.67,2.02-1.14,3.32-1.4,1.3-.26,2.52-.24,3.6.05.58.16,1,.39,1.32.67.2-.62.54-1.09,1.02-1.39.82-.51,1.7-.51,2.52,0,.26.16.48.38.66.64.22-.37.52-.67.9-.89.94-.55,1.95-.57,2.92-.05.94.5,1.44,1.48,1.5,2.9.71.59,1.02,1.44.9,2.45-.12,1.01-.52,2.01-1.2,2.98-.68.97-1.47,1.69-2.37,2.13-.42.21-.83.32-1.23.33.19.57.2,1.25.03,2.02-.29,1.35-.91,2.69-1.85,3.97-.71.98-1.49,1.76-2.3,2.33.65.45,1.17,1.08,1.57,1.89.54,1.11.72,2.23.54,3.34-.1.6-.33,1.12-.68,1.55.4.13.82.35,1.25.65,1.01.72,1.91,1.71,2.68,2.93.77,1.23,1.25,2.46,1.42,3.64.09.62.05,1.13-.08,1.55.45-.01.89.07,1.33.27.92.4,1.66,1.04,2.2,1.92.54.88.8,1.81.77,2.79-.03.97-.46,1.77-1.28,2.39-.08,1.15-.64,2.04-1.69,2.63-1.03.59-2.22.89-3.53.89ZM220.72,68.7l1.03.05c0,.9.38,1.56,1.17,2.01.87.5,1.89.75,3.02.75s2.15-.25,3.02-.75c.79-.45,1.17-1.11,1.17-2.01v-.28l.23-.15c.68-.45,1.02-1.01,1.04-1.72.02-.77-.18-1.51-.62-2.21-.44-.71-1.01-1.2-1.73-1.52-.66-.29-1.31-.23-1.99.17l-.55-.88c.37-.24.85-.7.67-1.9-.15-1.04-.58-2.13-1.28-3.24-.7-1.11-1.5-2-2.4-2.64-.8-.57-1.47-.73-2.06-.48,0,0-.01,0-.02,0l-.41-.95s.01,0,.02,0c.86-.37,1.34-.95,1.48-1.77.15-.91,0-1.8-.45-2.72-.44-.9-1.05-1.5-1.86-1.84l-1.03-.42.98-.52c.96-.51,1.88-1.35,2.73-2.51.85-1.16,1.42-2.36,1.67-3.57.23-1.07.03-1.83-.62-2.3l.6-.84c.56.38,1.12.41,1.77.08.74-.37,1.4-.97,1.98-1.8.58-.83.92-1.67,1.02-2.51.09-.74-.13-1.26-.68-1.64l-.22-.15v-.27c0-1.17-.31-1.9-.95-2.25-.66-.35-1.27-.34-1.91.03-.57.33-.85,1-.86,2.02,0,.09,0,.19,0,.28l-1.04.02c0-.1,0-.19,0-.28-.04-.91-.29-1.52-.73-1.8-.49-.31-.93-.3-1.42,0-.49.31-.74,1-.74,2.06l-1.03.1c-.13-.67-.57-1.09-1.39-1.31-.93-.25-1.98-.26-3.12-.03-1.15.23-2.12.64-2.91,1.22-.69.51-.95,1.06-.82,1.74l.21,1.13-.99-.59c-.83-.5-1.3-.26-1.59-.04-.53.41-.84.94-.96,1.6-.1.59.12,1.02.71,1.4l-.56.88c-.86-.54-1.6-.55-2.33-.02-.79.58-1.25,1.27-1.39,2.12l-.16.98-.71-.7c-.05-.05-.12-.1-.21-.12l-.37-.13.02-.39c.05-.89-.15-1.77-.6-2.64-.38-.73-.88-1.07-1.59-1.08-.05,0-.11,0-.16,0l-.03-1.04c.05,0,.11,0,.16,0,.61-.04,1.05-.35,1.37-.99.4-.77.6-1.69.6-2.75s-.2-1.98-.6-2.75c-.35-.67-.83-.99-1.51-.99v-1.04c.78,0,1.35-.43,1.79-1.34.48-1.02.73-2.24.73-3.63s-.22-2.64-.66-3.69c-.39-.94-.94-1.4-1.72-1.44l-.46-.03-.02-.46c-.04-.84-.47-1.45-1.31-1.86-.92-.45-1.99-.65-3.19-.6-1.19.05-2.23.35-3.11.9-.74.47-1.1,1.05-1.11,1.81,0,.07,0,.14,0,.21l-1.04.03c0-.07,0-.15,0-.22-.03-.68-.24-1.19-.64-1.55-.46-.41-.97-.62-1.56-.65-.6-.02-1.1.16-1.58.54-.46.37-.71.93-.75,1.72l-.03.45-.45.04c-1.11.09-1.79.47-2.06,1.15-.29.71-.22,1.35.19,1.97.35.52.96.78,1.83.78h.03c.15-.01.3-.02.45-.02l.04,1.04c-.15.01-.29.02-.43.02-.72.08-1.26.39-1.65.94-.49.71-.73,1.51-.73,2.45s.24,1.74.73,2.45c.45.65,1.11.96,2.03.96v1.04c-.52,0-.95.31-1.32.93-.43.73-.71,1.65-.83,2.75-.13,1.13-.13,2.28,0,3.4.13,1.1.41,2.02.83,2.75.37.63.8.93,1.32.93v1.04c-.75,0-1.34.35-1.82,1.08-.53.81-.89,1.81-1.07,2.99-.18,1.2-.18,2.42,0,3.61.18,1.18.54,2.18,1.07,2.99.47.72,1.07,1.08,1.82,1.08v1.04c-.93,0-1.6.29-2.04.9-.48.65-.72,1.37-.72,2.19s.23,1.54.72,2.19c.45.6,1.11.9,2.04.9v1.04c-1.42,0-2.36.27-2.8.8-.39.46-.39.84,0,1.3.44.53,1.38.8,2.8.8h.51v.51c.06,3.3.39,5.59.98,6.83.5,1.04.84,1.22.94,1.24.04.01.08.02.17-.03.42-.25.65-1.06.65-2.3h1.04c0,.65.23,1.12.72,1.46,1.09.76,2.58.76,3.67,0,.49-.34.72-.8.72-1.46v-2.39l.99,2.18c.46,1.01,1.05,1.52,1.8,1.54.78.03,1.44-.26,1.97-.88.49-.58.5-1.35.04-2.36l-.33-.73h.8c.33,0,.81-.12,1.15-1.12.31-.91.42-1.95.34-3.08-.07-1.09-.33-1.94-.76-2.51l-.9-1.2,1.45.39c.66.17,1.29.02,1.92-.48l.55-.44.25.66c.42,1.11,1.01,2.2,1.74,3.25.73,1.04,1.5,1.85,2.29,2.42.91.65,1.37.45,1.56.34.01,0,.03-.02.04-.03l.55.88s-.02.01-.03.02c-.98.61-1.53,1.23-1.62,1.79-.07.5.09.77.57.96.54.21,1.38,0,2.42-.62l.89-.53-.11,1.03c-.09.86.18,1.49.86,1.99.74.54,1.64.88,2.66,1.01,1.02.12,1.96,0,2.8-.37.76-.34,1.16-.89,1.25-1.75Z"/>
    </g>
    <g>
      <path class="cls-3" d="M248.6,76.87c-.87-.38-1.43-.96-1.68-1.72s-.23-1.53.04-2.29.74-1.38,1.39-1.84c.66-.46,1.39-.59,2.21-.37-1.15-.44-1.79-.98-1.93-1.64-.14-.66.12-1.15.78-1.47-.66-.38-.93-.96-.82-1.72.11-.76.74-1.39,1.89-1.88-1.04.44-1.95.45-2.74.04-.79-.41-1.37-1.04-1.72-1.88-.36-.85-.4-1.69-.12-2.54.27-.85.93-1.49,1.97-1.93-.93.38-1.78.33-2.54-.16-.77-.49-1.34-1.2-1.72-2.13-.38-.93-.49-1.83-.33-2.7.16-.87.71-1.53,1.64-1.97-.82.38-1.64.16-2.46-.66-.82-.82-1.5-1.86-2.05-3.11-.55-1.26-.82-2.46-.82-3.6s.41-1.89,1.23-2.21c-.82.33-1.63.14-2.42-.57-.79-.71-1.45-1.67-1.97-2.87-.52-1.2-.77-2.35-.74-3.44.03-1.09.45-1.8,1.27-2.13-1.64-.76-2.31-1.45-2.01-2.05.3-.6,1.27-.52,2.91.25,0-1.09.48-1.9,1.43-2.42.96-.52,2.08-.78,3.36-.78s2.42.26,3.4.78c.98.52,1.47,1.32,1.47,2.42.54-1.04,1.24-1.56,2.09-1.56s1.49.36,1.93,1.07c.44.71.35,1.59-.25,2.62,1.31-.49,2.28-.56,2.91-.2.63.36.81.87.53,1.56-.27.68-1.07,1.24-2.38,1.68.6-.22,1.23,0,1.88.66s1.24,1.52,1.76,2.58c.52,1.07.93,2.19,1.23,3.36.3,1.17.41,2.21.33,3.11-.08.9-.42,1.46-1.02,1.68.55-.16,1.07-.11,1.56.16.49.27.93.68,1.31,1.23.66-.71,1.53-.85,2.62-.41-1.09-.38-1.71-.93-1.84-1.64-.14-.71.08-1.27.66-1.68.57-.41,1.38-.42,2.42-.04-.66-.27-1.04-.89-1.15-1.84-.11-.96-.01-2.05.29-3.28.3-1.23.74-2.42,1.31-3.56.57-1.15,1.21-2.05,1.93-2.7.71-.66,1.39-.85,2.05-.57-.27-.93-.07-1.73.61-2.42.68-.68,1.56-1.16,2.62-1.43,1.06-.27,2.06-.3,2.99-.08.93.22,1.53.79,1.8,1.72,0-1.09.42-1.82,1.27-2.17.85-.35,1.71-.35,2.58,0,.87.36,1.31,1.08,1.31,2.17.76.16,1.24.73,1.43,1.68.19.96.16,2.01-.08,3.15-.25,1.15-.67,2.1-1.27,2.87-.6.77-1.28,1.06-2.05.9,1.15.49,1.8,1.3,1.97,2.42.16,1.12,0,2.25-.49,3.4-.49,1.15-1.2,2.04-2.13,2.66-.93.63-1.97.7-3.11.21,1.09.49,1.68,1.13,1.76,1.93s-.19,1.45-.82,1.97c-.63.52-1.49.53-2.58.04.76.33,1.16,1.01,1.19,2.05.03,1.04-.19,2.1-.66,3.2-.46,1.09-1.08,1.98-1.84,2.66-.76.68-1.53.86-2.29.53.66.27,1.01.87,1.07,1.8.05.93-.1,1.99-.45,3.19-.36,1.2-.83,2.34-1.43,3.4-.6,1.06-1.27,1.9-2.01,2.5s-1.43.76-2.09.49c.87.38,1.35,1.07,1.43,2.05s-.11,2.01-.57,3.07c-.46,1.07-1.09,1.93-1.89,2.58-.79.66-1.63.79-2.5.41.98.6,1.57,1.31,1.76,2.13s.08,1.56-.33,2.21c-.41.66-1.03,1.08-1.84,1.27-.82.19-1.72-.04-2.7-.7,0,.87-.49,1.53-1.47,1.97-.98.44-2.13.66-3.44.66s-2.46-.22-3.44-.66c-.98-.44-1.48-1.09-1.48-1.97,0,1.2-.15,2.05-.45,2.54-.3.49-.56.52-.78.08-.22-.44-.26-1.46-.12-3.07.14-1.61.61-3.95,1.43-7.01Z"/>
      <path class="cls-1" d="M247.63,87.77s-.02,0-.03,0c-.22,0-.53-.12-.77-.59-.17-.34-.37-1.06-.18-3.35.13-1.56.58-3.81,1.34-6.69-.79-.44-1.31-1.06-1.56-1.84-.28-.87-.26-1.76.05-2.63.31-.86.84-1.57,1.58-2.09.23-.16.48-.29.73-.39-.35-.33-.57-.69-.65-1.09-.13-.63.02-1.18.43-1.6-.42-.46-.58-1.06-.48-1.77.05-.36.19-.69.4-.99-.34-.05-.67-.16-.99-.32-.9-.46-1.56-1.19-1.96-2.14-.4-.96-.45-1.94-.14-2.9.13-.4.33-.76.59-1.08-.33-.08-.65-.22-.96-.42-.85-.55-1.5-1.34-1.92-2.37-.42-1.02-.54-2.03-.36-3,.09-.5.29-.93.58-1.31-.4-.14-.82-.41-1.26-.85-.86-.86-1.59-1.97-2.16-3.27-.57-1.31-.86-2.6-.86-3.81,0-.69.14-1.22.35-1.62-.43-.11-.89-.35-1.37-.78-.84-.76-1.55-1.78-2.1-3.05-.55-1.27-.81-2.5-.78-3.66.03-1,.35-1.64.76-2.06-.85-.48-1.33-.94-1.5-1.43-.11-.31-.09-.62.06-.91.53-1.05,1.97-.67,2.93-.28.19-.92.73-1.62,1.63-2.11,1.03-.56,2.24-.84,3.61-.84s2.59.28,3.64.84c.73.38,1.23.92,1.51,1.59.52-.53,1.12-.79,1.81-.79,1.02,0,1.83.45,2.37,1.31.37.61.45,1.3.23,2.07.93-.21,1.67-.15,2.24.17.85.48,1.13,1.28.76,2.2-.2.5-.59.93-1.18,1.3.18.12.38.28.57.48.69.69,1.32,1.61,1.86,2.72.53,1.09.96,2.25,1.27,3.46.31,1.23.43,2.33.34,3.29-.04.46-.14.82-.28,1.11.19.05.37.13.55.23.41.23.79.54,1.13.94.18-.12.38-.23.61-.3-.21-.27-.35-.57-.41-.9-.17-.91.12-1.67.86-2.2.37-.26.8-.4,1.3-.41-.12-.29-.2-.62-.24-.99-.12-1.01-.02-2.17.3-3.46.31-1.26.76-2.5,1.35-3.67.6-1.2,1.29-2.16,2.04-2.85.66-.61,1.26-.82,1.77-.83-.03-.8.26-1.53.88-2.15.75-.75,1.71-1.27,2.86-1.57,1.14-.29,2.23-.32,3.24-.08.59.14,1.08.41,1.45.79.31-.66.84-1.02,1.3-1.22.97-.41,1.97-.41,2.98,0,.68.28,1.49.9,1.62,2.26.58.24,1.2.78,1.44,1.96.2,1.03.18,2.16-.08,3.37-.26,1.22-.72,2.26-1.37,3.08-.34.43-.68.71-1.02.88.57.53.92,1.22,1.04,2.04.18,1.21,0,2.45-.53,3.68-.53,1.24-1.31,2.21-2.32,2.89-.48.32-.98.52-1.51.59.22.32.35.67.38,1.06.1.96-.25,1.79-1,2.42-.4.33-.88.51-1.41.52.12.32.2.7.21,1.16.03,1.11-.21,2.26-.7,3.41-.49,1.16-1.16,2.12-1.98,2.85-.47.42-.92.65-1.33.75.14.31.24.69.27,1.17.06.98-.1,2.12-.47,3.37-.37,1.24-.86,2.42-1.48,3.51-.63,1.12-1.35,2.01-2.13,2.65-.33.27-.66.46-.98.59.29.42.47.92.52,1.51.09,1.06-.12,2.18-.61,3.32-.49,1.13-1.18,2.07-2.03,2.77-.4.33-.82.55-1.25.66.35.42.58.87.69,1.36.22.95.09,1.83-.39,2.61-.48.77-1.21,1.28-2.17,1.5-.76.18-1.58.05-2.44-.38-.2.58-.67,1.18-1.65,1.62-1.05.47-2.28.7-3.65.7s-2.61-.24-3.65-.7c-.38-.17-.68-.36-.92-.57-.08.38-.2.69-.35.94-.1.16-.39.64-.88.64ZM249.81,71.05c-.42,0-.8.13-1.16.38-.57.4-.96.93-1.2,1.6-.24.66-.25,1.3-.04,1.96.2.62.66,1.08,1.39,1.4l.41.18-.12.43c-.81,3.02-1.29,5.34-1.42,6.92-.13,1.52-.07,2.24,0,2.57.16-.32.32-.95.32-2.16h1.04c0,.42.12,1.03,1.17,1.49.91.41,2,.61,3.23.61s2.32-.21,3.23-.61c1.04-.46,1.17-1.07,1.17-1.49v-.97l.81.54c.86.57,1.63.78,2.3.62.69-.16,1.18-.5,1.52-1.04.34-.54.42-1.13.26-1.82-.16-.68-.67-1.28-1.53-1.81l.48-.92c.7.3,1.32.2,1.96-.33.73-.6,1.31-1.41,1.74-2.39.43-.98.61-1.93.53-2.82-.07-.8-.42-1.31-1.12-1.62l.41-.95c.17.07.7.29,1.56-.41.68-.56,1.31-1.35,1.88-2.35.58-1.02,1.04-2.13,1.39-3.29.34-1.14.48-2.15.43-3.02-.06-.94-.44-1.22-.73-1.35,0,0-.01,0-.02,0l.4-.96s.01,0,.02,0c.36.15.93.26,1.73-.45.71-.63,1.28-1.46,1.71-2.48.43-1.02.64-2.02.61-2.98-.03-1.05-.47-1.4-.83-1.56-.02,0-.04-.02-.06-.02l.42-.95s.04.02.06.03c1.31.57,1.82.15,1.99,0,.5-.41.7-.89.63-1.51-.06-.6-.54-1.09-1.46-1.51l.42-.95c.98.42,1.84.37,2.62-.16.84-.57,1.5-1.39,1.94-2.44.45-1.05.6-2.1.46-3.12-.14-.94-.68-1.6-1.66-2.02l.31-.98c.36.08.9.09,1.53-.71.55-.7.94-1.59,1.17-2.66.23-1.07.26-2.06.08-2.94-.2-.99-.69-1.2-1.03-1.27l-.41-.09v-.42c0-.88-.31-1.42-.99-1.69-.75-.3-1.46-.3-2.18,0-.41.17-.95.53-.95,1.69v3.58l-1.02-3.43c-.22-.75-.68-1.19-1.42-1.36-.84-.2-1.77-.17-2.74.08-.97.25-1.77.69-2.38,1.3-.55.55-.7,1.16-.48,1.9l.31,1.04-1-.42c-.29-.12-.76-.2-1.5.48-.66.61-1.27,1.47-1.81,2.56-.55,1.11-.98,2.27-1.27,3.45-.29,1.17-.38,2.21-.27,3.1.13,1.13.66,1.35.83,1.42l-.38.97c-.86-.32-1.52-.33-1.94-.02-.41.29-.55.65-.45,1.16.09.47.53.87,1.3,1.17.07.03.15.05.23.08l-.36.97c-.08-.03-.15-.05-.22-.08-1.04-.35-1.55.03-1.85.35l-.44.47-.37-.53c-.33-.48-.72-.84-1.14-1.07-.37-.2-.74-.24-1.16-.12l-.32-.98c.15-.05.59-.21.68-1.24.08-.84-.03-1.83-.31-2.94-.29-1.14-.69-2.23-1.19-3.26-.49-1.01-1.05-1.83-1.66-2.44-.66-.66-1.08-.61-1.27-.56-.03,0-.05.02-.08.03l-.34-.98s.05-.02.08-.03c1.1-.37,1.79-.84,1.99-1.36.17-.44.09-.69-.31-.91-.48-.27-1.33-.19-2.47.24l-1.36.51.73-1.26c.5-.87.58-1.55.25-2.09-.34-.56-.82-.82-1.48-.82s-1.18.42-1.63,1.28l-.98,1.86v-2.1c0-.9-.38-1.53-1.2-1.96-.9-.48-1.97-.72-3.16-.72s-2.24.24-3.11.71c-.79.43-1.16,1.05-1.16,1.96v.81l-.74-.34c-1.58-.74-2.15-.64-2.23-.48-.02.03-.02.06,0,.1.04.12.29.55,1.77,1.24l1.09.51-1.11.45c-.39.16-.92.5-.94,1.66-.03,1.01.21,2.1.69,3.22.49,1.13,1.1,2.03,1.84,2.69.65.58,1.24.73,1.88.48l.38.96c-.39.15-.9.5-.9,1.73,0,1.07.26,2.22.78,3.4.51,1.19,1.17,2.18,1.94,2.95.87.87,1.49.73,1.87.55l.44.94c-.78.36-1.22.89-1.35,1.59-.14.77-.04,1.58.3,2.41.34.84.84,1.45,1.52,1.89.62.4,1.29.44,2.06.12l.4.96c-.9.38-1.45.9-1.67,1.61-.24.73-.2,1.44.11,2.18.31.74.79,1.27,1.48,1.62.65.34,1.41.32,2.31-.06l.41.95c-.96.41-1.49.91-1.58,1.48-.08.55.1.92.57,1.2l.83.48-.86.43c-.55.28-.57.6-.5.91.12.58.94,1.01,1.6,1.26l-.32.99c-.22-.06-.42-.09-.62-.09Z"/>
    </g>
    <g>
      <path class="cls-3" d="M305.47,57.77c-1.47,0-2.6-.45-3.36-1.35s-1.15-1.97-1.15-3.2.38-2.29,1.15-3.2c.76-.9,1.89-1.35,3.36-1.35-1.37,0-2.4-.44-3.11-1.31-.71-.87-1.07-1.87-1.07-2.99s.36-2.1,1.07-2.95c.71-.85,1.75-1.27,3.11-1.27-1.04,0-1.87-.4-2.5-1.19-.63-.79-1.04-1.77-1.23-2.95-.19-1.17-.19-2.34,0-3.48.19-1.15.6-2.12,1.23-2.91.63-.79,1.46-1.19,2.5-1.19-1.91,0-3.2-.44-3.85-1.31-.66-.87-.66-1.75,0-2.62.66-.87,1.94-1.31,3.85-1.31-1.2-.11-2.09-.54-2.66-1.31-.57-.76-.83-1.62-.78-2.58.05-.96.41-1.77,1.06-2.46.66-.68,1.58-1,2.79-.94,0-1.58.46-2.79,1.39-3.61.93-.82,1.99-1.23,3.2-1.23s2.27.41,3.2,1.23c.93.82,1.39,2.02,1.39,3.61,0-1.09.42-1.95,1.27-2.58.85-.63,1.88-1.05,3.11-1.27,1.23-.22,2.46-.22,3.69,0,1.23.22,2.27.64,3.11,1.27.85.63,1.27,1.49,1.27,2.58,0-1.58.38-2.77,1.15-3.56.76-.79,1.65-1.19,2.66-1.19s1.88.4,2.62,1.19c.74.79,1.11,2.01,1.11,3.65.16-1.42.56-2.44,1.19-3.07s1.31-.9,2.05-.82,1.35.51,1.84,1.27c.49.77.66,1.83.49,3.2.49-1.75,1.15-2.84,1.97-3.28.82-.44,1.46-.26,1.93.53.46.79.45,2.06-.04,3.81.76-.93,1.67-1.39,2.7-1.39s1.97.34,2.79,1.02c.82.68,1.35,1.52,1.6,2.5.25.98-.01,1.97-.78,2.95,1.47-.33,2.66-.18,3.56.45.9.63,1.47,1.46,1.72,2.5.25,1.04.11,2.05-.41,3.03-.52.98-1.52,1.64-2.99,1.97,1.26.44,2.1,1.04,2.54,1.8.44.77.52,1.5.25,2.21-.27.71-.82,1.23-1.64,1.56-.82.33-1.86.25-3.11-.25,1.26,1.64,1.8,2.96,1.64,3.97-.16,1.01-.77,1.49-1.8,1.43-1.04-.05-2.19-.9-3.44-2.54.6.76.93,1.56.98,2.38,1.42.55,2.65,1.42,3.69,2.62,1.04,1.2,1.23,2.38.57,3.52,1.31-.33,2.38-.31,3.2.04.82.36,1.32.89,1.52,1.6s.04,1.42-.45,2.13c-.49.71-1.39,1.26-2.7,1.64,1.53.33,2.61.93,3.24,1.8.63.87.85,1.79.66,2.74-.19.96-.74,1.73-1.64,2.33-.9.6-2.14.74-3.73.41,1.09,1.04,1.64,2.1,1.64,3.2s-.36,2.01-1.06,2.74c-.71.74-1.61,1.12-2.7,1.15-1.09.03-2.18-.48-3.28-1.52.71,1.69.94,2.94.7,3.73-.25.79-.75,1.01-1.52.66-.76-.35-1.5-1.38-2.21-3.07.16,1.2-.15,2.21-.94,3.03-.79.82-1.8,1.42-3.03,1.8-1.23.38-2.49.52-3.77.41-1.28-.11-2.39-.48-3.32-1.11s-1.47-1.54-1.64-2.74c0,1.47-.44,2.59-1.31,3.36-.87.76-1.9,1.15-3.07,1.15s-2.2-.38-3.07-1.15c-.87-.77-1.31-1.89-1.31-3.36,0,1.26-.34,2.2-1.03,2.83-.68.63-1.49.94-2.42.94s-1.74-.32-2.42-.94c-.68-.63-1.02-1.57-1.02-2.83,0,1.04-.34,1.82-1.02,2.34-.68.52-1.54.72-2.58.61-1.04-.11-2.06-.63-3.07-1.56-1.01-.93-1.86-2.36-2.54-4.3-.68-1.94-1-4.49-.94-7.66ZM321.04,31.88c.87,0,1.52.37,1.93,1.11.41.74.67,1.54.78,2.42.11.87.16,1.5.16,1.89.11-.87.49-1.48,1.15-1.8.66-.33,1.34-.37,2.05-.12.71.25,1.15.75,1.31,1.52-.11-.98.35-1.71,1.39-2.17,1.04-.46,1.97-.5,2.79-.12-.11-.6.01-1.22.37-1.84.35-.63.86-1.05,1.52-1.27-.55-.33-.97-.86-1.27-1.6-.3-.74-.4-1.4-.29-2.01-.44.33-.81.38-1.11.16-.3-.22-.4-.63-.29-1.23-.66.82-1.63,1.19-2.91,1.11-1.28-.08-2.2-.56-2.74-1.43,0,.66-.25,1.22-.74,1.68-.49.46-1.06.7-1.72.7.27.66.21,1.32-.2,2.01-.41.68-1.13,1.02-2.17,1.02ZM328.5,59.17c-.05-.93.31-1.57,1.11-1.93.79-.35,1.57-.42,2.34-.21-.27-.93-.21-1.93.2-2.99.41-1.07,1.02-1.87,1.84-2.42-.87-.38-1.67-.97-2.38-1.76-.71-.79-1.12-1.6-1.23-2.42-.44.71-1.15,1.15-2.13,1.31s-1.91.11-2.79-.16c.16.87-.07,1.69-.7,2.46-.63.77-1.43,1.09-2.42.98.82.49,1.36,1.28,1.64,2.38.27,1.09.33,2.08.16,2.95.82-.38,1.75-.42,2.79-.12,1.04.3,1.56.94,1.56,1.93Z"/>
      <path class="cls-1" d="M326.9,73.37c-1.3,0-2.45-.43-3.41-1.28-.43-.37-.76-.82-1.01-1.34-.17.3-.38.57-.64.8-.78.72-1.71,1.08-2.77,1.08s-1.99-.36-2.77-1.08c-.33-.3-.58-.66-.78-1.07-.17.23-.37.43-.61.61-.79.6-1.78.84-2.95.72-1.15-.12-2.28-.69-3.37-1.69-1.07-.98-1.97-2.5-2.68-4.51-.66-1.88-.99-4.35-.98-7.33-1.38-.1-2.46-.61-3.23-1.52-.84-.99-1.27-2.18-1.27-3.53s.43-2.54,1.27-3.53c.38-.45.84-.8,1.37-1.05-.43-.24-.81-.56-1.13-.95-.78-.96-1.18-2.08-1.18-3.32s.4-2.34,1.19-3.28c.38-.46.85-.81,1.39-1.05-.29-.2-.55-.45-.79-.75-.68-.86-1.13-1.93-1.33-3.19-.2-1.23-.2-2.45,0-3.65.21-1.23.65-2.29,1.33-3.15.19-.24.39-.44.61-.62-.88-.25-1.54-.66-1.97-1.25-.8-1.06-.8-2.18,0-3.24.43-.58,1.09-.99,1.97-1.24-.3-.21-.56-.46-.78-.76-.65-.86-.94-1.85-.88-2.92.06-1.08.47-2.01,1.21-2.79.66-.69,1.55-1.06,2.66-1.1.1-1.48.62-2.65,1.55-3.48,1.02-.9,2.21-1.36,3.54-1.36s2.52.46,3.54,1.36c.55.48.95,1.08,1.21,1.79.22-.29.48-.56.8-.79.91-.67,2.03-1.13,3.33-1.36,1.28-.23,2.59-.23,3.87,0,1.3.23,2.42.69,3.33,1.36.3.22.55.47.76.74.22-.66.54-1.22.97-1.67.86-.89,1.88-1.35,3.04-1.35s2.16.46,3,1.35c.38.41.67.91.88,1.5.19-.36.41-.68.67-.94.74-.74,1.58-1.07,2.47-.97.9.1,1.64.61,2.22,1.51.21.32.36.68.47,1.09.38-.63.81-1.08,1.31-1.35,1.06-.56,2.01-.3,2.62.73.38.66.5,1.53.34,2.67.57-.33,1.2-.5,1.87-.5,1.16,0,2.21.38,3.12,1.14.9.75,1.5,1.68,1.77,2.77.2.8.12,1.61-.26,2.4,1.12-.08,2.06.16,2.84.7,1.01.7,1.65,1.65,1.93,2.81.27,1.16.12,2.3-.46,3.39-.41.78-1.09,1.39-2.01,1.8.71.41,1.23.9,1.55,1.47.52.9.61,1.8.28,2.66-.33.85-.98,1.47-1.93,1.85-.6.24-1.28.29-2.06.17.75,1.23,1.05,2.27.9,3.16-.21,1.28-1.07,1.93-2.34,1.87-.03,0-.07,0-.1,0,.63.46,1.22.99,1.75,1.61,1.05,1.22,1.2,2.31,1,3.17,1.01-.14,1.87-.05,2.58.25.97.42,1.58,1.07,1.81,1.94.23.86.06,1.72-.53,2.56-.35.5-.87.93-1.55,1.28.91.38,1.61.9,2.08,1.56.71.99.96,2.05.74,3.15-.22,1.09-.84,1.99-1.86,2.66-.72.48-1.63.71-2.73.66.58.81.87,1.65.87,2.51,0,1.23-.41,2.27-1.21,3.1-.81.84-1.84,1.28-3.07,1.31-.76.02-1.49-.18-2.23-.59.28,1.02.32,1.82.13,2.44-.17.54-.45.9-.84,1.08-.39.17-.86.14-1.39-.1-.58-.27-1.12-.81-1.63-1.66-.18.55-.5,1.06-.93,1.51-.85.88-1.94,1.53-3.25,1.94-1.29.4-2.63.55-3.97.43-1.36-.12-2.56-.52-3.56-1.19-.47-.32-.86-.7-1.15-1.15-.25.68-.64,1.26-1.16,1.72-.97.85-2.12,1.28-3.42,1.28ZM323.03,68.34c0,1.33.37,2.3,1.13,2.97.78.69,1.68,1.02,2.73,1.02s1.95-.33,2.73-1.02c.76-.67,1.13-1.64,1.13-2.97l1.03-.07c.14,1.06.61,1.84,1.42,2.38.85.58,1.89.92,3.07,1.02,1.21.1,2.41-.03,3.57-.39,1.14-.35,2.08-.92,2.81-1.67.68-.71.94-1.56.8-2.6l-.53-3.91,1.53,3.64c.82,1.95,1.51,2.6,1.95,2.8.24.11.43.15.53.1.1-.05.2-.2.27-.44.14-.46.14-1.42-.68-3.37l-.95-2.28,1.79,1.7c.99.94,2.01,1.41,2.91,1.37.96-.02,1.73-.35,2.34-.99.62-.64.92-1.42.92-2.39s-.5-1.89-1.48-2.82l-1.32-1.25,1.78.37c1.44.3,2.56.18,3.33-.33.79-.53,1.25-1.18,1.42-2.01.16-.81-.02-1.58-.57-2.34-.55-.76-1.53-1.3-2.92-1.6l-2.01-.43,1.97-.58c1.19-.35,2-.83,2.42-1.44.4-.58.53-1.14.38-1.7-.15-.55-.55-.97-1.22-1.26-.71-.31-1.67-.31-2.86-.01l-1.18.3.6-1.06c.55-.96.38-1.89-.52-2.93-.98-1.13-2.15-1.96-3.48-2.48l-.31-.12-.02-.33c-.05-.68-.32-1.36-.82-2.02-.02-.03-.04-.05-.06-.08l.82-.64s.04.06.07.09c1.13,1.45,2.14,2.21,2.99,2.26.78.05,1.14-.25,1.26-1,.14-.86-.38-2.06-1.54-3.58l-1.13-1.48,1.73.68c1.12.44,2.04.52,2.73.25.68-.27,1.12-.69,1.35-1.26.21-.56.15-1.14-.21-1.77-.37-.65-1.13-1.18-2.26-1.57l-1.72-.6,1.78-.4c1.33-.3,2.2-.85,2.64-1.7.46-.88.58-1.75.36-2.67-.22-.92-.71-1.63-1.51-2.19-.77-.54-1.83-.66-3.16-.37l-1.41.31.88-1.14c.67-.86.89-1.68.68-2.51-.22-.88-.69-1.61-1.43-2.23-.73-.61-1.53-.9-2.46-.9s-1.64.39-2.3,1.2l-1.57,1.9.67-2.37c.44-1.58.47-2.75.09-3.41-.33-.55-.66-.64-1.23-.34-.69.37-1.26,1.36-1.71,2.96l-1.01-.2c.15-1.24,0-2.2-.41-2.85-.41-.63-.89-.97-1.46-1.04-.57-.06-1.11.15-1.62.67-.54.54-.89,1.47-1.04,2.76l-1.03-.06c0-1.5-.33-2.6-.97-3.29-.64-.69-1.38-1.02-2.24-1.02s-1.62.34-2.29,1.03c-.67.69-1,1.77-1,3.2h-1.04c0-.93-.35-1.63-1.06-2.17-.78-.58-1.75-.97-2.89-1.18-1.16-.21-2.34-.21-3.51,0-1.14.2-2.12.6-2.9,1.18-.71.53-1.06,1.24-1.06,2.17h-1.04c0-1.44-.4-2.49-1.22-3.22-.84-.74-1.77-1.1-2.85-1.1s-2.02.36-2.85,1.1c-.82.72-1.22,1.77-1.22,3.22v.54l-.54-.02c-1.05-.04-1.84.21-2.39.78-.57.6-.87,1.29-.92,2.13-.05.84.17,1.57.67,2.24.49.65,1.24,1.01,2.29,1.1l-.05,1.04c-1.73,0-2.89.37-3.44,1.1-.52.69-.52,1.31,0,2,.55.73,1.71,1.1,3.44,1.1v1.04c-.88,0-1.56.32-2.09.99-.57.72-.95,1.62-1.12,2.67-.18,1.09-.18,2.2,0,3.31.18,1.08.55,1.99,1.12,2.71.53.67,1.21.99,2.09.99v1.04c-1.22,0-2.1.35-2.72,1.08-.64.76-.94,1.61-.94,2.62s.31,1.88.95,2.66c.61.75,1.5,1.12,2.71,1.12v1.04c-1.33,0-2.3.38-2.96,1.17-.69.81-1.02,1.75-1.02,2.86s.33,2.05,1.02,2.86c.67.79,1.64,1.17,2.96,1.17h.53v.53c-.06,3.09.25,5.61.9,7.48.65,1.85,1.46,3.23,2.4,4.09.92.85,1.86,1.33,2.78,1.42.91.09,1.63-.07,2.21-.51.55-.42.82-1.05.82-1.92h1.04c0,1.12.28,1.92.86,2.44.59.54,1.27.81,2.07.81s1.47-.26,2.07-.81c.57-.52.86-1.34.86-2.44h1.04ZM327.98,59.2c0-.06,0-.12,0-.18-.05-.66-.42-1.06-1.18-1.28-.92-.27-1.71-.24-2.42.09l-.92.43.19-.99c.15-.79.1-1.71-.16-2.73-.24-.96-.7-1.64-1.4-2.06l-2.05-1.23,2.37.27c.8.09,1.44-.17,1.96-.8.53-.65.72-1.31.59-2.03l-.16-.85.82.26c.79.25,1.65.3,2.54.15.83-.14,1.42-.49,1.77-1.07l.76-1.24.19,1.44c.09.71.46,1.43,1.1,2.14.66.73,1.4,1.28,2.2,1.63l.87.38-.79.53c-.73.48-1.28,1.22-1.65,2.17-.37.95-.43,1.85-.19,2.66l.27.9-.91-.26c-.65-.19-1.3-.13-1.98.18-.55.25-.8.64-.81,1.27,0,.06,0,.13,0,.19l-1.04.03ZM325.63,56.53c.46,0,.95.07,1.45.22.62.18,1.04.45,1.34.77.23-.31.56-.56.97-.75.63-.28,1.25-.41,1.89-.37-.09-.81.04-1.66.38-2.54.33-.86.79-1.58,1.38-2.13-.65-.39-1.26-.89-1.82-1.51-.5-.55-.86-1.12-1.09-1.7-.47.39-1.08.64-1.79.76-.8.13-1.57.13-2.3,0-.03.74-.32,1.45-.86,2.11-.44.54-.96.9-1.56,1.07.4.5.7,1.11.88,1.83.21.83.29,1.61.26,2.33.28-.06.58-.09.88-.09ZM324.42,37.35l-1.03-.06c0-.35-.05-.96-.16-1.82-.1-.81-.34-1.56-.72-2.23-.32-.57-.79-.84-1.47-.84v-1.04c.85,0,1.42-.25,1.73-.77.32-.54.38-1.04.17-1.54l-.3-.72h.78c.52,0,.97-.18,1.37-.55.39-.36.58-.79.58-1.3v-1.81l.96,1.54c.46.73,1.22,1.12,2.34,1.19,1.12.07,1.92-.23,2.47-.91l1.29-1.61-.37,2.03c-.03.17-.09.59.08.71.1.07.26.02.49-.16l1.06-.79-.24,1.3c-.09.5,0,1.08.26,1.72.25.63.61,1.08,1.06,1.35l.96.58-1.07.36c-.54.18-.94.52-1.23,1.03-.3.52-.4,1.01-.31,1.49l.18.99-.91-.42c-.68-.32-1.46-.28-2.36.13-.84.38-1.17.88-1.09,1.64l-1.02.17c-.13-.59-.44-.95-.97-1.14-.58-.2-1.12-.17-1.65.1-.5.25-.78.71-.87,1.4ZM326.2,34.69c.35,0,.71.06,1.07.19.36.12.66.31.91.54.25-.44.69-.86,1.41-1.18.87-.39,1.7-.51,2.46-.37.05-.46.2-.92.46-1.38.26-.47.61-.84,1.02-1.12-.33-.35-.59-.78-.8-1.29-.2-.49-.32-.96-.35-1.4-.4.05-.69-.09-.86-.22-.16-.12-.32-.29-.43-.56-.67.42-1.5.6-2.49.54-.99-.06-1.8-.35-2.42-.84-.15.35-.38.66-.68.95-.42.4-.89.65-1.42.77.09.6-.05,1.22-.42,1.83-.21.36-.5.64-.85.85.24.2.44.46.61.76.44.79.72,1.67.84,2.6,0,.02,0,.04,0,.06.16-.15.35-.27.56-.38.45-.22.91-.34,1.38-.34Z"/>
    </g>
    <g>
      <path class="cls-3" d="M377.41,68.92c-.27.82-.78,1.35-1.52,1.6s-1.5.23-2.29-.04c-.79-.27-1.42-.72-1.89-1.35-.46-.63-.56-1.35-.29-2.17-.49.44-1.15.46-1.97.08-.82-.38-1.65-.98-2.5-1.8-.85-.82-1.59-1.73-2.21-2.74-.63-1.01-1.04-1.95-1.23-2.83-.19-.87-.04-1.5.45-1.88-1.47.22-2.53-.01-3.15-.7-.63-.68-.75-1.45-.37-2.29.38-.85,1.31-1.38,2.79-1.6-.82,0-1.43-.3-1.84-.9-.41-.6-.63-1.3-.66-2.09-.03-.79.16-1.5.57-2.13.41-.63,1.02-.94,1.84-.94-.87-.16-1.46-.66-1.76-1.47-.3-.82-.36-1.71-.16-2.66.19-.96.57-1.76,1.15-2.42.57-.66,1.3-.9,2.17-.74-.93-.6-1.45-1.31-1.56-2.13s.04-1.54.45-2.17c.41-.63,1.01-1.04,1.8-1.23.79-.19,1.65.01,2.58.61-.49-.71-.63-1.41-.41-2.09.22-.68.63-1.23,1.23-1.64.6-.41,1.26-.59,1.97-.53.71.05,1.31.44,1.8,1.15-.38-1.15-.36-2.01.08-2.58.44-.57,1-.78,1.68-.61.68.16,1.24.82,1.68,1.97-.16-.87-.03-1.56.41-2.05.44-.49,1-.81,1.68-.94.68-.14,1.32-.04,1.93.29.6.33.98.9,1.15,1.72,0-.82.4-1.43,1.19-1.84.79-.41,1.71-.61,2.74-.61s1.95.21,2.74.61c.79.41,1.19,1.02,1.19,1.84.22-1.15.75-1.94,1.6-2.38.85-.44,1.73-.56,2.66-.37.93.19,1.68.66,2.25,1.39.57.74.75,1.71.53,2.91.38-.76.94-1.17,1.68-1.23.74-.05,1.45.1,2.13.45.68.36,1.17.86,1.47,1.52.3.66.23,1.37-.2,2.13.87-.6,1.75-.72,2.62-.37.87.36,1.6.94,2.17,1.76.57.82.89,1.71.94,2.66.05.96-.36,1.71-1.23,2.25.93-.05,1.71.27,2.33.98.63.71,1.09,1.63,1.39,2.74.3,1.12.42,2.27.37,3.44-.05,1.17-.32,2.17-.78,2.99-.46.82-1.16,1.28-2.09,1.39,1.15.22,1.91.78,2.29,1.68.38.9.48,1.89.29,2.95-.19,1.06-.66,1.95-1.39,2.66-.74.71-1.65.96-2.74.74.82.55,1.27,1.19,1.35,1.93s-.1,1.41-.53,2.01c-.44.6-1.01,1-1.72,1.19-.71.19-1.47.01-2.29-.53.49.77.63,1.49.41,2.17-.22.68-.64,1.22-1.27,1.6-.63.38-1.31.55-2.05.49-.74-.05-1.32-.46-1.76-1.23.33,1.04.16,1.86-.49,2.46-.66.6-1.41.83-2.25.7-.85-.14-1.43-.75-1.76-1.84.22,1.31-.03,2.23-.74,2.75-.71.52-1.49.61-2.34.29-.85-.33-1.35-1.12-1.52-2.38.11,2.35-.71,3.52-2.46,3.52s-4.54-1.37-8.36-4.1ZM390.36,56.05c-.6-.05-1.02-.49-1.27-1.31s-.36-1.79-.33-2.91c.03-1.12.18-2.12.45-2.99.27-.87.68-1.39,1.23-1.56-.55,0-1.08-.38-1.6-1.15-.52-.76-.93-1.65-1.23-2.66-.3-1.01-.42-1.9-.37-2.66-.49.44-1.09.6-1.8.49-.71-.11-1.26-.46-1.64-1.06-.05.44-.22.71-.49.82-.27.11-.57.05-.9-.16.16.77.12,1.65-.12,2.66-.25,1.01-.61,1.9-1.11,2.66-.49.77-1.04,1.15-1.64,1.15.66.16,1.08.63,1.27,1.39.19.77.15,1.52-.12,2.25-.27.74-.77,1.11-1.47,1.11.6-.11,1.13.2,1.6.94s.79,1.6.98,2.58c.19.98.2,1.83.04,2.54.76-.44,1.91-.68,3.44-.74,1.53-.05,3.22-.52,5.08-1.39Z"/>
      <path class="cls-1" d="M385.77,73.53c-1.79,0-4.46-1.25-8.14-3.83-.36.63-.88,1.07-1.57,1.3-.85.28-1.73.27-2.63-.04-.89-.31-1.61-.82-2.13-1.53-.37-.5-.55-1.04-.54-1.63-.4.05-.91-.02-1.51-.3-.87-.4-1.76-1.04-2.64-1.9-.88-.85-1.65-1.8-2.29-2.84-.66-1.05-1.09-2.06-1.3-2.99-.13-.58-.11-1.03-.02-1.4h-.02c-1.12,0-1.97-.32-2.54-.94-.77-.83-.93-1.82-.46-2.86.28-.61.78-1.09,1.5-1.43-.19-.16-.37-.35-.52-.57-.46-.68-.72-1.48-.75-2.36-.03-.89.19-1.71.66-2.43.22-.33.49-.6.81-.79-.34-.3-.6-.69-.78-1.16-.33-.91-.39-1.9-.19-2.94.21-1.04.63-1.94,1.27-2.66.36-.41.78-.69,1.24-.84-.42-.49-.68-1.03-.75-1.62-.13-.94.05-1.79.53-2.52.48-.74,1.2-1.23,2.12-1.45.55-.13,1.11-.11,1.71.07-.06-.4-.03-.8.09-1.2.25-.79.73-1.44,1.43-1.91.7-.48,1.47-.69,2.3-.62.35.03.67.12.98.27,0-.6.15-1.1.46-1.5.56-.74,1.32-1.02,2.21-.8.43.1.82.35,1.17.74.1-.24.24-.47.42-.66.51-.57,1.17-.95,1.96-1.11.8-.16,1.57-.04,2.28.34.33.18.61.42.83.72.24-.34.58-.62,1.02-.85.86-.45,1.87-.67,2.98-.67s2.12.23,2.98.67c.4.21.72.46.96.76.33-.57.78-1,1.35-1.3.95-.49,1.96-.63,3.01-.42,1.05.22,1.91.75,2.56,1.58.4.51.63,1.12.71,1.81.31-.19.67-.3,1.06-.33.83-.06,1.64.11,2.41.51.79.41,1.36,1,1.71,1.76.2.44.27.89.21,1.36.64-.17,1.28-.12,1.93.14.96.39,1.77,1.05,2.4,1.94.63.9.98,1.88,1.04,2.93.04.72-.15,1.37-.56,1.9.58.18,1.09.52,1.53,1.02.68.77,1.19,1.76,1.51,2.95.31,1.17.44,2.38.38,3.6-.06,1.25-.34,2.33-.84,3.22-.28.49-.62.87-1.04,1.14.58.35,1,.84,1.27,1.47.42.99.53,2.09.32,3.25-.21,1.17-.73,2.16-1.54,2.94-.51.49-1.1.8-1.76.91.29.4.47.85.52,1.32.1.87-.12,1.66-.63,2.37-.51.7-1.18,1.16-2.01,1.38-.47.13-.95.12-1.45,0,.08.44.06.88-.08,1.3-.26.8-.76,1.44-1.49,1.88-.72.44-1.51.63-2.36.57-.39-.03-.76-.14-1.08-.33-.11.65-.45,1.11-.78,1.42-.78.71-1.68.99-2.69.83-.46-.07-.86-.26-1.2-.55-.15.57-.46,1.02-.91,1.36-.86.63-1.82.75-2.83.35-.41-.16-.76-.4-1.04-.73-.15.45-.36.82-.65,1.11-.51.53-1.22.8-2.1.8ZM377.14,68.09l.57.41c3.72,2.65,6.43,4,8.06,4,.6,0,1.05-.16,1.35-.48.44-.47.64-1.31.59-2.5l1.03-.09c.14,1.06.53,1.7,1.19,1.96.68.26,1.27.2,1.84-.22.54-.4.72-1.13.53-2.24l1.01-.23c.27.89.71,1.38,1.35,1.48.69.11,1.28-.07,1.82-.57.32-.29.7-.81.35-1.92l-1.46-4.63,2.4,4.22c.35.61.79.93,1.35.97.63.05,1.2-.09,1.74-.42.52-.32.86-.75,1.04-1.31.17-.53.05-1.1-.35-1.73l-1.34-2.09,2.07,1.38c.69.46,1.31.61,1.87.46.6-.16,1.07-.49,1.44-.99.36-.5.5-1.04.44-1.65-.06-.58-.43-1.09-1.12-1.55l-2.18-1.46,2.57.52c.92.18,1.67-.01,2.28-.6.65-.63,1.07-1.43,1.24-2.38.17-.96.09-1.85-.25-2.66-.31-.74-.94-1.19-1.91-1.37l-3.31-.63,3.35-.39c.76-.09,1.32-.46,1.7-1.13.42-.74.66-1.67.71-2.76.05-1.12-.07-2.22-.35-3.28-.28-1.04-.71-1.89-1.28-2.54-.52-.59-1.15-.85-1.92-.81l-2.02.12,1.72-1.07c.72-.45,1.03-1.02.99-1.79-.05-.85-.33-1.66-.85-2.4-.52-.74-1.16-1.26-1.94-1.58-.71-.29-1.41-.18-2.13.32l-1.87,1.29,1.12-1.97c.35-.62.41-1.16.18-1.66-.25-.55-.66-.97-1.24-1.27-.6-.31-1.21-.44-1.85-.39-.55.04-.95.34-1.25.94l-1.62,3.26.65-3.58c.19-1.06.05-1.88-.43-2.5-.5-.64-1.14-1.04-1.95-1.2-.81-.17-1.57-.06-2.32.32-.7.36-1.14,1.02-1.32,2.01l-1.03-.1c0-.62-.29-1.06-.91-1.38-.72-.37-1.56-.56-2.51-.56s-1.79.19-2.51.56c-.62.32-.91.76-.91,1.38l-1.03.1c-.13-.67-.42-1.11-.89-1.37-.5-.27-1.02-.35-1.58-.23-.58.12-1.03.37-1.39.78-.33.37-.42.89-.29,1.61l-.99.28c-.37-.97-.81-1.53-1.32-1.65-.48-.11-.84.02-1.15.42-.33.43-.33,1.13,0,2.1l1.15,3.44-2.07-2.98c-.4-.58-.87-.88-1.42-.93-.59-.04-1.13.1-1.63.44-.51.35-.84.79-1.03,1.37-.17.53-.06,1.06.34,1.64l1.49,2.15-2.2-1.42c-.8-.52-1.54-.7-2.18-.55-.66.16-1.15.49-1.49,1.01-.34.53-.46,1.12-.37,1.82.09.67.52,1.24,1.33,1.76l2.21,1.43-2.59-.48c-.7-.13-1.23.05-1.69.57-.51.58-.86,1.32-1.03,2.18-.17.86-.12,1.66.14,2.38.24.65.67,1.01,1.37,1.14l-.1,1.03c-.65,0-1.09.22-1.41.71-.35.54-.51,1.14-.49,1.83.02.69.21,1.3.57,1.82.31.46.76.67,1.41.67l.08,1.03c-1.28.19-2.09.63-2.39,1.3-.3.65-.21,1.2.28,1.73.5.55,1.41.73,2.7.54l1.95-.29-1.56,1.21c-.12.09-.48.37-.26,1.36.18.81.57,1.71,1.16,2.66.6.97,1.32,1.86,2.13,2.65.8.78,1.59,1.35,2.36,1.71.83.39,1.2.19,1.4,0l1.45-1.29-.62,1.84c-.22.65-.15,1.21.21,1.7.4.55.94.93,1.64,1.17.69.24,1.33.25,1.96.04.58-.19.97-.61,1.19-1.27l.22-.67ZM381.07,59.22l.26-1.15c.15-.63.13-1.42-.04-2.33-.18-.91-.49-1.72-.91-2.4-.35-.56-.65-.69-.85-.72-.11.01-.21.02-.31.02l-.09-1.03c.1-.02.23-.04.34-.03.27-.05.55-.23.75-.75.24-.64.27-1.28.11-1.95-.19-.76-.6-.94-.89-1.02l-4.09-1.02h4.22c.41,0,.82-.31,1.2-.91.46-.71.81-1.55,1.04-2.5.23-.93.27-1.75.12-2.43l-.27-1.25,1.06.71c.26.17.38.13.42.11.11-.04.16-.3.17-.4l.18-1.43.77,1.22c.3.47.72.74,1.28.83.56.09,1.01-.03,1.38-.37l.95-.85-.09,1.27c-.05.7.07,1.53.35,2.48.28.96.67,1.8,1.16,2.52.29.42.72.92,1.17.92h3.53l-3.38,1.02c-.37.11-.67.52-.88,1.21-.26.82-.4,1.78-.43,2.85-.03,1.06.08,1.98.31,2.75.27.9.67.93.82.94l1.91.17-1.73.82c-1.91.9-3.69,1.39-5.28,1.44-1.44.05-2.51.28-3.2.67l-1.03.59ZM380.65,52.06c.2.18.41.41.6.72.5.79.85,1.72,1.05,2.76.13.65.18,1.26.16,1.81.74-.24,1.67-.38,2.8-.42,1.19-.04,2.5-.35,3.92-.92-.23-.25-.44-.61-.59-1.11-.26-.87-.38-1.9-.35-3.07.03-1.16.19-2.22.47-3.13.16-.52.37-.94.63-1.25-.33-.23-.64-.56-.94-1.01-.55-.8-.98-1.75-1.3-2.81-.2-.68-.33-1.32-.38-1.91-.42.15-.88.18-1.38.11-.54-.08-1.01-.29-1.4-.61-.14.17-.31.27-.46.33-.13.05-.31.07-.48.09.03.63-.05,1.31-.23,2.05-.26,1.06-.65,2.01-1.17,2.82-.27.43-.57.75-.89.98.25.27.46.64.59,1.15.22.86.17,1.73-.14,2.56-.14.38-.32.66-.53.87Z"/>
    </g>
    <g>
      <path class="cls-3" d="M424.69,76.87c-.87-.38-1.43-.96-1.68-1.72s-.23-1.53.04-2.29.74-1.38,1.39-1.84c.66-.46,1.39-.59,2.21-.37-1.15-.44-1.79-.98-1.93-1.64-.14-.66.12-1.15.78-1.47-.66-.38-.93-.96-.82-1.72.11-.76.74-1.39,1.89-1.88-1.04.44-1.95.45-2.74.04-.79-.41-1.37-1.04-1.72-1.88-.36-.85-.4-1.69-.12-2.54.27-.85.93-1.49,1.97-1.93-.93.38-1.78.33-2.54-.16-.77-.49-1.34-1.2-1.72-2.13-.38-.93-.49-1.83-.33-2.7.16-.87.71-1.53,1.64-1.97-.82.38-1.64.16-2.46-.66s-1.5-1.86-2.05-3.11c-.55-1.26-.82-2.46-.82-3.6s.41-1.89,1.23-2.21c-.82.33-1.63.14-2.42-.57-.79-.71-1.45-1.67-1.97-2.87-.52-1.2-.77-2.35-.74-3.44.03-1.09.45-1.8,1.27-2.13-1.64-.76-2.31-1.45-2.01-2.05.3-.6,1.27-.52,2.91.25,0-1.09.48-1.9,1.43-2.42.96-.52,2.08-.78,3.36-.78s2.42.26,3.4.78c.98.52,1.47,1.32,1.47,2.42.54-1.04,1.24-1.56,2.09-1.56s1.49.36,1.93,1.07c.44.71.35,1.59-.25,2.62,1.31-.49,2.28-.56,2.91-.2.63.36.81.87.53,1.56-.27.68-1.07,1.24-2.38,1.68.6-.22,1.23,0,1.88.66s1.24,1.52,1.76,2.58c.52,1.07.93,2.19,1.23,3.36.3,1.17.41,2.21.33,3.11-.08.9-.42,1.46-1.02,1.68.55-.16,1.07-.11,1.56.16.49.27.93.68,1.31,1.23.66-.71,1.53-.85,2.62-.41-1.09-.38-1.71-.93-1.84-1.64-.14-.71.08-1.27.66-1.68.57-.41,1.38-.42,2.42-.04-.66-.27-1.04-.89-1.15-1.84-.11-.96-.01-2.05.29-3.28.3-1.23.74-2.42,1.31-3.56.57-1.15,1.21-2.05,1.93-2.7.71-.66,1.39-.85,2.05-.57-.27-.93-.07-1.73.61-2.42.68-.68,1.56-1.16,2.62-1.43,1.06-.27,2.06-.3,2.99-.08.93.22,1.53.79,1.8,1.72,0-1.09.42-1.82,1.27-2.17.85-.35,1.71-.35,2.58,0,.87.36,1.31,1.08,1.31,2.17.76.16,1.24.73,1.43,1.68.19.96.16,2.01-.08,3.15-.25,1.15-.67,2.1-1.27,2.87-.6.77-1.28,1.06-2.05.9,1.15.49,1.8,1.3,1.97,2.42.16,1.12,0,2.25-.49,3.4-.49,1.15-1.2,2.04-2.13,2.66-.93.63-1.97.7-3.11.21,1.09.49,1.68,1.13,1.76,1.93s-.19,1.45-.82,1.97c-.63.52-1.49.53-2.58.04.76.33,1.16,1.01,1.19,2.05.03,1.04-.19,2.1-.66,3.2-.46,1.09-1.08,1.98-1.84,2.66-.76.68-1.53.86-2.29.53.66.27,1.01.87,1.07,1.8.05.93-.1,1.99-.45,3.19-.36,1.2-.83,2.34-1.43,3.4-.6,1.06-1.27,1.9-2.01,2.5s-1.43.76-2.09.49c.87.38,1.35,1.07,1.43,2.05.08.98-.11,2.01-.57,3.07-.46,1.07-1.09,1.93-1.89,2.58-.79.66-1.63.79-2.5.41.98.6,1.57,1.31,1.76,2.13s.08,1.56-.33,2.21c-.41.66-1.03,1.08-1.84,1.27-.82.19-1.72-.04-2.7-.7,0,.87-.49,1.53-1.47,1.97-.98.44-2.13.66-3.44.66s-2.46-.22-3.44-.66c-.98-.44-1.48-1.09-1.48-1.97,0,1.2-.15,2.05-.45,2.54-.3.49-.56.52-.78.08-.22-.44-.26-1.46-.12-3.07.14-1.61.61-3.95,1.43-7.01Z"/>
      <path class="cls-1" d="M423.72,87.77s-.02,0-.04,0c-.22-.01-.53-.12-.77-.59-.17-.34-.37-1.06-.18-3.35.13-1.56.58-3.81,1.34-6.69-.79-.44-1.31-1.06-1.56-1.84-.28-.87-.26-1.76.05-2.63.31-.86.84-1.57,1.58-2.09.23-.16.47-.29.72-.38-.34-.32-.56-.69-.64-1.09-.13-.63.02-1.18.43-1.6-.42-.46-.58-1.06-.48-1.77.05-.36.19-.69.4-.99-.34-.05-.67-.16-.99-.32-.9-.46-1.56-1.19-1.96-2.14-.4-.96-.45-1.94-.14-2.9.13-.4.33-.76.59-1.08-.33-.08-.65-.22-.96-.42-.86-.55-1.5-1.35-1.92-2.37-.42-1.02-.54-2.03-.36-3,.09-.5.29-.93.58-1.31-.4-.14-.82-.41-1.26-.85-.86-.86-1.59-1.97-2.16-3.27-.57-1.31-.86-2.6-.86-3.81,0-.69.14-1.22.35-1.62-.43-.11-.89-.35-1.37-.78-.84-.76-1.55-1.78-2.1-3.05-.55-1.27-.81-2.5-.78-3.66.03-1,.35-1.64.77-2.06-.85-.48-1.33-.94-1.5-1.43-.11-.31-.09-.62.06-.91.53-1.05,1.97-.67,2.93-.28.19-.92.73-1.62,1.63-2.11,1.03-.56,2.24-.84,3.61-.84s2.59.28,3.64.84c.73.38,1.23.92,1.51,1.59.52-.53,1.12-.79,1.81-.79,1.02,0,1.83.45,2.37,1.31.38.61.45,1.3.24,2.07.93-.21,1.67-.15,2.24.17.85.48,1.13,1.28.76,2.2-.2.5-.59.93-1.18,1.3.18.12.38.28.57.48.69.69,1.32,1.61,1.86,2.72.53,1.09.96,2.26,1.27,3.46.31,1.23.43,2.33.34,3.29-.04.46-.14.82-.28,1.11.19.05.37.13.55.23.41.23.79.54,1.13.94.18-.12.38-.23.61-.3-.21-.27-.35-.57-.41-.9-.17-.91.12-1.67.86-2.2.37-.26.8-.4,1.3-.41-.12-.29-.2-.62-.24-.99-.12-1.01-.02-2.17.3-3.46.31-1.26.76-2.5,1.35-3.67.6-1.2,1.29-2.16,2.04-2.85.66-.61,1.26-.82,1.77-.83-.03-.8.26-1.53.88-2.15.75-.75,1.71-1.27,2.86-1.57,1.14-.29,2.23-.32,3.24-.08.59.14,1.08.41,1.46.79.31-.66.83-1.02,1.3-1.22.97-.41,1.97-.41,2.98,0,.68.28,1.49.9,1.62,2.26.58.24,1.2.78,1.44,1.96.2,1.03.18,2.16-.08,3.37-.26,1.22-.72,2.26-1.37,3.08-.34.43-.68.71-1.02.88.57.53.92,1.22,1.04,2.04.18,1.21,0,2.45-.53,3.68-.53,1.24-1.31,2.21-2.32,2.89-.48.32-.98.52-1.51.59.22.32.35.67.38,1.06.1.96-.25,1.79-1,2.42-.4.33-.88.51-1.41.52.12.32.2.7.21,1.16.03,1.11-.21,2.26-.7,3.41-.49,1.16-1.16,2.12-1.98,2.85-.47.42-.92.65-1.33.75.14.31.24.69.27,1.17.06.98-.1,2.12-.47,3.37-.36,1.23-.86,2.41-1.48,3.51-.63,1.12-1.35,2.01-2.13,2.65-.33.27-.66.46-.98.59.29.42.47.92.52,1.51.09,1.06-.12,2.18-.61,3.32-.5,1.13-1.18,2.07-2.03,2.77-.4.33-.82.55-1.26.66.35.42.58.87.69,1.36.22.95.09,1.83-.39,2.61-.48.77-1.21,1.28-2.17,1.5-.76.18-1.58.05-2.44-.38-.2.58-.67,1.18-1.65,1.62-1.05.47-2.28.7-3.65.7s-2.61-.24-3.65-.7c-.38-.17-.68-.36-.92-.57-.09.38-.2.69-.35.94-.1.16-.39.64-.89.64ZM425.9,71.05c-.42,0-.8.13-1.16.38-.57.4-.96.93-1.2,1.6-.24.66-.25,1.3-.04,1.96.2.62.66,1.08,1.39,1.4l.41.18-.12.43c-.81,3.02-1.29,5.34-1.42,6.92-.13,1.52-.07,2.24,0,2.57.15-.32.32-.95.32-2.17h1.04c0,.42.12,1.03,1.17,1.49.91.41,2,.61,3.23.61s2.32-.21,3.23-.61c1.04-.46,1.17-1.07,1.17-1.49v-.97l.81.54c.86.57,1.63.78,2.3.62.69-.16,1.18-.5,1.52-1.04.34-.54.42-1.13.26-1.82-.16-.68-.67-1.28-1.53-1.81l.48-.92c.69.3,1.32.2,1.96-.33.72-.6,1.31-1.41,1.74-2.39.43-.98.61-1.93.53-2.82-.07-.8-.42-1.31-1.12-1.62l.41-.95c.17.07.7.29,1.56-.41.68-.56,1.32-1.35,1.88-2.35.58-1.03,1.04-2.13,1.39-3.29.34-1.14.48-2.15.43-3.02-.06-.94-.44-1.22-.73-1.35,0,0-.01,0-.02,0l.4-.96s.01,0,.02,0c.36.15.93.26,1.73-.45.71-.63,1.28-1.46,1.71-2.48.43-1.02.64-2.02.61-2.98-.03-1.05-.47-1.4-.83-1.56-.02,0-.04-.02-.06-.02l.42-.95s.04.02.06.03c1.31.57,1.82.15,1.99,0,.5-.41.7-.89.63-1.51-.06-.6-.54-1.09-1.46-1.51l.42-.95c.99.42,1.84.37,2.62-.16.84-.57,1.5-1.39,1.94-2.44.45-1.05.6-2.1.46-3.12-.14-.94-.68-1.6-1.66-2.02l.31-.98c.35.08.9.09,1.53-.71.55-.7.94-1.59,1.17-2.66.23-1.07.26-2.06.08-2.94-.2-.99-.69-1.2-1.03-1.27l-.41-.09v-.42c0-.88-.31-1.42-.99-1.69-.75-.3-1.46-.3-2.18,0-.41.17-.95.53-.95,1.69v3.57l-1.02-3.42c-.22-.75-.68-1.19-1.43-1.36-.84-.2-1.77-.17-2.74.08-.97.25-1.77.69-2.38,1.3-.55.55-.7,1.16-.48,1.9l.31,1.05-1.01-.42c-.29-.12-.76-.2-1.5.48-.66.61-1.27,1.47-1.81,2.56-.56,1.11-.98,2.27-1.27,3.45-.29,1.17-.38,2.21-.27,3.1.13,1.13.66,1.35.83,1.42l-.38.97c-.86-.32-1.52-.33-1.94-.02-.41.29-.55.65-.45,1.16.09.47.53.87,1.3,1.17.07.02.15.05.23.08l-.36.97c-.08-.03-.15-.05-.22-.08-1.04-.35-1.55.03-1.85.35l-.44.47-.37-.53c-.33-.48-.72-.84-1.14-1.07-.37-.2-.74-.24-1.16-.12l-.32-.98c.15-.05.59-.21.68-1.24.08-.84-.03-1.83-.31-2.94-.29-1.13-.69-2.23-1.19-3.26-.5-1.01-1.05-1.83-1.66-2.44-.66-.66-1.08-.61-1.27-.56-.03,0-.05.02-.08.03l-.34-.98s.05-.02.08-.03c1.1-.38,1.79-.84,1.99-1.36.17-.44.09-.69-.31-.91-.48-.27-1.33-.19-2.47.24l-1.36.51.73-1.26c.5-.87.58-1.55.25-2.09-.34-.56-.82-.82-1.48-.82s-1.18.42-1.63,1.28l-.98,1.86v-2.1c0-.9-.38-1.53-1.2-1.96-.9-.48-1.97-.72-3.16-.72s-2.24.24-3.11.72c-.79.43-1.16,1.05-1.16,1.96v.81l-.74-.34c-1.58-.74-2.15-.64-2.23-.48-.02.03-.02.06,0,.1.04.12.29.55,1.77,1.24l1.09.51-1.11.45c-.39.16-.92.5-.95,1.66-.03,1.01.21,2.1.69,3.22.49,1.13,1.1,2.03,1.84,2.69.65.58,1.24.73,1.88.48l.38.96c-.39.15-.9.5-.9,1.73,0,1.07.26,2.22.78,3.4.51,1.19,1.17,2.18,1.94,2.95.87.87,1.49.73,1.87.55l.44.94c-.78.36-1.22.89-1.35,1.59-.14.77-.04,1.58.3,2.41.34.82.85,1.46,1.52,1.89.62.4,1.29.44,2.06.12l.4.96c-.9.38-1.45.9-1.67,1.61-.24.73-.2,1.45.11,2.18.31.74.79,1.27,1.48,1.62.65.34,1.41.32,2.3-.06l.41.95c-.96.41-1.49.91-1.58,1.48-.08.55.1.92.57,1.2l.83.48-.86.43c-.55.27-.57.6-.5.91.12.58.94,1.01,1.6,1.26l-.32.99c-.22-.06-.42-.09-.62-.09Z"/>
    </g>
  </g>
  <g>
    <path class="cls-2" d="M186.74,128.08v-14.33c0-5.78-3.48-9.07-7.99-9.07-4.98,0-8.04,3.81-8.04,8.83v14.57h-3.29v-34.78h3.29v12.36h.09c1.64-2.49,4.56-3.95,7.9-3.95,7.1,0,11.33,4.89,11.33,12.03v14.33h-3.29Z"/>
    <path class="cls-2" d="M198.36,116.43c.28,5.12,4.98,9.31,9.96,9.31,4,0,7.8-2.3,9.21-6.06h3.48c-1.97,5.55-7.14,9.02-12.64,9.02-7.28,0-13.39-5.92-13.39-13.44s6.16-13.54,13.35-13.54c7.71,0,13.49,6.63,13.49,13.72,0,.33-.05.66-.05.99h-23.4ZM218.42,113.47c-.94-5.17-5.03-8.79-10.1-8.79-4.79,0-9.07,3.48-9.96,8.79h20.07Z"/>
    <path class="cls-2" d="M249.63,128.08v-4.51h-.09c-2.11,3.2-5.83,5.12-10.01,5.12-7.71,0-13.82-5.83-13.82-13.54s6.3-13.44,13.82-13.44c4.28,0,7.94,1.93,10.01,5.17h.09v-4.51h3.29v25.71h-3.29ZM249.82,115.25c0-5.73-4.51-10.57-10.34-10.57s-10.48,4.51-10.48,10.62,4.46,10.43,10.53,10.43c5.73,0,10.29-4.7,10.29-10.48Z"/>
    <path class="cls-2" d="M258.89,128.08v-34.78h3.29v34.78h-3.29Z"/>
    <path class="cls-2" d="M271.3,128.08v-22.75h-5.4v-2.96h5.4v-9.07h3.29v9.07h6.16v2.96h-6.16v22.75h-3.29Z"/>
    <path class="cls-2" d="M303.4,128.08v-14.33c0-5.78-3.48-9.07-7.99-9.07-4.98,0-8.04,3.81-8.04,8.83v14.57h-3.29v-34.78h3.29v12.36h.09c1.64-2.49,4.56-3.95,7.9-3.95,7.1,0,11.33,4.89,11.33,12.03v14.33h-3.29Z"/>
  </g>
</svg>