<?xml version="1.0" encoding="UTF-8"?>
<svg id="Layer_1" data-name="Layer 1" xmlns="http://www.w3.org/2000/svg" viewBox="0 0 474.35 196.49">
  <defs>
    <style>
      .cls-1 {
        fill: #fee3c9;
        stroke: #010101;
        stroke-miterlimit: 10;
        stroke-width: 1.04px;
      }

      .cls-2 {
        fill: #231f20;
        font-family: ITCAvantGardePro-Bk, 'ITC Avant Garde Gothic Pro';
        font-size: 47px;
      }
    </style>
  </defs>
  <g>
    <path class="cls-1" d="M20.57,82.83c-1.37,0-2.39-.31-3.07-.94-.68-.63-1.02-1.35-1.02-2.17s.34-1.53,1.02-2.13c.68-.6,1.71-.9,3.07-.9-1.86,0-3.1-.3-3.73-.9-.63-.6-.63-1.2,0-1.8.63-.6,1.87-.9,3.73-.9-1.37,0-2.38-.31-3.03-.94s-.98-1.35-.98-2.17.33-1.54.98-2.17c.66-.63,1.67-.94,3.03-.94-1.58,0-2.77-.48-3.56-1.43-.79-.96-1.19-2.06-1.19-3.32s.4-2.36,1.19-3.32c.79-.95,1.98-1.43,3.56-1.43-1.42,0-2.49-.5-3.2-1.52-.71-1.01-1.07-2.18-1.07-3.52s.35-2.51,1.07-3.52c.71-1.01,1.77-1.52,3.2-1.52-1.31-.05-2.28-.48-2.91-1.27-.63-.79-.94-1.71-.94-2.74s.33-1.95.98-2.74c.66-.79,1.64-1.19,2.95-1.19,0-1.64.38-2.85,1.15-3.65.76-.79,1.64-1.19,2.62-1.19s1.86.4,2.62,1.19c.76.79,1.15,2.01,1.15,3.65,0-1.53.37-2.68,1.11-3.44.74-.76,1.57-1.15,2.5-1.15s1.76.38,2.5,1.15c.74.77,1.11,1.91,1.11,3.44,1.69-.27,2.87-.1,3.52.53.66.63.78,1.35.37,2.17s-1.46,1.37-3.15,1.64c1.86,0,3.18.51,3.97,1.52.79,1.01,1.05,2.1.78,3.28-.27,1.17-1.07,2.03-2.38,2.58.98.16,1.79.64,2.42,1.43.63.79,1,1.65,1.11,2.58,1.09-.66,2.36-.93,3.81-.82,1.45.11,2.61.63,3.48,1.56.05-.93.44-1.53,1.15-1.8-.55-.98-.51-2.02.12-3.11.63-1.09,1.87-1.64,3.73-1.64-1.64,0-2.86-.49-3.65-1.47-.79-.98-1.19-2.13-1.19-3.44s.4-2.46,1.19-3.44c.79-.98,2.01-1.47,3.65-1.47,0-1.37.38-2.4,1.15-3.11.76-.71,1.64-1.08,2.62-1.11.98-.03,1.87.32,2.66,1.03.79.71,1.19,1.75,1.19,3.11,0-1.58.3-2.79.9-3.61.6-.82,1.28-1.23,2.05-1.23s1.45.41,2.05,1.23c.6.82.9,2.02.9,3.61.98-.22,1.83.01,2.54.7.71.68,1.2,1.57,1.47,2.66.27,1.09.26,2.12-.04,3.07-.3.96-.94,1.57-1.93,1.84,1.58,0,2.76.53,3.52,1.6.76,1.06,1.15,2.32,1.15,3.77s-.38,2.7-1.15,3.77c-.77,1.07-1.94,1.6-3.52,1.6,1.64,0,2.85.49,3.65,1.47.79.98,1.19,2.13,1.19,3.44s-.4,2.46-1.19,3.44c-.79.98-2.01,1.47-3.65,1.47,1.64,0,2.85.52,3.65,1.56.79,1.04,1.19,2.25,1.19,3.65s-.4,2.62-1.19,3.69c-.79,1.07-2.01,1.6-3.65,1.6,1.75,0,2.91.26,3.48.78.57.52.57,1.05,0,1.6-.57.55-1.73.82-3.48.82,1.26,0,2.2.36,2.83,1.06.63.71.94,1.52.94,2.42s-.32,1.69-.94,2.38c-.63.68-1.57,1.02-2.83,1.02.49,1.09.52,2.06.08,2.91-.44.85-1.09,1.46-1.97,1.84-.87.38-1.76.46-2.66.25-.9-.22-1.6-.87-2.09-1.97.05,1.42-.37,2.5-1.27,3.24-.9.74-1.94,1.12-3.11,1.15-1.18.03-2.21-.3-3.11-.98-.9-.68-1.38-1.73-1.43-3.15-1.09,0-1.94-.49-2.54-1.47-.6-.98-.97-2.14-1.11-3.48-.14-1.34-.01-2.62.37-3.85.38-1.23,1.04-2.09,1.97-2.58-1.69.27-3.02-.18-3.97-1.35-.96-1.17-1.32-2.44-1.11-3.81-2.02.66-3.99.63-5.9-.08.11.66-.04,1.23-.45,1.72-.41.49-1,.79-1.76.9.98.71,1.17,1.54.57,2.5-.6.96-2.02,1.43-4.26,1.43,2.13,0,3.54.3,4.22.9.68.6.68,1.2,0,1.8-.68.6-2.09.9-4.22.9,1.31,0,2.31.3,2.99.9.68.6,1.02,1.31,1.02,2.13s-.34,1.54-1.02,2.17c-.68.63-1.68.94-2.99.94.05,2.08-.16,3.45-.66,4.14-.49.68-1,.68-1.52,0-.52-.68-.81-2.03-.86-4.06,0,1.31-.3,2.28-.9,2.91-.6.63-1.28.94-2.05.94s-1.45-.32-2.05-.94c-.6-.63-.9-1.6-.9-2.91,0,2.13-.3,3.55-.9,4.26-.6.71-1.2.71-1.8,0-.6-.71-.9-2.13-.9-4.26,0,1.42-.16,2.45-.49,3.07-.33.63-.7.67-1.11.12-.41-.55-.77-1.79-1.07-3.73-.3-1.94-.42-4.74-.37-8.4Z"/>
    <path class="cls-1" d="M90.38,91.84c-.6.71-1.34.98-2.21.82-.87-.16-1.68-.57-2.42-1.23-.74-.66-1.24-1.41-1.52-2.25-.27-.85-.11-1.6.49-2.25-.98.38-1.82.42-2.5.12-.68-.3-1.16-.76-1.43-1.39-.27-.63-.26-1.3.04-2.01.3-.71.94-1.26,1.93-1.64-1.15.11-2.04-.13-2.66-.74-.63-.6-.98-1.34-1.07-2.21-.08-.87.14-1.67.66-2.38.52-.71,1.35-1.12,2.5-1.23-1.09,0-1.91-.41-2.46-1.23-.55-.82-.82-1.77-.82-2.87s.27-2.05.82-2.87c.55-.82,1.36-1.23,2.46-1.23-1.26,0-2.09-.27-2.5-.82-.41-.54-.41-1.09,0-1.64.41-.54,1.24-.82,2.5-.82-1.37,0-2.28-.35-2.74-1.06-.46-.71-.46-1.42,0-2.13.46-.71,1.38-1.06,2.74-1.06-1.2-.27-2.02-.79-2.46-1.56-.44-.76-.56-1.54-.37-2.34.19-.79.66-1.42,1.39-1.88s1.71-.56,2.91-.29c0-.98.4-1.76,1.19-2.33.79-.57,1.77-.96,2.95-1.15,1.17-.19,2.34-.19,3.48,0,1.15.19,2.12.57,2.91,1.15.79.57,1.19,1.35,1.19,2.33,1.09-.66,2.05-.74,2.87-.25.82.49,1.28,1.22,1.39,2.17.11.96-.38,1.76-1.47,2.42.71,0,1.24.33,1.6.98.35.66.53,1.42.53,2.29s-.18,1.64-.53,2.29c-.36.66-.89.98-1.6.98.82,0,1.45.36,1.88,1.06.44.71.66,1.53.66,2.46s-.22,1.76-.66,2.5c-.44.74-1.07,1.11-1.88,1.11.82-.05,1.46.22,1.93.82.46.6.71,1.32.74,2.17.03.85-.15,1.57-.53,2.17.98-.11,2.09.08,3.32.57,1.23.49,2.2,1.12,2.91,1.89.22-.6.56-1.13,1.02-1.6.46-.46.97-.75,1.52-.86-.82-.44-1.11-1.09-.86-1.97.25-.87,1-1.31,2.25-1.31-.77,0-1.35-.49-1.76-1.47s-.61-2.12-.61-3.4.2-2.4.61-3.36c.41-.96,1-1.43,1.76-1.43-1.09,0-1.82-.3-2.17-.9-.36-.6-.36-1.2,0-1.8.35-.6,1.08-.9,2.17-.9-.82-.11-1.41-.52-1.76-1.23-.36-.71-.48-1.5-.37-2.38.11-.87.41-1.62.9-2.25.49-.63,1.17-.89,2.05-.78,0-1.2.31-2.1.94-2.7.63-.6,1.34-.9,2.13-.9s1.5.3,2.13.9c.63.6.94,1.5.94,2.7,0-1.26.35-2.09,1.07-2.5.71-.41,1.42-.41,2.13,0,.71.41,1.07,1.24,1.07,2.5.44-.82,1.01-1.28,1.72-1.39.71-.11,1.38.01,2.01.37.63.36,1.07.88,1.31,1.56.25.68.12,1.43-.37,2.25,1.09,0,1.91.27,2.46.82.55.55.82,1.19.82,1.93s-.27,1.39-.82,1.97c-.55.57-1.37.86-2.46.86,1.36,0,2.27.37,2.7,1.11.44.74.44,1.49,0,2.25-.44.76-1.34,1.15-2.7,1.15.87,0,1.53.48,1.97,1.43.44.96.66,2.06.66,3.32s-.22,2.36-.66,3.32c-.44.96-1.09,1.43-1.97,1.43,1.09,0,1.9.4,2.42,1.19.52.79.78,1.71.78,2.74s-.26,1.94-.78,2.7c-.52.77-1.32,1.15-2.42,1.15.66.16,1.07.7,1.23,1.6.16.9.12,1.91-.12,3.03-.25,1.12-.63,2.06-1.15,2.83-.52.77-1.11,1.06-1.76.9,0,1.42-.38,2.36-1.15,2.83-.77.46-1.53.46-2.29,0-.77-.46-1.15-1.41-1.15-2.83,0,1.37-.4,2.28-1.19,2.74-.79.46-1.6.48-2.42.04-.82-.44-1.23-1.36-1.23-2.79-.38,1.15-.87,1.88-1.47,2.21-.6.33-1.13.3-1.6-.08-.46-.38-.67-1.04-.61-1.97-.44.88-1.24,1.45-2.42,1.72-1.17.27-2.28.2-3.32-.2-1.04-.41-1.56-1.16-1.56-2.25.05.77-.33,1.41-1.15,1.93-.82.52-1.93.83-3.32.94-1.39.11-2.91-.03-4.55-.41-1.64-.38-3.22-1.12-4.75-2.21Z"/>
    <path class="cls-1" d="M148.88,92.33c-.33,1.48-.82,2.38-1.47,2.7s-1.19.19-1.6-.41c-.41-.6-.45-1.61-.12-3.03-.38.82-1.01,1.27-1.88,1.35-.87.08-1.73-.08-2.58-.49-.85-.41-1.5-.98-1.97-1.72-.46-.74-.51-1.54-.12-2.42-.87-.27-1.43-.75-1.68-1.43-.25-.68-.25-1.37,0-2.05.25-.68.68-1.21,1.31-1.6.63-.38,1.38-.41,2.25-.08,0-.82.33-1.43.98-1.84.66-.41,1.41-.61,2.25-.61s1.6.2,2.25.61c.66.41.98,1.02.98,1.84.16-.82.74-1.39,1.72-1.72.98-.33,2.13-.44,3.44-.33,1.31.11,2.49.41,3.52.9.05-.38.22-.68.49-.9-.27-.49-.27-1.09,0-1.8-.6.49-1.48.74-2.62.74s-2.31-.19-3.48-.57c-1.18-.38-2.12-.9-2.83-1.56-.71-.66-.98-1.37-.82-2.13-.38,1.09-.93,1.72-1.64,1.89-.71.16-1.28-.04-1.72-.61-.44-.57-.46-1.43-.08-2.58-.6.44-1.3.42-2.09-.04-.79-.46-1.58-1.16-2.38-2.09-.79-.93-1.46-1.94-2.01-3.03-.55-1.09-.87-2.1-.98-3.03-.11-.93.14-1.58.74-1.97-.6-.33-.86-.93-.78-1.8.08-.87.38-1.77.9-2.7.52-.93,1.12-1.67,1.8-2.21.68-.54,1.32-.66,1.93-.33-.55-.93-.59-1.75-.12-2.46.46-.71,1.11-1.11,1.93-1.19s1.53.34,2.13,1.27c-.16-.87.09-1.64.78-2.29.68-.66,1.57-1.17,2.66-1.56,1.09-.38,2.22-.59,3.4-.61,1.17-.03,2.2.15,3.07.53.87.38,1.39,1.01,1.56,1.89.11-1.04.53-1.76,1.27-2.17.74-.41,1.53-.56,2.38-.45.85.11,1.57.46,2.17,1.06.6.6.82,1.39.66,2.38.33-1.04.81-1.65,1.43-1.84.63-.19,1.16-.04,1.6.45.44.49.49,1.26.16,2.29.44-.82,1.12-1.23,2.05-1.23s1.84.25,2.74.74c.9.49,1.58,1.15,2.05,1.97.46.82.45,1.64-.04,2.46,1.26.38,1.98.98,2.17,1.8.19.82-.03,1.52-.66,2.09-.63.57-1.54.67-2.74.29,0,.98-.38,1.71-1.15,2.17-.77.46-1.64.7-2.62.7s-1.84-.23-2.58-.7c-.74-.46-1.11-1.19-1.11-2.17-.16.66-.64,1.09-1.43,1.31-.79.22-1.71.26-2.74.12-1.04-.14-2.02-.4-2.95-.78.05.71-.19,1.37-.74,1.97,1.2.27,2.32.77,3.36,1.47,1.04.71,1.42,1.42,1.15,2.13.16-.76.63-1.28,1.39-1.56.76-.27,1.58-.31,2.46-.12.87.19,1.61.56,2.21,1.11.6.55.82,1.2.66,1.97.38-.44,1-.53,1.84-.29.85.25,1.75.71,2.7,1.39.96.68,1.84,1.45,2.66,2.3s1.42,1.67,1.8,2.46c.38.79.38,1.41,0,1.84,1.15-.05,1.99.19,2.54.74.54.55.83,1.17.86,1.88.03.71-.22,1.34-.74,1.89-.52.55-1.32.85-2.42.9.66.49.91,1.17.78,2.05-.14.87-.52,1.72-1.15,2.54-.63.82-1.34,1.41-2.13,1.76-.79.36-1.54.29-2.25-.2.44.98.46,1.83.08,2.54-.38.71-.96,1.23-1.72,1.56-.77.33-1.54.36-2.34.08-.79-.27-1.38-.87-1.76-1.8.11.98-.37,1.78-1.43,2.38-1.07.6-2.47.96-4.22,1.07-1.75.11-3.62-.08-5.61-.57-1.99-.49-3.92-1.31-5.78-2.46Z"/>
    <path class="cls-1" d="M186.17,86.43c-1.59,0-2.65-.33-3.2-.98-.55-.66-.55-1.31,0-1.97.54-.66,1.61-.98,3.2-.98-1.09,0-1.91-.37-2.46-1.11-.55-.74-.82-1.57-.82-2.5s.27-1.76.82-2.5c.54-.74,1.36-1.11,2.46-1.11-.93,0-1.68-.44-2.25-1.31-.57-.87-.96-1.94-1.15-3.2-.19-1.26-.19-2.51,0-3.77.19-1.26.57-2.32,1.15-3.2.57-.87,1.32-1.31,2.25-1.31-.71,0-1.3-.4-1.76-1.19-.46-.79-.76-1.77-.9-2.95-.14-1.17-.14-2.35,0-3.52.14-1.17.44-2.16.9-2.95.46-.79,1.05-1.19,1.76-1.19-1.09,0-1.91-.4-2.46-1.19-.55-.79-.82-1.71-.82-2.74s.27-1.95.82-2.74c.54-.79,1.36-1.19,2.46-1.19-1.31.11-2.23-.22-2.74-.98-.52-.76-.6-1.58-.25-2.46.35-.87,1.19-1.37,2.5-1.48.05-.93.37-1.62.94-2.09.57-.46,1.21-.68,1.93-.66.71.03,1.34.29,1.88.78s.82,1.2.82,2.13c-.05-1.04.4-1.86,1.35-2.46.96-.6,2.08-.93,3.36-.98,1.28-.05,2.43.16,3.44.66,1.01.49,1.54,1.26,1.6,2.29.98.05,1.71.64,2.17,1.76.46,1.12.7,2.42.7,3.89s-.26,2.76-.78,3.85c-.52,1.09-1.27,1.64-2.25,1.64.87,0,1.53.42,1.97,1.27.44.85.66,1.84.66,2.99s-.22,2.15-.66,2.99c-.44.85-1.09,1.27-1.97,1.27.98-.05,1.72.4,2.21,1.35.49.96.71,1.93.66,2.91.16.06.3.14.41.25.16-.98.7-1.8,1.6-2.46.9-.66,1.87-.66,2.91,0-.77-.49-1.08-1.13-.94-1.93.14-.79.52-1.43,1.15-1.93.63-.49,1.35-.49,2.17,0-.16-.87.18-1.62,1.02-2.25s1.89-1.07,3.11-1.31c1.23-.25,2.35-.23,3.36.04,1.01.27,1.6.85,1.76,1.72,0-1.26.33-2.09.98-2.5.66-.41,1.31-.41,1.97,0,.66.41.98,1.24.98,2.5-.05-1.36.31-2.28,1.11-2.74.79-.46,1.6-.48,2.42-.04.82.44,1.23,1.34,1.23,2.7.71.49,1.01,1.2.9,2.13-.11.93-.48,1.84-1.11,2.74-.63.9-1.35,1.56-2.17,1.97-.82.41-1.58.37-2.29-.12.82.6,1.09,1.54.82,2.83-.27,1.28-.86,2.54-1.76,3.77-.9,1.23-1.87,2.12-2.91,2.66.93.38,1.64,1.08,2.13,2.09.49,1.01.66,2.02.49,3.03-.16,1.01-.77,1.74-1.8,2.17.76-.33,1.62-.15,2.58.53.96.68,1.8,1.61,2.54,2.79.74,1.18,1.19,2.32,1.35,3.44.16,1.12-.14,1.93-.9,2.42.82-.49,1.64-.56,2.46-.2.82.36,1.47.93,1.97,1.72.49.79.72,1.63.7,2.5-.03.88-.45,1.59-1.27,2.13,0,1.09-.48,1.91-1.43,2.46-.96.55-2.05.82-3.28.82s-2.32-.27-3.28-.82c-.96-.54-1.43-1.36-1.43-2.46-.11,1.04-.63,1.76-1.56,2.17-.93.41-1.95.55-3.07.41-1.12-.14-2.09-.51-2.91-1.11s-1.18-1.42-1.07-2.46c-1.2.71-2.16.93-2.87.66-.71-.27-1.01-.78-.9-1.52.11-.74.74-1.46,1.89-2.17-.6.38-1.33.27-2.17-.33-.85-.6-1.65-1.45-2.42-2.54-.77-1.09-1.37-2.21-1.8-3.36-.77.6-1.56.79-2.38.57.49.66.78,1.59.86,2.79.08,1.2-.04,2.29-.37,3.28s-.87,1.47-1.64,1.47c.55,1.2.5,2.17-.12,2.91-.63.74-1.42,1.09-2.38,1.07-.96-.03-1.71-.64-2.25-1.84,0,.82-.32,1.45-.94,1.88-.63.44-1.34.66-2.13.66s-1.5-.22-2.13-.66-.94-1.06-.94-1.88c0,1.47-.3,2.39-.9,2.74-.6.35-1.22-.12-1.84-1.43-.63-1.31-.97-3.66-1.02-7.05Z"/>
    <path class="cls-1" d="M248.6,100.28c-.87-.38-1.43-.96-1.68-1.72s-.23-1.53.04-2.29.74-1.38,1.39-1.84c.66-.46,1.39-.59,2.21-.37-1.15-.44-1.79-.98-1.93-1.64-.14-.66.12-1.15.78-1.47-.66-.38-.93-.96-.82-1.72.11-.76.74-1.39,1.89-1.88-1.04.44-1.95.45-2.74.04-.79-.41-1.37-1.04-1.72-1.88-.36-.85-.4-1.69-.12-2.54.27-.85.93-1.49,1.97-1.93-.93.38-1.78.33-2.54-.16-.77-.49-1.34-1.2-1.72-2.13-.38-.93-.49-1.83-.33-2.7.16-.87.71-1.53,1.64-1.97-.82.38-1.64.16-2.46-.66-.82-.82-1.5-1.86-2.05-3.11-.55-1.26-.82-2.46-.82-3.6s.41-1.89,1.23-2.21c-.82.33-1.63.14-2.42-.57-.79-.71-1.45-1.67-1.97-2.87-.52-1.2-.77-2.35-.74-3.44.03-1.09.45-1.8,1.27-2.13-1.64-.76-2.31-1.45-2.01-2.05.3-.6,1.27-.52,2.91.25,0-1.09.48-1.9,1.43-2.42.96-.52,2.08-.78,3.36-.78s2.42.26,3.4.78c.98.52,1.47,1.32,1.47,2.42.54-1.04,1.24-1.56,2.09-1.56s1.49.36,1.93,1.07c.44.71.35,1.59-.25,2.62,1.31-.49,2.28-.56,2.91-.2.63.36.81.87.53,1.56-.27.68-1.07,1.24-2.38,1.68.6-.22,1.23,0,1.88.66s1.24,1.52,1.76,2.58c.52,1.07.93,2.19,1.23,3.36.3,1.17.41,2.21.33,3.11-.08.9-.42,1.46-1.02,1.68.55-.16,1.07-.11,1.56.16.49.27.93.68,1.31,1.23.66-.71,1.53-.85,2.62-.41-1.09-.38-1.71-.93-1.84-1.64-.14-.71.08-1.27.66-1.68.57-.41,1.38-.42,2.42-.04-.66-.27-1.04-.89-1.15-1.84-.11-.96-.01-2.05.29-3.28.3-1.23.74-2.42,1.31-3.56.57-1.15,1.21-2.05,1.93-2.7.71-.66,1.39-.85,2.05-.57-.27-.93-.07-1.73.61-2.42.68-.68,1.56-1.16,2.62-1.43,1.06-.27,2.06-.3,2.99-.08.93.22,1.53.79,1.8,1.72,0-1.09.42-1.82,1.27-2.17.85-.35,1.71-.35,2.58,0,.87.36,1.31,1.08,1.31,2.17.76.16,1.24.73,1.43,1.68.19.96.16,2.01-.08,3.15-.25,1.15-.67,2.1-1.27,2.87-.6.77-1.28,1.06-2.05.9,1.15.49,1.8,1.3,1.97,2.42.16,1.12,0,2.25-.49,3.4-.49,1.15-1.2,2.04-2.13,2.66-.93.63-1.97.7-3.11.21,1.09.49,1.68,1.13,1.76,1.93s-.19,1.45-.82,1.97c-.63.52-1.49.53-2.58.04.76.33,1.16,1.01,1.19,2.05.03,1.04-.19,2.1-.66,3.2-.46,1.09-1.08,1.98-1.84,2.66-.76.68-1.53.86-2.29.53.66.27,1.01.87,1.07,1.8.05.93-.1,1.99-.45,3.19-.36,1.2-.83,2.34-1.43,3.4-.6,1.06-1.27,1.9-2.01,2.5s-1.43.76-2.09.49c.87.38,1.35,1.07,1.43,2.05s-.11,2.01-.57,3.07c-.46,1.07-1.09,1.93-1.89,2.58-.79.66-1.63.79-2.5.41.98.6,1.57,1.31,1.76,2.13s.08,1.56-.33,2.21c-.41.66-1.03,1.08-1.84,1.27-.82.19-1.72-.04-2.7-.7,0,.87-.49,1.53-1.47,1.97-.98.44-2.13.66-3.44.66s-2.46-.22-3.44-.66c-.98-.44-1.48-1.09-1.48-1.97,0,1.2-.15,2.05-.45,2.54-.3.49-.56.52-.78.08-.22-.44-.26-1.46-.12-3.07.14-1.61.61-3.95,1.43-7.01Z"/>
    <path class="cls-1" d="M305.47,81.19c-1.47,0-2.6-.45-3.36-1.35s-1.15-1.97-1.15-3.2.38-2.29,1.15-3.2,1.89-1.35,3.36-1.35c-1.37,0-2.4-.44-3.11-1.31-.71-.87-1.07-1.87-1.07-2.99s.36-2.1,1.07-2.95c.71-.85,1.75-1.27,3.11-1.27-1.04,0-1.87-.4-2.5-1.19-.63-.79-1.04-1.77-1.23-2.95-.19-1.17-.19-2.34,0-3.48.19-1.15.6-2.12,1.23-2.91.63-.79,1.46-1.19,2.5-1.19-1.91,0-3.2-.44-3.85-1.31-.66-.87-.66-1.75,0-2.62.66-.87,1.94-1.31,3.85-1.31-1.2-.11-2.09-.54-2.66-1.31-.57-.76-.83-1.62-.78-2.58.05-.96.41-1.77,1.06-2.46.66-.68,1.58-1,2.79-.94,0-1.58.46-2.79,1.39-3.61.93-.82,1.99-1.23,3.2-1.23s2.27.41,3.2,1.23c.93.82,1.39,2.02,1.39,3.61,0-1.09.42-1.95,1.27-2.58.85-.63,1.88-1.05,3.11-1.27,1.23-.22,2.46-.22,3.69,0,1.23.22,2.27.64,3.11,1.27.85.63,1.27,1.49,1.27,2.58,0-1.58.38-2.77,1.15-3.56.76-.79,1.65-1.19,2.66-1.19s1.88.4,2.62,1.19c.74.79,1.11,2.01,1.11,3.65.16-1.42.56-2.44,1.19-3.07s1.31-.9,2.05-.82,1.35.51,1.84,1.27c.49.77.66,1.83.49,3.2.49-1.75,1.15-2.84,1.97-3.28.82-.44,1.46-.26,1.93.53.46.79.45,2.06-.04,3.81.76-.93,1.67-1.39,2.7-1.39s1.97.34,2.79,1.02c.82.68,1.35,1.52,1.6,2.5.25.98-.01,1.97-.78,2.95,1.47-.33,2.66-.18,3.56.45.9.63,1.47,1.46,1.72,2.5.25,1.04.11,2.05-.41,3.03-.52.98-1.52,1.64-2.99,1.97,1.26.44,2.1,1.04,2.54,1.8.44.77.52,1.5.25,2.21-.27.71-.82,1.23-1.64,1.56-.82.33-1.86.25-3.11-.25,1.26,1.64,1.8,2.96,1.64,3.97-.16,1.01-.77,1.49-1.8,1.43-1.04-.05-2.19-.9-3.44-2.54.6.76.93,1.56.98,2.38,1.42.55,2.65,1.42,3.69,2.62,1.04,1.2,1.23,2.38.57,3.52,1.31-.33,2.38-.31,3.2.04.82.36,1.32.89,1.52,1.6s.04,1.42-.45,2.13c-.49.71-1.39,1.26-2.7,1.64,1.53.33,2.61.93,3.24,1.8.63.87.85,1.79.66,2.74-.19.96-.74,1.73-1.64,2.33-.9.6-2.14.74-3.73.41,1.09,1.04,1.64,2.1,1.64,3.2s-.36,2.01-1.06,2.74c-.71.74-1.61,1.12-2.7,1.15-1.09.03-2.18-.48-3.28-1.52.71,1.69.94,2.94.7,3.73-.25.79-.75,1.01-1.52.66-.76-.35-1.5-1.38-2.21-3.07.16,1.2-.15,2.21-.94,3.03-.79.82-1.8,1.42-3.03,1.8-1.23.38-2.49.52-3.77.41-1.28-.11-2.39-.48-3.32-1.11s-1.47-1.54-1.64-2.74c0,1.47-.44,2.59-1.31,3.36-.87.76-1.9,1.15-3.07,1.15s-2.2-.38-3.07-1.15c-.87-.77-1.31-1.89-1.31-3.36,0,1.26-.34,2.2-1.03,2.83-.68.63-1.49.94-2.42.94s-1.74-.32-2.42-.94c-.68-.63-1.02-1.57-1.02-2.83,0,1.04-.34,1.82-1.02,2.34-.68.52-1.54.72-2.58.61-1.04-.11-2.06-.63-3.07-1.56-1.01-.93-1.86-2.36-2.54-4.3-.68-1.94-1-4.49-.94-7.66ZM321.04,55.3c.87,0,1.52.37,1.93,1.11.41.74.67,1.54.78,2.42.11.87.16,1.5.16,1.89.11-.87.49-1.48,1.15-1.8.66-.33,1.34-.37,2.05-.12.71.25,1.15.75,1.31,1.52-.11-.98.35-1.71,1.39-2.17,1.04-.46,1.97-.5,2.79-.12-.11-.6.01-1.22.37-1.84.35-.63.86-1.05,1.52-1.27-.55-.33-.97-.86-1.27-1.6-.3-.74-.4-1.4-.29-2.01-.44.33-.81.38-1.11.16-.3-.22-.4-.63-.29-1.23-.66.82-1.63,1.19-2.91,1.11-1.28-.08-2.2-.56-2.74-1.43,0,.66-.25,1.22-.74,1.68-.49.46-1.06.7-1.72.7.27.66.21,1.32-.2,2.01-.41.68-1.13,1.02-2.17,1.02ZM328.5,82.58c-.05-.93.31-1.57,1.11-1.93.79-.35,1.57-.42,2.34-.21-.27-.93-.21-1.93.2-2.99.41-1.07,1.02-1.87,1.84-2.42-.87-.38-1.67-.97-2.38-1.76-.71-.79-1.12-1.6-1.23-2.42-.44.71-1.15,1.15-2.13,1.31s-1.91.11-2.79-.16c.16.87-.07,1.69-.7,2.46-.63.77-1.43,1.09-2.42.98.82.49,1.36,1.28,1.64,2.38.27,1.09.33,2.08.16,2.95.82-.38,1.75-.42,2.79-.12,1.04.3,1.56.94,1.56,1.93Z"/>
    <path class="cls-1" d="M377.41,92.33c-.27.82-.78,1.35-1.52,1.6s-1.5.23-2.29-.04c-.79-.27-1.42-.72-1.89-1.35-.46-.63-.56-1.35-.29-2.17-.49.44-1.15.46-1.97.08-.82-.38-1.65-.98-2.5-1.8-.85-.82-1.59-1.73-2.21-2.74-.63-1.01-1.04-1.95-1.23-2.83-.19-.87-.04-1.5.45-1.88-1.47.22-2.53-.01-3.15-.7-.63-.68-.75-1.45-.37-2.29.38-.85,1.31-1.38,2.79-1.6-.82,0-1.43-.3-1.84-.9-.41-.6-.63-1.3-.66-2.09-.03-.79.16-1.5.57-2.13.41-.63,1.02-.94,1.84-.94-.87-.16-1.46-.66-1.76-1.47-.3-.82-.36-1.71-.16-2.66.19-.96.57-1.76,1.15-2.42.57-.66,1.3-.9,2.17-.74-.93-.6-1.45-1.31-1.56-2.13s.04-1.54.45-2.17c.41-.63,1.01-1.04,1.8-1.23.79-.19,1.65.01,2.58.61-.49-.71-.63-1.41-.41-2.09.22-.68.63-1.23,1.23-1.64.6-.41,1.26-.59,1.97-.53.71.05,1.31.44,1.8,1.15-.38-1.15-.36-2.01.08-2.58.44-.57,1-.78,1.68-.61.68.16,1.24.82,1.68,1.97-.16-.87-.03-1.56.41-2.05.44-.49,1-.81,1.68-.94.68-.14,1.32-.04,1.93.29.6.33.98.9,1.15,1.72,0-.82.4-1.43,1.19-1.84.79-.41,1.71-.61,2.74-.61s1.95.21,2.74.61c.79.41,1.19,1.02,1.19,1.84.22-1.15.75-1.94,1.6-2.38.85-.44,1.73-.56,2.66-.37.93.19,1.68.66,2.25,1.39.57.74.75,1.71.53,2.91.38-.76.94-1.17,1.68-1.23.74-.05,1.45.1,2.13.45.68.36,1.17.86,1.47,1.52.3.66.23,1.37-.2,2.13.87-.6,1.75-.72,2.62-.37.87.36,1.6.94,2.17,1.76.57.82.89,1.71.94,2.66.05.96-.36,1.71-1.23,2.25.93-.05,1.71.27,2.33.98.63.71,1.09,1.63,1.39,2.74.3,1.12.42,2.27.37,3.44-.05,1.17-.32,2.17-.78,2.99-.46.82-1.16,1.28-2.09,1.39,1.15.22,1.91.78,2.29,1.68.38.9.48,1.89.29,2.95-.19,1.06-.66,1.95-1.39,2.66-.74.71-1.65.96-2.74.74.82.55,1.27,1.19,1.35,1.93s-.1,1.41-.53,2.01c-.44.6-1.01,1-1.72,1.19-.71.19-1.47.01-2.29-.53.49.77.63,1.49.41,2.17-.22.68-.64,1.22-1.27,1.6-.63.38-1.31.55-2.05.49-.74-.05-1.32-.46-1.76-1.23.33,1.04.16,1.86-.49,2.46-.66.6-1.41.83-2.25.7-.85-.14-1.43-.75-1.76-1.84.22,1.31-.03,2.23-.74,2.75-.71.52-1.49.61-2.34.29-.85-.33-1.35-1.12-1.52-2.38.11,2.35-.71,3.52-2.46,3.52s-4.54-1.37-8.36-4.1ZM390.36,79.47c-.6-.05-1.02-.49-1.27-1.31s-.36-1.79-.33-2.91c.03-1.12.18-2.12.45-2.99.27-.87.68-1.39,1.23-1.56-.55,0-1.08-.38-1.6-1.15-.52-.76-.93-1.65-1.23-2.66-.3-1.01-.42-1.9-.37-2.66-.49.44-1.09.6-1.8.49-.71-.11-1.26-.46-1.64-1.06-.05.44-.22.71-.49.82-.27.11-.57.05-.9-.16.16.77.12,1.65-.12,2.66-.25,1.01-.61,1.9-1.11,2.66-.49.77-1.04,1.15-1.64,1.15.66.16,1.08.63,1.27,1.39.19.77.15,1.52-.12,2.25-.27.74-.77,1.11-1.47,1.11.6-.11,1.13.2,1.6.94s.79,1.6.98,2.58c.19.98.2,1.83.04,2.54.76-.44,1.91-.68,3.44-.74,1.53-.05,3.22-.52,5.08-1.39Z"/>
    <path class="cls-1" d="M424.69,100.28c-.87-.38-1.43-.96-1.68-1.72s-.23-1.53.04-2.29.74-1.38,1.39-1.84c.66-.46,1.39-.59,2.21-.37-1.15-.44-1.79-.98-1.93-1.64-.14-.66.12-1.15.78-1.47-.66-.38-.93-.96-.82-1.72.11-.76.74-1.39,1.89-1.88-1.04.44-1.95.45-2.74.04-.79-.41-1.37-1.04-1.72-1.88-.36-.85-.4-1.69-.12-2.54.27-.85.93-1.49,1.97-1.93-.93.38-1.78.33-2.54-.16-.77-.49-1.34-1.2-1.72-2.13-.38-.93-.49-1.83-.33-2.7.16-.87.71-1.53,1.64-1.97-.82.38-1.64.16-2.46-.66s-1.5-1.86-2.05-3.11c-.55-1.26-.82-2.46-.82-3.6s.41-1.89,1.23-2.21c-.82.33-1.63.14-2.42-.57-.79-.71-1.45-1.67-1.97-2.87-.52-1.2-.77-2.35-.74-3.44.03-1.09.45-1.8,1.27-2.13-1.64-.76-2.31-1.45-2.01-2.05.3-.6,1.27-.52,2.91.25,0-1.09.48-1.9,1.43-2.42.96-.52,2.08-.78,3.36-.78s2.42.26,3.4.78c.98.52,1.47,1.32,1.47,2.42.54-1.04,1.24-1.56,2.09-1.56s1.49.36,1.93,1.07c.44.71.35,1.59-.25,2.62,1.31-.49,2.28-.56,2.91-.2.63.36.81.87.53,1.56-.27.68-1.07,1.24-2.38,1.68.6-.22,1.23,0,1.88.66s1.24,1.52,1.76,2.58c.52,1.07.93,2.19,1.23,3.36.3,1.17.41,2.21.33,3.11-.08.9-.42,1.46-1.02,1.68.55-.16,1.07-.11,1.56.16.49.27.93.68,1.31,1.23.66-.71,1.53-.85,2.62-.41-1.09-.38-1.71-.93-1.84-1.64-.14-.71.08-1.27.66-1.68.57-.41,1.38-.42,2.42-.04-.66-.27-1.04-.89-1.15-1.84-.11-.96-.01-2.05.29-3.28.3-1.23.74-2.42,1.31-3.56.57-1.15,1.21-2.05,1.93-2.7.71-.66,1.39-.85,2.05-.57-.27-.93-.07-1.73.61-2.42.68-.68,1.56-1.16,2.62-1.43,1.06-.27,2.06-.3,2.99-.08.93.22,1.53.79,1.8,1.72,0-1.09.42-1.82,1.27-2.17.85-.35,1.71-.35,2.58,0,.87.36,1.31,1.08,1.31,2.17.76.16,1.24.73,1.43,1.68.19.96.16,2.01-.08,3.15-.25,1.15-.67,2.1-1.27,2.87-.6.77-1.28,1.06-2.05.9,1.15.49,1.8,1.3,1.97,2.42.16,1.12,0,2.25-.49,3.4-.49,1.15-1.2,2.04-2.13,2.66-.93.63-1.97.7-3.11.21,1.09.49,1.68,1.13,1.76,1.93s-.19,1.45-.82,1.97c-.63.52-1.49.53-2.58.04.76.33,1.16,1.01,1.19,2.05.03,1.04-.19,2.1-.66,3.2-.46,1.09-1.08,1.98-1.84,2.66-.76.68-1.53.86-2.29.53.66.27,1.01.87,1.07,1.8.05.93-.1,1.99-.45,3.19-.36,1.2-.83,2.34-1.43,3.4-.6,1.06-1.27,1.9-2.01,2.5s-1.43.76-2.09.49c.87.38,1.35,1.07,1.43,2.05.08.98-.11,2.01-.57,3.07-.46,1.07-1.09,1.93-1.89,2.58-.79.66-1.63.79-2.5.41.98.6,1.57,1.31,1.76,2.13s.08,1.56-.33,2.21c-.41.66-1.03,1.08-1.84,1.27-.82.19-1.72-.04-2.7-.7,0,.87-.49,1.53-1.47,1.97-.98.44-2.13.66-3.44.66s-2.46-.22-3.44-.66c-.98-.44-1.48-1.09-1.48-1.97,0,1.2-.15,2.05-.45,2.54-.3.49-.56.52-.78.08-.22-.44-.26-1.46-.12-3.07.14-1.61.61-3.95,1.43-7.01Z"/>
  </g>
  <text class="cls-2" transform="translate(164.52 151.5)"><tspan x="0" y="0">health</tspan></text>
</svg>