<?xml version="1.0" encoding="UTF-8"?>
<svg id="AB_7" data-name="AB 7" xmlns="http://www.w3.org/2000/svg" viewBox="0 0 75 75">
  <defs>
    <style>
      .cls-1 {
        fill: #1f2937;
      }
    </style>
  </defs>
  <path class="cls-1" d="M51.78,36.44c1.19,0,2.37-.21,3.48-.65s2.11-1.13,2.95-1.96l8.42-8.42c.55-.57.87-1.31.87-2.11s-.31-1.52-.87-2.08c-.28-.27-.61-.51-.97-.66-.36-.15-.75-.24-1.15-.24s-.78.09-1.15.24c-.36.15-.69.39-.97.66l-8.51,8.39c-.28.27-.61.51-.97.65-.36.15-.75.24-1.15.24s-.78-.09-1.15-.24c-.36-.15-.69-.39-.97-.65l10.53-10.51c.28-.27.5-.59.65-.98.15-.36.23-.74.23-1.13s-.08-.77-.23-1.13c-.15-.39-.37-.71-.65-.98-.28-.27-.61-.51-.97-.65-.36-.15-.75-.21-1.14-.21s-.78.06-1.14.21c-.36.15-.69.39-.97.65l-10.5,10.53c-.55-.57-.87-1.31-.87-2.11s.31-1.52.87-2.08l8.42-8.42c.28-.27.5-.6.65-.98.15-.36.23-.74.23-1.13s-.08-.77-.23-1.13c-.15-.39-.37-.71-.65-.98-.28-.27-.61-.51-.97-.66s-.75-.21-1.14-.21-.78.06-1.14.21c-.36.15-.69.39-.97.66l-8.42,8.42c-1.67,1.67-2.61,3.93-2.61,6.31s.94,4.64,2.61,6.31l-3.87,3.84L12.77,8.74l-.3-.18c-.15-.12-.32-.24-.51-.33l-.54-.21-.36-.24h-.8c-.18-.03-.36-.03-.54,0-.18.06-.35.15-.51.27l-.48.3h-.21l-.18.3c-.12.15-.24.33-.33.51-.09.18-.16.36-.21.57v.33c-.72,5.03-.26,10.18,1.35,15,1.61,4.82,4.31,9.2,7.91,12.8l7.86,7.83-16.1,16.07c-.28.27-.5.6-.65.98-.15.36-.23.74-.23,1.13s.08.77.23,1.13c.15.39.37.71.65.98.28.27.61.51.97.66.36.15.75.21,1.14.21s.78-.06,1.14-.21.69-.39.97-.66l18.06-17.8,8.42-8.42,5.95-5.95c1.66,1.67,3.92,2.62,6.28,2.65ZM29.02,41.86l-7.83-7.86c-4.29-4.34-6.98-10.03-7.62-16.1l19.67,19.64-4.23,4.32ZM47.59,43.55c-.56-.57-1.32-.89-2.12-.89s-1.56.33-2.12.86c-.57.57-.88,1.34-.89,2.14,0,.77.31,1.55.87,2.11l18.75,18.75c.57.51,1.32.8,2.08.77.39,0,.78-.06,1.14-.21.36-.15.69-.39.97-.66.28-.27.5-.59.65-.98.15-.36.23-.74.23-1.13s-.08-.77-.23-1.13c-.15-.39-.37-.71-.65-.98l-18.69-18.66Z"/>
</svg>