<?xml version="1.0" encoding="UTF-8"?>
<svg id="AB_8" data-name="AB 8" xmlns="http://www.w3.org/2000/svg" viewBox="0 0 75 75">
  <defs>
    <style>
      .cls-1 {
        fill: #1f2937;
      }
    </style>
  </defs>
  <path class="cls-1" d="M64.5,61.5h-3V16.5c0-.81-.31-1.56-.88-2.13-.56-.54-1.33-.87-2.12-.87s-1.56.33-2.12.87c-.56.57-.88,1.32-.88,2.13v45h-6V28.5c0-.81-.31-1.56-.88-2.13-.56-.54-1.33-.87-2.12-.87s-1.56.33-2.12.87c-.56.57-.88,1.32-.88,2.13v33h-6v-21c0-.81-.31-1.56-.88-2.13-.56-.54-1.33-.87-2.12-.87s-1.56.33-2.12.87c-.56.57-.88,1.32-.88,2.13v21h-6v-9c0-.81-.31-1.56-.88-2.13-.56-.54-1.33-.87-2.12-.87s-1.56.33-2.12.87c-.56.57-.88,1.32-.88,2.13v9h-6V10.5c0-.81-.32-1.56-.88-2.13-.56-.54-1.33-.87-2.12-.87s-1.56.33-2.12.87c-.56.57-.88,1.32-.88,2.13v54c0,.78.32,1.56.88,2.13.56.54,1.33.87,2.12.87h54c.8,0,1.56-.33,2.12-.87.56-.57.88-1.35.88-2.13s-.31-1.56-.88-2.13c-.56-.54-1.33-.87-2.12-.87Z"/>
</svg>