<?xml version="1.0" encoding="UTF-8"?>
<svg id="AB_4" data-name="AB 4" xmlns="http://www.w3.org/2000/svg" viewBox="0 0 75 75">
  <defs>
    <style>
      .cls-1 {
        fill: #fee3c9;
      }
    </style>
  </defs>
  <path class="cls-1" d="M53.93,21.16l-8.52-8.52c-.28-.27-.61-.51-.97-.66-.37-.15-.76-.24-1.15-.24s-.79.09-1.15.24c-.36.15-.7.39-.97.66-.56.57-.87,1.32-.87,2.1s.31,1.56.87,2.13l6.36,6.36-24.29,24.29-6.36-6.36c-.56-.57-1.32-.87-2.11-.87s-1.55.3-2.11.87c-.28.27-.5.6-.66.99-.15.36-.23.75-.23,1.14s.08.78.23,1.14c.15.39.37.72.66.99l8.43,8.43,8.43,8.43c.28.27.61.51.97.66s.76.24,1.15.24c.6,0,1.18-.18,1.68-.51.49-.33.88-.78,1.11-1.35.23-.54.29-1.14.17-1.74-.12-.57-.4-1.11-.83-1.53l-6.27-6.27,24.29-24.29,6.36,6.36c.28.27.61.51.97.66.37.15.76.21,1.15.21s.78-.09,1.15-.24c.36-.15.69-.36.97-.66.28-.27.5-.6.65-.96.15-.36.22-.75.22-1.14,0-.42-.08-.81-.23-1.17-.15-.36-.37-.69-.65-.96l-8.43-8.43ZM12.64,53.87c-.56-.57-1.33-.87-2.13-.87s-1.57.3-2.13.87c-.56.57-.88,1.32-.88,2.13s.32,1.56.88,2.13l8.49,8.49c.28.27.61.51.98.66.37.15.76.21,1.15.21s.79-.06,1.15-.21c.37-.15.7-.39.98-.66.28-.27.5-.6.66-.99.15-.36.23-.75.23-1.14s-.08-.78-.23-1.14c-.15-.39-.37-.72-.66-.99l-8.49-8.49ZM66.61,16.87l-8.49-8.49c-.28-.27-.61-.51-.98-.66s-.76-.21-1.15-.21-.79.06-1.15.21c-.37.15-.7.39-.98.66-.28.27-.5.6-.65.99-.15.36-.23.75-.23,1.14s.08.78.23,1.14c.15.39.37.72.65.99l8.49,8.49c.28.27.61.51.97.66.37.15.76.24,1.15.24s.79-.09,1.15-.24c.36-.15.7-.39.97-.66.28-.27.5-.6.66-.99.15-.36.23-.75.23-1.14s-.08-.78-.23-1.14c-.15-.39-.37-.72-.66-.99Z"/>
</svg>