<?xml version="1.0" encoding="UTF-8"?>
<svg id="AB_5" data-name="AB 5" xmlns="http://www.w3.org/2000/svg" viewBox="0 0 75 75">
  <defs>
    <style>
      .cls-1 {
        fill: #1f2937;
      }
    </style>
  </defs>
  <path class="cls-1" d="M39.44,51.93c-.13-.14-.28-.25-.44-.33-.14-.11-.3-.19-.46-.25-.16-.08-.34-.14-.52-.16-.52-.11-1.07-.05-1.55.16-.34.11-.65.33-.9.57-.25.25-.45.57-.57.9-.15.33-.23.68-.22,1.04,0,.35.06.71.19,1.04.16.33.36.63.6.9.25.25.56.46.89.6.33.14.69.19,1.05.19s.71-.05,1.04-.22c.33-.14.64-.33.9-.57.25-.25.45-.55.59-.9.14-.33.2-.68.2-1.04,0-.35-.08-.71-.22-1.04-.13-.33-.32-.65-.57-.9ZM28.09,40.69c-.14-.11-.3-.19-.46-.25-.16-.11-.34-.16-.52-.22-.35-.08-.71-.08-1.06,0l-.49.16-.49.25-.41.33c-.51.55-.79,1.25-.79,1.99,0,.35.07.71.2,1.04.14.35.34.65.59.9.26.25.57.44.9.57.41.16.86.25,1.31.19s.87-.19,1.24-.44c.37-.25.68-.6.89-.98.21-.41.32-.85.32-1.28-.01-.74-.29-1.42-.79-1.94l-.44-.33ZM28.53,51.93c-.26-.25-.56-.44-.9-.57-.49-.22-1.04-.3-1.58-.22l-.49.16c-.17.05-.34.14-.49.25-.14.11-.28.22-.41.33-.25.25-.44.57-.57.9-.14.33-.22.68-.22,1.04s.07.71.22,1.04c.14.33.33.63.57.9.25.27.55.46.88.63.33.14.69.22,1.05.22s.71-.05,1.04-.22c.33-.14.64-.33.9-.57.24-.27.43-.57.57-.9.14-.33.22-.68.22-1.04s-.07-.71-.22-1.04c-.13-.33-.32-.65-.57-.9ZM36.46,40.45c-.34.14-.64.33-.9.57-.5.52-.78,1.2-.79,1.94,0,.44.11.87.32,1.28.21.38.52.74.89.98.37.25.8.38,1.24.44s.89-.03,1.31-.19c.33-.14.64-.33.9-.57.25-.25.45-.55.59-.9.14-.33.2-.68.2-1.04-.01-.74-.29-1.42-.79-1.94-.38-.38-.87-.63-1.4-.74s-1.08-.05-1.57.16ZM50.35,51.93c-.26-.25-.57-.44-.9-.57-.5-.22-1.04-.27-1.57-.16s-1.01.35-1.4.74c-.25.25-.44.57-.57.9-.14.33-.22.68-.22,1.04s.07.71.22,1.04c.14.33.33.63.57.9.25.25.56.46.89.6.33.14.69.19,1.05.19s.71-.05,1.04-.22c.33-.14.64-.33.9-.57.38-.38.64-.87.74-1.39.1-.55.05-1.09-.16-1.58-.13-.33-.32-.65-.57-.9ZM48.41,18.41h-21.82c-.72,0-1.42.3-1.93.79-.51.52-.8,1.2-.8,1.94v10.91c0,.71.29,1.42.8,1.94.51.49,1.21.79,1.93.79h21.82c.72,0,1.42-.3,1.93-.79.51-.52.8-1.23.8-1.94v-10.91c0-.74-.29-1.42-.8-1.94-.51-.49-1.21-.79-1.93-.79ZM45.68,29.32h-16.36v-5.45h16.36v5.45ZM53.86,7.5H21.14c-2.17,0-4.25.87-5.78,2.4-1.54,1.53-2.4,3.6-2.4,5.78v43.64c0,2.18.86,4.25,2.4,5.78,1.53,1.53,3.61,2.4,5.78,2.4h32.73c2.17,0,4.25-.87,5.78-2.4,1.54-1.53,2.4-3.6,2.4-5.78V15.68c0-2.18-.86-4.25-2.4-5.78-1.53-1.53-3.61-2.4-5.78-2.4ZM56.59,59.32c0,.71-.29,1.42-.8,1.94-.51.49-1.21.79-1.93.79H21.14c-.72,0-1.42-.3-1.93-.79-.51-.52-.8-1.23-.8-1.94V15.68c0-.74.29-1.42.8-1.94.51-.49,1.21-.79,1.93-.79h32.73c.72,0,1.42.3,1.93.79.51.52.8,1.2.8,1.94v43.64ZM49.91,40.69c-.14-.11-.3-.19-.46-.25-.16-.08-.34-.14-.52-.16-.35-.08-.71-.08-1.06,0l-.49.16-.49.25-.41.33c-.5.52-.78,1.2-.79,1.94,0,.44.11.87.32,1.28.21.38.52.74.89.98.37.25.8.38,1.24.44s.89-.03,1.31-.19c.33-.14.64-.33.9-.57.25-.25.45-.55.59-.9.14-.33.2-.68.2-1.04-.01-.74-.29-1.42-.79-1.94l-.44-.33Z"/>
</svg>